<svg width="28" height="28" viewBox="0 0 28 28" fill="none" xmlns="http://www.w3.org/2000/svg">
<path d="M14.1737 0.666626H13.827C6.57366 0.666626 0.666992 6.57329 0.666992 13.8266V14.1733C0.666992 21.4266 6.57366 27.3333 13.827 27.3333H14.1737C21.427 27.3333 27.3337 21.4266 27.3337 14.1733V13.8266C27.3337 6.57329 21.427 0.666626 14.1737 0.666626ZM18.1203 15H12.2937L13.867 16.5866C14.267 16.9733 14.267 17.6 13.867 18C13.6803 18.1866 13.427 18.2933 13.1603 18.2933C12.907 18.2933 12.6537 18.1866 12.4537 18L9.17366 14.7066C8.78699 14.32 8.78699 13.68 9.17366 13.2933L12.4537 9.99996C12.8537 9.61329 13.4803 9.61329 13.867 9.99996C14.267 10.4 14.267 11.0266 13.867 11.4133L12.2937 13H18.1203C18.6803 13 19.1203 13.4533 19.1203 14C19.1203 14.5466 18.6803 15 18.1203 15Z" fill="#5E5E5E"/>
</svg>
