<svg width="24" height="24" viewBox="0 0 24 24" fill="none" xmlns="http://www.w3.org/2000/svg">
<g id="Group 47941">
<g id="Group 48016">
<path id="Union" fill-rule="evenodd" clip-rule="evenodd" d="M18.892 10.1507C18.8918 10.1507 18.8916 10.1506 18.8914 10.1505L16.2128 8.19299C15.6853 7.8075 14.9359 8.0231 14.6939 8.62996L14.3386 9.52111C14.187 9.90129 13.819 10.1507 13.4097 10.1507H1C0.447715 10.1507 0 10.5984 0 11.1507V11.6166C0 12.1689 0.447714 12.6166 0.999999 12.6166H19.1813C20.1425 12.6166 20.5502 11.3927 19.7809 10.8163L18.9423 10.1881C18.9422 10.188 18.9422 10.1879 18.9422 10.1878C18.9423 10.1878 18.9422 10.1877 18.9422 10.1876L18.9232 10.1737L18.8928 10.1509C18.8926 10.1508 18.8923 10.1507 18.892 10.1507Z" fill="url(#paint0_linear_16578_3858)"/>
<path id="Union_2" fill-rule="evenodd" clip-rule="evenodd" d="M18.892 13.182C18.8918 13.182 18.8916 13.1821 18.8914 13.1822L16.2128 15.1397C15.6853 15.5252 14.9359 15.3096 14.6939 14.7027L14.3386 13.8116C14.187 13.4314 13.819 13.182 13.4097 13.182L1 13.182C0.447715 13.182 -4.54322e-07 12.7343 -5.50886e-07 12.182L-6.3235e-07 11.7161C-7.28915e-07 11.1638 0.447713 10.7161 0.999998 10.7161L19.1813 10.7161C20.1425 10.7161 20.5502 11.94 19.7809 12.5164L18.9423 13.1447C18.9422 13.1447 18.9422 13.1448 18.9422 13.1449C18.9423 13.1449 18.9422 13.145 18.9422 13.1451L18.9233 13.1589L18.8928 13.1818C18.8926 13.1819 18.8923 13.182 18.892 13.182Z" fill="url(#paint1_linear_16578_3858)"/>
</g>
</g>
<defs>
<linearGradient id="paint0_linear_16578_3858" x1="16.6082" y1="8" x2="1.16549" y2="8" gradientUnits="userSpaceOnUse">
<stop stop-color="#8C9BAB"/>
<stop offset="1" stop-color="#8C9BAB" stop-opacity="0"/>
</linearGradient>
<linearGradient id="paint1_linear_16578_3858" x1="16.6082" y1="15.3327" x2="1.16549" y2="15.3327" gradientUnits="userSpaceOnUse">
<stop stop-color="#8C9BAB"/>
<stop offset="1" stop-color="#8C9BAB" stop-opacity="0"/>
</linearGradient>
</defs>
</svg>
