<svg width="102" height="102" viewBox="0 0 102 102" fill="none" xmlns="http://www.w3.org/2000/svg">
<path d="M50.9121 78.8365C71.6259 78.8365 88.4243 62.1645 88.4243 41.577C88.4243 20.9895 71.6259 4.3174 50.9121 4.3174C30.1983 4.3174 13.3999 20.9895 13.3999 41.577C13.3999 62.1645 30.1983 78.8365 50.9121 78.8365Z" fill="#333333"/>
<path d="M79.6463 36.7142V59.512C79.6463 64.2484 75.794 68.1006 70.9945 68.1006H30.9562C26.2199 68.1006 22.3676 64.3115 22.3044 59.5751C22.3044 59.512 22.3044 59.512 22.3044 59.4488V36.7142C22.3044 36.651 22.3044 36.651 22.3044 36.5879C22.3044 36.4616 22.3044 36.3353 22.3676 36.209C22.4307 36.0195 22.4939 35.8932 22.5571 35.7037L33.2929 15.1794C33.6718 14.3584 34.4927 13.9164 35.3769 13.9164H66.5107C67.3948 13.9164 68.1527 14.3584 68.5947 15.1794L79.3305 35.7037C79.3937 35.83 79.4568 36.0195 79.52 36.209C79.6463 36.3353 79.6463 36.5247 79.6463 36.7142Z" fill="#282828"/>
<g filter="url(#filter0_d_51_119)">
<path d="M79.6463 36.7144V61.8488C79.6463 65.3221 76.8676 68.1008 73.3311 68.1008H28.6196C25.1463 68.1008 22.3044 65.3221 22.3044 61.8488V36.588C22.3044 36.4617 22.3044 36.3354 22.3676 36.2091H36.7662C38.9134 36.2091 40.6816 37.9142 40.6816 40.1246C40.6816 41.1981 41.1237 42.2086 41.8184 42.9032C42.5762 43.6611 43.4603 44.04 44.597 44.04H57.4169C59.564 44.04 61.3323 42.3349 61.3323 40.1246C61.3323 39.051 61.7743 38.0405 62.469 37.3459C63.2268 36.588 64.1109 36.2091 65.1845 36.2091H79.52C79.6463 36.3354 79.6463 36.5249 79.6463 36.7144Z" fill="#787878"/>
</g>
<path d="M87.4657 23.7681C88.8957 23.7681 90.0549 22.6089 90.0549 21.1789C90.0549 19.7489 88.8957 18.5897 87.4657 18.5897C86.0357 18.5897 84.8765 19.7489 84.8765 21.1789C84.8765 22.6089 86.0357 23.7681 87.4657 23.7681Z" fill="#333333"/>
<path d="M84.8767 15.369C85.8532 15.369 86.6449 14.5773 86.6449 13.6007C86.6449 12.6242 85.8532 11.8325 84.8767 11.8325C83.9001 11.8325 83.1084 12.6242 83.1084 13.6007C83.1084 14.5773 83.9001 15.369 84.8767 15.369Z" fill="#333333"/>
<path d="M13.2624 21.1789C14.239 21.1789 15.0306 20.3873 15.0306 19.4107C15.0306 18.4341 14.239 17.6424 13.2624 17.6424C12.2858 17.6424 11.4941 18.4341 11.4941 19.4107C11.4941 20.3873 12.2858 21.1789 13.2624 21.1789Z" fill="#333333"/>
<path d="M9.28389 60.0805C11.0975 60.0805 12.5678 58.6102 12.5678 56.7966C12.5678 54.9829 11.0975 53.5127 9.28389 53.5127C7.47025 53.5127 6 54.9829 6 56.7966C6 58.6102 7.47025 60.0805 9.28389 60.0805Z" fill="#333333"/>
<path d="M66.7759 6.31873C67.6001 15.3161 68.0122 17.3765 66.1462 25.5248C65.5393 27.3364 64.9325 29.3205 63.6321 30.7007C61.8116 32.8573 58.5174 33.8062 55.83 33.1161C53.0559 32.4259 50.8019 30.0106 50.2818 27.0776C49.8483 25.2661 50.4551 23.1095 52.0156 21.988C53.6627 20.9529 56.0033 21.2117 57.3904 22.5056C58.9508 23.7996 59.5577 25.7836 59.471 27.6814C59.3843 29.5792 58.6908 31.477 57.7372 33.1161C55.5815 37.1462 54.694 37.1314 50.2818 43.7503" stroke="#BABABA" stroke-width="2" stroke-miterlimit="10" stroke-dasharray="4 4"/>
<path d="M71.6093 2.96776C71.2798 4.17005 69.9617 4.60724 68.6436 3.84215C67.2157 3.18636 66.2271 2.63987 66.4468 1.54688C66.7763 0.453898 68.0944 0.3446 69.6322 0.235301C71.4994 0.0167042 71.829 1.76548 71.6093 2.96776Z" fill="#BABABA"/>
<path d="M60.9549 4.06066C61.5041 5.04434 63.0419 5.70014 64.1402 4.71645C65.3485 3.62346 66.337 2.85837 65.7878 1.76539C65.2386 0.781702 64.3599 1.1096 62.4927 1.32819C60.9549 1.65609 60.2959 2.96767 60.9549 4.06066Z" fill="#BABABA"/>
<path d="M65.7878 0.0167384C66.5567 -0.0925601 67.3256 0.344634 67.5452 1.00043C67.6551 1.21902 67.7649 1.54692 67.7649 1.76551C67.9846 3.29569 67.4354 4.60728 66.5567 4.71658C65.5681 4.93517 64.5796 3.84219 64.4697 2.42131C64.4697 1.98411 64.4697 1.76551 64.4697 1.43762C64.5796 0.67253 65.0189 0.126037 65.7878 0.0167384C65.7878 0.0167384 65.8976 0.0167384 65.7878 0.0167384Z" fill="#5E5E5E"/>
<path d="M43.7699 53.1083C44.5701 53.1083 45.2188 52.4596 45.2188 51.6594C45.2188 50.8592 44.5701 50.2105 43.7699 50.2105C42.9697 50.2105 42.321 50.8592 42.321 51.6594C42.321 52.4596 42.9697 53.1083 43.7699 53.1083Z" fill="#282828"/>
<path d="M58.1806 53.1083C58.9808 53.1083 59.6295 52.4596 59.6295 51.6594C59.6295 50.8592 58.9808 50.2105 58.1806 50.2105C57.3804 50.2105 56.7317 50.8592 56.7317 51.6594C56.7317 52.4596 57.3804 53.1083 58.1806 53.1083Z" fill="#282828"/>
<path d="M53.3247 62.624H48.7822C48.0774 62.624 47.49 62.0366 47.49 61.3317C47.49 60.6269 48.0774 60.0395 48.7822 60.0395H53.2855C53.9904 60.0395 54.5778 60.6269 54.5778 61.3317C54.617 62.0366 54.0296 62.624 53.3247 62.624Z" fill="#282828"/>
<defs>
<filter id="filter0_d_51_119" x="0.304443" y="25.2091" width="101.342" height="75.8917" filterUnits="userSpaceOnUse" color-interpolation-filters="sRGB">
<feFlood flood-opacity="0" result="BackgroundImageFix"/>
<feColorMatrix in="SourceAlpha" type="matrix" values="0 0 0 0 0 0 0 0 0 0 0 0 0 0 0 0 0 0 127 0" result="hardAlpha"/>
<feOffset dy="11"/>
<feGaussianBlur stdDeviation="11"/>
<feColorMatrix type="matrix" values="0 0 0 0 0 0 0 0 0 0 0 0 0 0 0 0 0 0 0.27 0"/>
<feBlend mode="normal" in2="BackgroundImageFix" result="effect1_dropShadow_51_119"/>
<feBlend mode="normal" in="SourceGraphic" in2="effect1_dropShadow_51_119" result="shape"/>
</filter>
</defs>
</svg>
