<svg width="12" height="12" viewBox="0 0 12 12" fill="none" xmlns="http://www.w3.org/2000/svg">
<path d="M5.99996 0.166626C2.78579 0.166626 0.166626 2.78579 0.166626 5.99996C0.166626 9.21413 2.78579 11.8333 5.99996 11.8333C9.21413 11.8333 11.8333 9.21413 11.8333 5.99996C11.8333 2.78579 9.21413 0.166626 5.99996 0.166626ZM7.41163 6.81079C7.58663 6.98579 7.5808 7.25996 7.41163 7.42912C7.32413 7.51079 7.2133 7.55746 7.10247 7.55746C6.99163 7.55746 6.87495 7.51079 6.79328 7.42329L5.99996 6.62413L5.21246 7.42329C5.12496 7.51079 5.01412 7.55746 4.89745 7.55746C4.78662 7.55746 4.67579 7.51079 4.59412 7.42912C4.41912 7.25996 4.41912 6.98579 4.58828 6.81079L5.38747 5.99996L4.58828 5.18913C4.41912 5.01413 4.41912 4.73996 4.59412 4.57079C4.76329 4.40163 5.04329 4.40162 5.21246 4.57662L5.99996 5.37579L6.79328 4.57662C6.96245 4.40162 7.23663 4.40163 7.41163 4.57079C7.5808 4.73996 7.58663 5.01413 7.41163 5.18913L6.61245 5.99996L7.41163 6.81079Z" fill="#E54040"/>
</svg>
