<svg width="172" height="168" viewBox="0 0 172 168" fill="none" xmlns="http://www.w3.org/2000/svg">
<path d="M90.9485 132.442C127.173 132.442 156.54 103.074 156.54 66.7209C156.54 30.3674 127.043 1 90.9485 1C54.7244 1 25.3569 30.3674 25.3569 66.7209C25.3569 103.074 54.7244 132.442 90.9485 132.442Z" fill="#282828" stroke="#808080" stroke-width="2" stroke-miterlimit="10"/>
<path d="M160.615 109.125C163.544 109.125 165.919 106.75 165.919 103.821C165.919 100.891 163.544 98.5166 160.615 98.5166C157.685 98.5166 155.311 100.891 155.311 103.821C155.311 106.75 157.685 109.125 160.615 109.125Z" fill="#808080"/>
<path d="M168.378 88.4255C170.378 88.4255 172 86.8037 172 84.8031C172 82.8025 170.378 81.1807 168.378 81.1807C166.377 81.1807 164.755 82.8025 164.755 84.8031C164.755 86.8037 166.377 88.4255 168.378 88.4255Z" fill="#808080"/>
<path d="M28.85 23.5105C30.8506 23.5105 32.4724 21.8886 32.4724 19.888C32.4724 17.8874 30.8506 16.2656 28.85 16.2656C26.8493 16.2656 25.2275 17.8874 25.2275 19.888C25.2275 21.8886 26.8493 23.5105 28.85 23.5105Z" fill="#808080"/>
<path d="M6.72734 93.3717C10.4427 93.3717 13.4547 90.3597 13.4547 86.6443C13.4547 82.9289 10.4427 79.917 6.72734 79.917C3.01193 79.917 0 82.9289 0 86.6443C0 90.3597 3.01193 93.3717 6.72734 93.3717Z" fill="#808080"/>
<path d="M139.867 68.2728L143.363 67.219C143.616 67.1455 143.616 66.7779 143.363 66.7044L139.867 65.6506C139.777 65.6261 139.711 65.5608 139.687 65.4709L138.633 61.9829C138.56 61.7297 138.192 61.7297 138.118 61.9829L137.065 65.4709C137.04 65.5608 136.975 65.6261 136.885 65.6506L133.397 66.7044C133.144 66.7779 133.144 67.1455 133.397 67.219L136.893 68.2728C136.983 68.2973 137.048 68.3627 137.073 68.4525L138.127 71.9487C138.2 72.2019 138.568 72.2019 138.641 71.9487L139.695 68.4525C139.711 68.3627 139.777 68.2973 139.867 68.2728Z" fill="#41CC5D"/>
<path d="M119.167 30.7549L122.663 29.7012C122.916 29.6277 122.916 29.2601 122.663 29.1866L119.167 28.1329C119.077 28.1084 119.012 28.043 118.987 27.9532L117.933 24.4653C117.86 24.2121 117.492 24.2121 117.419 24.4653L116.365 27.9532C116.34 28.043 116.275 28.1084 116.185 28.1329L112.697 29.1866C112.444 29.2601 112.444 29.6277 112.697 29.7012L116.193 30.7549C116.283 30.7794 116.349 30.8447 116.373 30.9346L117.427 34.4306C117.5 34.6839 117.868 34.6839 117.942 34.4306L118.995 30.9346C119.012 30.8447 119.077 30.7794 119.167 30.7549Z" fill="#41CC5D"/>
<path d="M66.5859 35.1202L69.6451 34.1982C69.8666 34.1339 69.8666 33.8123 69.6451 33.7479L66.5859 32.826C66.5073 32.8045 66.4501 32.7473 66.4286 32.6687L65.5066 29.6169C65.4423 29.3953 65.1206 29.3953 65.0563 29.6169L64.1343 32.6687C64.1128 32.7473 64.0556 32.8045 63.977 32.826L60.925 33.7479C60.7034 33.8123 60.7034 34.1339 60.925 34.1982L63.9842 35.1202C64.0628 35.1417 64.12 35.1988 64.1414 35.2775L65.0634 38.3365C65.1278 38.558 65.4494 38.558 65.5137 38.3365L66.4358 35.2775C66.4501 35.1988 66.5073 35.1417 66.5859 35.1202Z" fill="#41CC5D"/>
<path d="M44.5927 91.3045L47.6519 90.2508C47.8735 90.1773 47.8735 89.8097 47.6519 89.7361L44.5927 88.6824C44.5141 88.6579 44.4569 88.5925 44.4355 88.5027L43.5134 85.0146C43.4491 84.7614 43.1275 84.7614 43.0631 85.0146L42.1411 88.5027C42.1196 88.5925 42.0625 88.6579 41.9838 88.6824L38.9318 89.7361C38.7102 89.8097 38.7102 90.1773 38.9318 90.2508L41.991 91.3045C42.0696 91.329 42.1268 91.3944 42.1482 91.4842L43.0703 94.9805C43.1346 95.2337 43.4563 95.2337 43.5206 94.9805L44.4426 91.4842C44.4569 91.3944 44.5141 91.329 44.5927 91.3045Z" fill="#41CC5D"/>
<path d="M39.6944 51.4617L41.8796 50.8031C42.0378 50.7572 42.0378 50.5275 41.8796 50.4815L39.6944 49.823C39.6383 49.8076 39.5974 49.7668 39.5821 49.7107L38.9235 47.5308C38.8776 47.3725 38.6478 47.3725 38.6019 47.5308L37.9433 49.7107C37.928 49.7668 37.8871 49.8076 37.831 49.823L35.6509 50.4815C35.4927 50.5275 35.4927 50.7572 35.6509 50.8031L37.8361 51.4617C37.8922 51.477 37.9331 51.5178 37.9484 51.574L38.607 53.7589C38.6529 53.9172 38.8827 53.9172 38.9286 53.7589L39.5872 51.574C39.5974 51.5178 39.6383 51.477 39.6944 51.4617Z" fill="#41CC5D"/>
<path d="M62.9811 73.0745L65.1662 72.4159C65.3245 72.37 65.3245 72.1403 65.1662 72.0943L62.9811 71.4358C62.9249 71.4204 62.8841 71.3796 62.8687 71.3234L62.2101 69.1436C62.1642 68.9853 61.9344 68.9853 61.8885 69.1436L61.2299 71.3234C61.2146 71.3796 61.1737 71.4204 61.1176 71.4358L58.9375 72.0943C58.7793 72.1403 58.7793 72.37 58.9375 72.4159L61.1227 73.0745C61.1788 73.0898 61.2197 73.1306 61.235 73.1868L61.8936 75.3717C61.9396 75.53 62.1693 75.53 62.2152 75.3717L62.8738 73.1868C62.8841 73.1306 62.9249 73.0898 62.9811 73.0745Z" fill="#41CC5D"/>
<path d="M81.5094 11.5051L83.6945 10.8466C83.8528 10.8006 83.8528 10.5709 83.6945 10.525L81.5094 9.86642C81.4532 9.85111 81.4124 9.81027 81.3971 9.75411L80.7385 7.57426C80.6925 7.416 80.4628 7.416 80.4168 7.57426L79.7582 9.75411C79.7429 9.81027 79.7021 9.85111 79.6459 9.86642L77.4659 10.525C77.3076 10.5709 77.3076 10.8006 77.4659 10.8466L79.651 11.5051C79.7072 11.5205 79.748 11.5613 79.7633 11.6174L80.4219 13.8024C80.4679 13.9607 80.6976 13.9607 80.7436 13.8024L81.4022 11.6174C81.4124 11.5613 81.4532 11.5205 81.5094 11.5051Z" fill="#41CC5D"/>
<path d="M133.288 105.106L135.473 104.448C135.631 104.402 135.631 104.172 135.473 104.126L133.288 103.467C133.232 103.452 133.191 103.411 133.175 103.355L132.517 101.175C132.471 101.017 132.241 101.017 132.195 101.175L131.537 103.355C131.521 103.411 131.48 103.452 131.424 103.467L129.244 104.126C129.086 104.172 129.086 104.402 129.244 104.448L131.429 105.106C131.485 105.122 131.526 105.162 131.542 105.219L132.2 107.403C132.246 107.562 132.476 107.562 132.522 107.403L133.18 105.219C133.191 105.162 133.232 105.122 133.288 105.106Z" fill="#41CC5D"/>
<path d="M71.6273 76.748C66.1255 80.7565 58.8945 86.5727 58.8945 91.6816C58.8945 96.7904 58.8945 105.593 58.8945 105.593C58.8945 105.593 64.3178 98.9126 75.4786 99.9343C86.6395 100.956 73.5137 82.2499 73.5137 82.2499L71.6273 76.748Z" fill="#282828" stroke="#808080" stroke-width="2" stroke-miterlimit="10"/>
<path d="M111.634 76.748C117.135 80.8351 124.366 86.5727 124.366 91.6816C124.366 96.7904 124.366 105.593 124.366 105.593C124.366 105.593 118.943 98.9126 107.782 99.9343C96.6214 100.956 109.747 82.2499 109.747 82.2499L111.634 76.748Z" fill="#282828" stroke="#808080" stroke-width="2" stroke-miterlimit="10"/>
<path d="M91.5912 20.4722C81.2163 27.8603 68.7979 46.0164 71.0772 69.1241C73.2779 92.2317 75.2429 103.628 79.4871 106.379C83.81 109.13 88.0543 109.759 91.5912 109.759C95.128 109.759 99.3723 109.13 103.695 106.379C108.018 103.628 109.904 92.2317 112.105 69.1241C114.306 46.0164 101.887 27.8603 91.5912 20.4722Z" fill="#282828" stroke="#808080" stroke-width="2" stroke-miterlimit="10"/>
<path d="M99.451 112.982H83.7315C82.4739 112.982 81.5308 111.96 81.5308 110.781V106.93H101.73V110.702C101.652 111.96 100.63 112.982 99.451 112.982Z" fill="#282828" stroke="#808080" stroke-width="2" stroke-miterlimit="10"/>
<path d="M92.6915 74.1968H90.4907V103.199H92.6915V74.1968Z" fill="#808080"/>
<path d="M91.5912 59.6922C95.8886 59.6922 99.3724 56.2085 99.3724 51.911C99.3724 47.6136 95.8886 44.1299 91.5912 44.1299C87.2938 44.1299 83.8101 47.6136 83.8101 51.911C83.8101 56.2085 87.2938 59.6922 91.5912 59.6922Z" stroke="#41CC5D" stroke-width="4" stroke-miterlimit="10"/>
<path d="M101.447 131.038C101.447 136.898 96.744 166.271 90.8839 166.271C85.0238 166.271 80.3213 136.898 80.3213 131.038C80.3213 125.178 85.0238 120.475 90.8839 120.475C96.744 120.475 101.447 125.25 101.447 131.038Z" fill="#282828" stroke="#808080" stroke-width="2" stroke-miterlimit="10"/>
<path d="M90.8834 152.742C88.7854 148.256 86.3979 135.813 86.3979 131.834C86.3979 129.374 88.4237 127.348 90.8834 127.348C93.3432 127.348 95.3689 129.374 95.3689 131.834C95.3689 135.813 92.9815 148.184 90.8834 152.742Z" fill="#1F2229" stroke="#808080" stroke-width="2" stroke-miterlimit="10"/>
</svg>
