<svg width="327" height="58" viewBox="0 0 327 58" fill="none" xmlns="http://www.w3.org/2000/svg">
<g filter="url(#filter0_d_3669_348)">
<mask id="mask0_3669_348" style="mask-type:alpha" maskUnits="userSpaceOnUse" x="4" y="2" width="319" height="50">
<rect x="323" y="52" width="319" height="50" rx="12" transform="rotate(-180 323 52)" fill="url(#paint1_linear_3669_348)"/>
</mask>
<g mask="url(#mask0_3669_348)">
<rect opacity="0.32" width="440.058" height="239.997" rx="119.998" transform="matrix(0.845657 0.533727 -0.613477 0.789713 69.2324 -190.623)" fill="url(#paint2_radial_3669_348)"/>
<path opacity="0.32" d="M147.786 23.3007C178.153 74.1448 175.957 64.8702 182.996 76.5486C186.573 82.3884 208.083 105.503 249.191 127.77C300.576 155.605 357.7 146.96 383.516 96.5685C412.444 40.0999 439.508 22.814 368 -58.4948C300.012 -135.801 206.401 -92.4766 172.892 -63.6251C142.147 -37.154 133.027 -1.41027 147.786 23.3007Z" fill="url(#paint3_radial_3669_348)"/>
</g>
</g>
<defs>
<filter id="filter0_d_3669_348" x="0" y="0" width="327" height="58" filterUnits="userSpaceOnUse" color-interpolation-filters="sRGB">
<feFlood flood-opacity="0" result="BackgroundImageFix"/>
<feColorMatrix in="SourceAlpha" type="matrix" values="0 0 0 0 0 0 0 0 0 0 0 0 0 0 0 0 0 0 127 0" result="hardAlpha"/>
<feOffset dy="2"/>
<feGaussianBlur stdDeviation="2"/>
<feComposite in2="hardAlpha" operator="out"/>
<feColorMatrix type="matrix" values="0 0 0 0 0 0 0 0 0 0 0 0 0 0 0 0 0 0 0.12 0"/>
<feBlend mode="normal" in2="BackgroundImageFix" result="effect1_dropShadow_3669_348"/>
<feBlend mode="normal" in="SourceGraphic" in2="effect1_dropShadow_3669_348" result="shape"/>
</filter>
<linearGradient id="paint0_linear_3669_348" x1="482.5" y1="19.8182" x2="482.5" y2="100" gradientUnits="userSpaceOnUse">
<stop stop-color="#282828"/>
<stop offset="1"/>
<stop offset="1" stop-color="#1E1E1E"/>
</linearGradient>
<linearGradient id="paint1_linear_3669_348" x1="482.5" y1="20.1818" x2="482.5" y2="102" gradientUnits="userSpaceOnUse">
<stop stop-color="#282828"/>
<stop offset="1"/>
<stop offset="1" stop-color="#1E1E1E"/>
</linearGradient>
<radialGradient id="paint2_radial_3669_348" cx="0" cy="0" r="1" gradientUnits="userSpaceOnUse" gradientTransform="translate(220.029 119.998) rotate(42.9302) scale(86.1479 162.716)">
<stop stop-color="#41CC5D"/>
<stop offset="0.416667" stop-color="#41CC5D" stop-opacity="0.42"/>
<stop offset="1" stop-color="#FFDD32" stop-opacity="0"/>
</radialGradient>
<radialGradient id="paint3_radial_3669_348" cx="0" cy="0" r="1" gradientUnits="userSpaceOnUse" gradientTransform="translate(282.358 15.0199) rotate(-154.942) scale(136.597 104.134)">
<stop stop-color="#7678ED"/>
<stop offset="0.536458" stop-color="#7678ED" stop-opacity="0.56"/>
<stop offset="1" stop-color="#41CC5D" stop-opacity="0"/>
</radialGradient>
</defs>
</svg>
