<svg width="20" height="20" viewBox="0 0 20 20" fill="none" xmlns="http://www.w3.org/2000/svg">
<g id="Group 47979">
<g id="Group 47726">
<g id="Group 47724">
<path id="Shape" fill-rule="evenodd" clip-rule="evenodd" d="M9.00658 6.76297C9.00658 6.39124 9.30794 6.08988 9.67968 6.08988C10.0514 6.08988 10.3528 6.39124 10.3528 6.76297C11.468 6.76297 12.372 7.66704 12.372 8.78225C12.372 9.15399 12.0707 9.45535 11.699 9.45535C11.3272 9.45535 11.0259 9.15399 11.0259 8.78225C11.0259 8.41051 10.7245 8.10916 10.3528 8.10916H9.67968H8.83388C8.55752 8.10916 8.33349 8.33319 8.33349 8.60955C8.33349 8.82493 8.47131 9.01615 8.67564 9.08426L11.1094 9.89551C11.8634 10.1469 12.372 10.8525 12.372 11.6473C12.372 12.6672 11.5453 13.4939 10.5255 13.4939H10.3528C10.3528 13.8656 10.0514 14.167 9.67968 14.167C9.30794 14.167 9.00658 13.8656 9.00658 13.4939C7.89137 13.4939 6.9873 12.5898 6.9873 11.4746C6.9873 11.1029 7.28866 10.8015 7.6604 10.8015C8.03214 10.8015 8.33349 11.1029 8.33349 11.4746C8.33349 11.8464 8.63484 12.1477 9.00658 12.1477H9.67968H10.5255C10.8018 12.1477 11.0259 11.9237 11.0259 11.6473C11.0259 11.4319 10.888 11.2407 10.6837 11.1726L8.24994 10.3614C7.49591 10.11 6.9873 9.40437 6.9873 8.60955C6.9873 7.58971 7.81404 6.76297 8.83388 6.76297L9.00658 6.76297Z" fill="white"/>
<path id="Union" fill-rule="evenodd" clip-rule="evenodd" d="M9.74199 4.16667C7.31799 4.16667 5.23779 5.64578 4.35747 7.75159C4.19633 8.13704 3.81157 8.3966 3.40856 8.3554C3.38215 8.35776 3.35539 8.35889 3.32833 8.35872C2.8681 8.35596 2.49725 7.98063 2.50002 7.5204L2.52316 3.668C2.52593 3.20777 2.90126 2.83692 3.36149 2.83968C3.82171 2.84245 4.19256 3.21778 4.1898 3.67801L4.18206 4.96651C5.55407 3.45169 7.53647 2.5 9.74199 2.5C12.9451 2.5 15.6776 4.50733 16.7532 7.3317C16.917 7.76181 16.6443 8.21862 16.1986 8.33333C15.7529 8.44805 15.304 8.17621 15.1265 7.75159C14.2462 5.64578 12.166 4.16667 9.74199 4.16667ZM3.28535 11.6667C3.73106 11.5519 4.17996 11.8238 4.35747 12.2484C5.23779 14.3542 7.31799 15.8333 9.74199 15.8333C12.166 15.8333 14.2462 14.3542 15.1265 12.2484C15.2674 11.9114 15.5792 11.6707 15.9247 11.643C15.9596 11.6387 15.9951 11.6367 16.0312 11.6369C16.4914 11.6396 16.8622 12.015 16.8595 12.4752L16.8361 16.3611C16.8334 16.8214 16.458 17.1922 15.9978 17.1895C15.5376 17.1867 15.1667 16.8114 15.1695 16.3511L15.1766 15.1685C13.8106 16.6046 11.8812 17.5 9.74199 17.5C6.53888 17.5 3.80637 15.4927 2.73079 12.6683C2.567 12.2382 2.83964 11.7814 3.28535 11.6667Z" fill="white"/>
</g>
</g>
</g>
</svg>
