<svg width="20" height="20" viewBox="0 0 20 20" fill="none" xmlns="http://www.w3.org/2000/svg">
<path d="M9.98334 14.5416C13.3661 14.5416 16.1083 11.7994 16.1083 8.41663C16.1083 5.03389 13.3661 2.29163 9.98334 2.29163C6.6006 2.29163 3.85834 5.03389 3.85834 8.41663C3.85834 11.7994 6.6006 14.5416 9.98334 14.5416Z" stroke="#00B881" stroke-width="1.5" stroke-linecap="round" stroke-linejoin="round"/>
<path d="M5.00002 12.0833L2.91669 15.6416L5.37503 15.5082L6.49169 17.6999L8.33335 14.5833C6.94169 14.2249 5.82502 13.2166 5.00002 12.0833Z" stroke="#00B881" stroke-width="1.5" stroke-linecap="round" stroke-linejoin="round"/>
<path d="M15 12.0833C14.1834 13.2249 13.0584 14.2166 11.6667 14.5833L13.5083 17.7083L14.625 15.5166L17.0834 15.6499L15 12.0833Z" stroke="#00B881" stroke-width="1.5" stroke-linecap="round" stroke-linejoin="round"/>
<path d="M13.4833 7.64158C13.6416 7.49158 13.55 7.21657 13.3333 7.19157L11.325 6.8999C11.2416 6.88323 11.1666 6.83324 11.125 6.7499L10.2249 4.9249C10.1249 4.7249 9.84163 4.7249 9.74997 4.9249L8.84995 6.7499C8.80829 6.8249 8.7333 6.88323 8.64996 6.8999L6.64163 7.19157C6.42496 7.2249 6.34163 7.49158 6.49163 7.64158L7.94997 9.05823C8.01663 9.12489 8.04163 9.20823 8.02496 9.29156L7.68329 11.2916C7.64163 11.5082 7.87495 11.6749 8.06662 11.5666L9.86662 10.6249C9.94162 10.5832 10.0416 10.5832 10.1166 10.6249L11.9166 11.5666C12.1083 11.6666 12.3416 11.4999 12.3 11.2916L11.9583 9.29156C11.9416 9.20823 11.975 9.11656 12.0333 9.05823L13.4833 7.64158Z" stroke="#00B881" stroke-width="1.5" stroke-linecap="round" stroke-linejoin="round"/>
</svg>
