<svg width="213" height="37" viewBox="0 0 213 37" fill="none" xmlns="http://www.w3.org/2000/svg">
<path d="M19.1674 0.111755C29.343 0.111755 37.5901 8.35881 37.5901 18.5345C37.5901 28.7102 29.343 36.9572 19.1674 36.9572C8.99168 36.9572 0.744629 28.7102 0.744629 18.5345C0.744629 8.35881 8.99168 0.111755 19.1674 0.111755Z" fill="#0052FF"/>
<path d="M19.1714 25.0113C15.5948 25.0113 12.6947 22.1147 12.6947 18.5345C12.6947 14.9543 15.5948 12.0578 19.1714 12.0578C22.3774 12.0578 25.0401 14.3966 25.551 17.4551H32.0745C31.524 10.8056 25.9576 5.58105 19.1678 5.58105C12.0146 5.58105 6.21436 11.3813 6.21436 18.5345C6.21436 25.6877 12.0146 31.488 19.1678 31.488C25.9576 31.488 31.524 26.2634 32.0745 19.614H25.5474C25.0329 22.6725 22.3774 25.0113 19.1714 25.0113Z" fill="white"/>
<path d="M72.4667 11.5463C68.1211 11.5463 64.7257 14.8445 64.7257 19.2597C64.7257 23.6761 68.0354 26.9449 72.4667 26.9449C76.8979 26.9449 80.2651 23.6186 80.2651 19.2315C80.264 14.8727 76.9555 11.5463 72.4667 11.5463ZM72.4949 23.7629C70.0203 23.7629 68.2069 21.8414 68.2069 19.2608C68.2069 16.651 69.9909 14.7305 72.4656 14.7305C74.9695 14.7305 76.7818 16.6803 76.7818 19.2608C76.7828 21.8414 74.9695 23.7629 72.4949 23.7629ZM81.2141 14.902H83.3728V26.6594H86.8257V11.834H81.2141V14.902ZM56.0358 14.7294C57.8492 14.7294 59.2879 15.8476 59.8341 17.5108H63.489C62.8266 13.9553 59.8916 11.5463 56.0651 11.5463C51.7196 11.5463 48.3242 14.8445 48.3242 19.2597C48.3242 23.6761 51.6338 26.9449 56.0651 26.9449C59.8058 26.9449 62.7984 24.5359 63.4607 20.9512H59.8351C59.3172 22.6143 57.8785 23.7619 56.0651 23.7619C53.5612 23.7619 51.8065 21.8403 51.8065 19.2597C51.8054 16.651 53.5319 14.7294 56.0358 14.7294ZM146.822 17.8267L144.29 17.4543C143.082 17.2828 142.218 16.8811 142.218 15.9344C142.218 14.902 143.341 14.3863 144.866 14.3863C146.535 14.3863 147.6 15.1028 147.83 16.2786H151.168C150.793 13.2964 148.491 11.5474 144.953 11.5474C141.298 11.5474 138.881 13.4114 138.881 16.0495C138.881 18.5725 140.464 20.036 143.657 20.4941L146.189 20.8665C147.427 21.038 148.118 21.5265 148.118 22.4439C148.118 23.6196 146.909 24.1071 145.24 24.1071C143.197 24.1071 142.046 23.2755 141.873 22.014H138.478C138.795 24.9105 141.067 26.946 145.211 26.946C148.981 26.946 151.484 25.2253 151.484 22.2713C151.484 19.6332 149.671 18.2566 146.822 17.8267ZM85.0982 5.72515C83.8321 5.72515 82.882 6.64251 82.882 7.90402C82.882 9.16552 83.8321 10.084 85.0982 10.084C86.3642 10.084 87.3143 9.16661 87.3143 7.9051C87.3143 6.6436 86.3653 5.72515 85.0982 5.72515ZM135.772 16.9093C135.772 13.698 133.815 11.5474 129.672 11.5474C125.758 11.5474 123.571 13.5265 123.139 16.5663H126.564C126.737 15.3905 127.657 14.4156 129.614 14.4156C131.37 14.4156 132.233 15.1897 132.233 16.1364C132.233 17.3697 130.65 17.6845 128.693 17.8853C126.046 18.1719 122.766 19.0893 122.766 22.5308C122.766 25.1982 124.752 26.9178 127.917 26.9178C130.392 26.9178 131.945 25.8854 132.723 24.2504C132.838 25.7127 133.931 26.6594 135.457 26.6594H137.471V23.5914H135.773V16.9093H135.772ZM132.376 20.6374C132.376 22.6165 130.65 24.0789 128.549 24.0789C127.253 24.0789 126.16 23.5339 126.16 22.3874C126.16 20.9251 127.916 20.5234 129.527 20.3519C131.081 20.2086 131.944 19.8644 132.376 19.2044V20.6374ZM114.046 11.5463C112.118 11.5463 110.507 12.3497 109.356 13.697V5.58185H105.903V26.6594H109.298V24.7096C110.449 26.1144 112.09 26.946 114.046 26.946C118.19 26.946 121.327 23.6772 121.327 19.2608C121.327 14.8445 118.132 11.5463 114.046 11.5463ZM113.529 23.7629C111.054 23.7629 109.241 21.8414 109.241 19.2608C109.241 16.6803 111.082 14.7305 113.557 14.7305C116.061 14.7305 117.815 16.6521 117.815 19.2608C117.817 21.8414 116.003 23.7629 113.529 23.7629ZM97.645 11.5463C95.4005 11.5463 93.9325 12.4637 93.0693 13.7545V11.8329H89.6445V26.6583H93.0975V18.6008C93.0975 16.335 94.5362 14.7294 96.6656 14.7294C98.6515 14.7294 99.8883 16.1342 99.8883 18.1708V26.6594H103.341V17.9136C103.342 14.1855 101.414 11.5463 97.645 11.5463ZM167.943 18.7734C167.943 14.5296 164.835 11.5474 160.662 11.5474C156.231 11.5474 152.979 14.8738 152.979 19.2608C152.979 23.878 156.461 26.946 160.72 26.946C164.317 26.946 167.137 24.8236 167.856 21.8131H164.259C163.741 23.1322 162.475 23.878 160.776 23.878C158.56 23.878 156.891 22.5014 156.518 20.0924H167.942V18.7734H167.943ZM156.721 17.6259C157.268 15.561 158.822 14.5579 160.606 14.5579C162.563 14.5579 164.059 15.6761 164.404 17.6259H156.721Z" fill="white"/>
<path d="M180.312 25.3364V11.8255H184.878C185.938 11.8255 186.804 12.0168 187.477 12.3994C188.154 12.7777 188.656 13.2901 188.981 13.9366C189.306 14.5831 189.469 15.3044 189.469 16.1004C189.469 16.8965 189.306 17.62 188.981 18.2709C188.66 18.9218 188.163 19.4408 187.49 19.8278C186.817 20.2104 185.955 20.4018 184.904 20.4018H181.632V18.9504H184.851C185.577 18.9504 186.16 18.825 186.599 18.5744C187.039 18.3237 187.358 17.985 187.556 17.5584C187.758 17.1274 187.859 16.6414 187.859 16.1004C187.859 15.5595 187.758 15.0757 187.556 14.6491C187.358 14.2224 187.037 13.8882 186.593 13.6463C186.149 13.4 185.559 13.2769 184.825 13.2769H181.948V25.3364H180.312ZM191.28 25.3364H189.565L194.526 11.8255H196.215L201.176 25.3364H199.461L195.423 13.963H195.318L191.28 25.3364ZM191.913 20.0587H198.827V21.5101H191.913V20.0587ZM200.74 11.8255H202.614L206.361 18.1324H206.519L210.267 11.8255H212.14L207.258 19.7684V25.3364H205.622V19.7684L200.74 11.8255Z" fill="white"/>
</svg>
