<svg width="2069" height="357" viewBox="0 0 2069 357" fill="none" xmlns="http://www.w3.org/2000/svg">
<path d="M178.5 0C277.093 0 357 79.9066 357 178.5C357 277.093 277.093 357 178.5 357C79.9066 357 0 277.093 0 178.5C0 79.9066 79.9066 0 178.5 0Z" fill="#0052FF"/>
<path d="M178.535 241.254C143.881 241.254 115.781 213.189 115.781 178.5C115.781 143.811 143.881 115.746 178.535 115.746C209.598 115.746 235.397 138.407 240.347 168.041H303.555C298.221 103.614 244.287 52.9922 178.5 52.9922C109.192 52.9922 52.9922 109.192 52.9922 178.5C52.9922 247.808 109.192 304.008 178.5 304.008C244.287 304.008 298.221 253.386 303.555 188.959H240.313C235.327 218.593 209.598 241.254 178.535 241.254Z" fill="white"/>
<path d="M694.919 110.79C652.815 110.79 619.916 142.747 619.916 185.527C619.916 228.317 651.984 259.989 694.919 259.989C737.854 259.989 770.479 227.76 770.479 185.253C770.469 143.02 738.412 110.79 694.919 110.79ZM695.192 229.159C671.216 229.159 653.646 210.54 653.646 185.537C653.646 160.25 670.932 141.642 694.908 141.642C719.169 141.642 736.728 160.534 736.728 185.537C736.739 210.54 719.169 229.159 695.192 229.159ZM779.674 143.304H800.59V257.223H834.046V113.578H779.674V143.304ZM535.719 141.632C553.288 141.632 567.228 152.466 572.52 168.581H607.933C601.515 134.132 573.078 110.79 536.003 110.79C493.898 110.79 461 142.747 461 185.527C461 228.317 493.067 259.989 536.003 259.989C572.247 259.989 601.242 236.648 607.66 201.915H572.531C567.512 218.03 553.572 229.148 536.003 229.148C511.742 229.148 494.74 210.53 494.74 185.527C494.73 160.25 511.458 141.632 535.719 141.632ZM1415.36 171.642L1390.83 168.034C1379.12 166.372 1370.75 162.48 1370.75 153.308C1370.75 143.304 1381.63 138.308 1396.4 138.308C1412.57 138.308 1422.89 145.25 1425.12 156.642H1457.46C1453.83 127.747 1431.53 110.801 1397.24 110.801C1361.83 110.801 1338.41 128.862 1338.41 154.423C1338.41 178.868 1353.75 193.048 1384.69 197.487L1409.23 201.095C1421.22 202.757 1427.91 207.49 1427.91 216.378C1427.91 227.77 1416.2 232.493 1400.03 232.493C1380.23 232.493 1369.08 224.436 1367.41 212.213H1334.51C1337.58 240.277 1359.6 260 1399.75 260C1436.28 260 1460.53 243.328 1460.53 214.706C1460.53 189.145 1442.96 175.807 1415.36 171.642ZM817.307 54.3885C805.04 54.3885 795.834 63.2769 795.834 75.4998C795.834 87.7227 805.04 96.6216 817.307 96.6216C829.574 96.6216 838.78 87.7332 838.78 75.5103C838.78 63.2874 829.585 54.3885 817.307 54.3885ZM1308.29 162.753C1308.29 131.639 1289.33 110.801 1249.18 110.801C1211.27 110.801 1190.08 129.977 1185.89 159.43H1219.07C1220.75 148.038 1229.67 138.592 1248.63 138.592C1265.64 138.592 1274 146.092 1274 155.264C1274 167.213 1258.66 170.264 1239.71 172.21C1214.06 174.987 1182.27 183.875 1182.27 217.22C1182.27 243.065 1201.52 259.726 1232.18 259.726C1256.16 259.726 1271.22 249.723 1278.75 233.882C1279.86 248.051 1290.46 257.223 1305.24 257.223H1324.76V227.497H1308.3V162.753H1308.29ZM1275.39 198.875C1275.39 218.051 1258.66 232.22 1238.31 232.22C1225.76 232.22 1215.16 226.939 1215.16 215.831C1215.16 201.663 1232.17 197.771 1247.79 196.109C1262.84 194.72 1271.2 191.386 1275.39 184.99V198.875ZM1097.79 110.79C1079.11 110.79 1063.49 118.574 1052.34 131.628V53H1018.89V257.223H1051.78V238.331C1062.94 251.943 1078.83 260 1097.79 260C1137.94 260 1168.33 228.328 1168.33 185.537C1168.33 142.747 1137.38 110.79 1097.79 110.79ZM1092.77 229.159C1068.8 229.159 1051.23 210.54 1051.23 185.537C1051.23 160.534 1069.07 141.642 1093.05 141.642C1117.31 141.642 1134.31 160.261 1134.31 185.537C1134.32 210.54 1116.75 229.159 1092.77 229.159ZM938.875 110.79C917.128 110.79 902.904 119.679 894.54 132.186V113.567H861.358V257.212H894.814V179.142C894.814 157.189 908.754 141.632 929.385 141.632C948.627 141.632 960.611 155.243 960.611 174.976V257.223H994.067V172.483C994.077 136.362 975.392 110.79 938.875 110.79ZM1620 180.814C1620 139.696 1589.89 110.801 1549.46 110.801C1506.52 110.801 1475.01 143.031 1475.01 185.537C1475.01 230.274 1508.75 260 1550.02 260C1584.87 260 1612.19 239.436 1619.16 210.267H1584.3C1579.28 223.047 1567.02 230.274 1550.56 230.274C1529.09 230.274 1512.92 216.936 1509.3 193.595H1619.99V180.814H1620ZM1511.27 169.696C1516.57 149.689 1531.63 139.97 1548.91 139.97C1567.87 139.97 1582.37 150.804 1585.71 169.696H1511.27Z" fill="white"/>
<path d="M1736.91 244V113.091H1786C1796.06 113.091 1804.5 114.966 1811.32 118.716C1818.18 122.466 1823.35 127.622 1826.85 134.185C1830.38 140.705 1832.15 148.119 1832.15 156.429C1832.15 164.824 1830.38 172.281 1826.85 178.801C1823.31 185.321 1818.09 190.456 1811.19 194.206C1804.28 197.913 1795.78 199.767 1785.68 199.767H1753.15V180.271H1782.49C1788.37 180.271 1793.18 179.249 1796.93 177.203C1800.68 175.158 1803.45 172.345 1805.24 168.766C1807.08 165.186 1807.99 161.074 1807.99 156.429C1807.99 151.784 1807.08 147.693 1805.24 144.156C1803.45 140.619 1800.66 137.871 1796.87 135.911C1793.12 133.908 1788.28 132.906 1782.36 132.906H1760.63V244H1736.91ZM1854.97 244H1829.66L1875.75 113.091H1905.02L1951.17 244H1925.86L1890.9 139.938H1889.87L1854.97 244ZM1855.8 192.672H1924.84V211.72H1855.8V192.672ZM1946.11 113.091H1972.89L2004.91 171.003H2006.19L2038.22 113.091H2065L2017.38 195.165V244H1993.73V195.165L1946.11 113.091Z" fill="white"/>
</svg>
