<svg width="18" height="18" viewBox="0 0 18 18" fill="none" xmlns="http://www.w3.org/2000/svg">
<path id="Exclude" fill-rule="evenodd" clip-rule="evenodd" d="M9 18C13.9706 18 18 13.9706 18 9C18 4.02944 13.9706 0 9 0C4.02944 0 0 4.02944 0 9C0 13.9706 4.02944 18 9 18ZM9 4C9.55228 4 10 4.44772 10 5V8H13C13.5523 8 14 8.44772 14 9C14 9.55228 13.5523 10 13 10H10V13C10 13.5523 9.55228 14 9 14C8.44771 14 8 13.5523 8 13L8 10H5C4.44772 10 4 9.55228 4 9C4 8.44772 4.44772 8 5 8H8V5C8 4.44772 8.44772 4 9 4Z" fill="black" fill-opacity="0.8"/>
</svg>
