<svg width="20" height="20" viewBox="0 0 20 20" fill="none" xmlns="http://www.w3.org/2000/svg">
<g id="Group 47978">
<g id="Group 47974">
<g id="Group 47964">
<g id="Group 47974_2">
<path id="Ellipse 90 (Stroke)" fill-rule="evenodd" clip-rule="evenodd" d="M7.48156 8.07424C5.65931 8.37994 4.27067 9.96621 4.27067 11.8752C4.27067 14.0038 5.99628 15.7294 8.12492 15.7294C10.0017 15.7294 11.5667 14.3872 11.9094 12.6101L13.5459 12.9256C13.0549 15.4723 10.8155 17.3961 8.12492 17.3961C5.0758 17.3961 2.604 14.9243 2.604 11.8752C2.604 9.13872 4.59403 6.8687 7.20581 6.43054L7.48156 8.07424Z" fill="white"/>
<path id="Ellipse 91 (Stroke)" fill-rule="evenodd" clip-rule="evenodd" d="M11.8749 4.27067C9.74628 4.27067 8.02067 5.99628 8.02067 8.12492C8.02067 10.2536 9.74628 11.9792 11.8749 11.9792C14.0036 11.9792 15.7292 10.2536 15.7292 8.12492C15.7292 5.99628 14.0036 4.27067 11.8749 4.27067ZM6.354 8.12492C6.354 5.0758 8.8258 2.604 11.8749 2.604C14.924 2.604 17.3958 5.0758 17.3958 8.12492C17.3958 11.174 14.924 13.6458 11.8749 13.6458C8.8258 13.6458 6.354 11.174 6.354 8.12492Z" fill="white"/>
</g>
<path id="Ellipse 92 (Stroke)" fill-rule="evenodd" clip-rule="evenodd" d="M5.12495 3.33317C4.13541 3.33317 3.33323 4.13535 3.33323 5.12489C3.33323 5.58512 2.96014 5.95822 2.4999 5.95822C2.03966 5.95822 1.66656 5.58512 1.66656 5.12489C1.66656 3.21487 3.21494 1.6665 5.12495 1.6665C5.58518 1.6665 5.95828 2.0396 5.95828 2.49984C5.95828 2.96007 5.58518 3.33317 5.12495 3.33317Z" fill="white"/>
<path id="Ellipse 93 (Stroke)" fill-rule="evenodd" clip-rule="evenodd" d="M17.5 14.0416C17.9602 14.0416 18.3333 14.4147 18.3333 14.875C18.3333 16.785 16.785 18.3333 14.875 18.3333C14.4147 18.3333 14.0416 17.9602 14.0416 17.5C14.0416 17.0398 14.4147 16.6667 14.875 16.6667C15.8645 16.6667 16.6667 15.8645 16.6667 14.875C16.6667 14.4147 17.0398 14.0416 17.5 14.0416Z" fill="white"/>
</g>
</g>
</g>
</svg>
