<svg width="20" height="20" viewBox="0 0 20 20" fill="none" xmlns="http://www.w3.org/2000/svg">
<g id="Group 47979">
<g id="Paper Plane">
<path id="Vector (Stroke)" fill-rule="evenodd" clip-rule="evenodd" d="M15.4248 4.58624L4.56863 8.54666L8.398 10.6408L11.5762 7.3827C11.8654 7.08619 12.3403 7.08029 12.6368 7.36953C12.9333 7.65876 12.9392 8.1336 12.6499 8.43011L9.4708 11.6892C9.4707 11.6893 9.47091 11.6891 9.4708 11.6892C9.0002 12.173 8.26601 12.2775 7.68059 11.9582L3.84276 9.85934C3.84222 9.85905 3.84168 9.85876 3.84115 9.85847C2.69954 9.23902 2.84482 7.58104 4.04154 7.14225L14.9193 3.17396C16.0996 2.74957 17.2697 3.88642 16.8392 5.08593C16.8391 5.08623 16.8393 5.08563 16.8392 5.08593L12.966 15.9254L12.9655 15.9268C12.5394 17.1119 10.9358 17.2753 10.2802 16.2048L8.83314 13.8376C8.61711 13.4841 8.72848 13.0225 9.08189 12.8065C9.43531 12.5905 9.89694 12.7018 10.113 13.0552L11.5555 15.4151L15.4248 4.58624ZM8.39958 10.6417C8.39946 10.6417 8.39809 10.6408 8.398 10.6408L8.39958 10.6417Z" fill="white"/>
</g>
</g>
</svg>
