<svg width="18" height="15" viewBox="0 0 18 15" fill="none" xmlns="http://www.w3.org/2000/svg">
<path id="Union" fill-rule="evenodd" clip-rule="evenodd" d="M3 0C1.34315 0 0 1.34315 0 3V9C0 10.6569 1.34315 12 3 12H10.5V13C10.5 14.1046 11.3954 15 12.5 15H16C17.1046 15 18 14.1046 18 13V5.75C18 4.64543 17.1046 3.75 16 3.75H15V3C15 1.34315 13.6569 0 12 0H3ZM13.5002 3.75V3.59998C13.5002 2.49541 12.6048 1.59998 11.5002 1.59998H3.50018C2.39561 1.59998 1.50018 2.49541 1.50018 3.59998V8.39998C1.50018 9.50455 2.39561 10.4 3.50018 10.4H10.5V5.75C10.5 4.64543 11.3954 3.75 12.5 3.75H13.5002ZM12 6.25C12 5.69772 12.4477 5.25 13 5.25H15.5C16.0523 5.25 16.5 5.69772 16.5 6.25V12.5C16.5 13.0523 16.0523 13.5 15.5 13.5H13C12.4477 13.5 12 13.0523 12 12.5V6.25ZM0 13.5C0 13.0858 0.335786 12.75 0.75 12.75H9C9.41421 12.75 9.75 13.0858 9.75 13.5C9.75 13.9142 9.41421 14.25 9 14.25H0.75C0.335786 14.25 0 13.9142 0 13.5ZM13.5 11.25C13.0858 11.25 12.75 11.5858 12.75 12C12.75 12.4142 13.0858 12.75 13.5 12.75H15C15.4142 12.75 15.75 12.4142 15.75 12C15.75 11.5858 15.4142 11.25 15 11.25H13.5Z" fill="#579AF2"/>
</svg>
