<svg width="20" height="20" viewBox="0 0 20 20" fill="none" xmlns="http://www.w3.org/2000/svg">
<g id="Group 700">
<path id="Vector" d="M10.6375 6.17042L13.5548 9.16605L6.25083 16.6667H3.3335V13.6711L10.6375 6.17042ZM11.4713 5.31528L13.1548 3.58546C13.2325 3.50568 13.3254 3.44227 13.428 3.39898C13.5306 3.35568 13.6408 3.33337 13.7522 3.33337C13.8635 3.33337 13.9737 3.35568 14.0763 3.39898C14.1789 3.44227 14.2718 3.50568 14.3495 3.58546L16.1033 5.38639C16.2549 5.54209 16.3398 5.75084 16.3398 5.96819C16.3398 6.18553 16.2549 6.39429 16.1033 6.54998L14.3886 8.31003L11.4713 5.31439V5.31528ZM10.3433 14.9991H13.0882H15.8331C16.0542 14.9991 16.2663 15.087 16.4226 15.2433C16.579 15.3997 16.6668 15.6118 16.6668 15.8329C16.6668 16.054 16.579 16.2661 16.4226 16.4225C16.2663 16.5789 16.0542 16.6667 15.8331 16.6667H9.51127C9.41474 16.6666 9.32041 16.6378 9.24017 16.5842C9.15993 16.5305 9.09738 16.4543 9.0604 16.3651C9.02342 16.2759 9.01367 16.1778 9.03237 16.0831C9.05107 15.9884 9.09739 15.9013 9.1655 15.8329L9.75483 15.2436C9.83231 15.166 9.92432 15.1045 10.0256 15.0626C10.1269 15.0206 10.2354 14.9991 10.3451 14.9991H10.3433Z" fill="white" fill-opacity="0.4"/>
</g>
</svg>
