<svg width="32" height="32" viewBox="0 0 32 32" fill="none" xmlns="http://www.w3.org/2000/svg">
<circle cx="16" cy="16" r="16" fill="#7678ED"/>
<path d="M21.6 10H10.4C9.76348 10 9.15303 10.2529 8.70294 10.7029C8.25286 11.153 8 11.7635 8 12.4V20.4C8 21.0365 8.25286 21.647 8.70294 22.0971C9.15303 22.5471 9.76348 22.8 10.4 22.8H21.6C22.2365 22.8 22.847 22.5471 23.2971 22.0971C23.7471 21.647 24 21.0365 24 20.4V12.4C24 11.7635 23.7471 11.153 23.2971 10.7029C22.847 10.2529 22.2365 10 21.6 10V10ZM21.6 11.6L16.4 15.176C16.2784 15.2462 16.1404 15.2832 16 15.2832C15.8596 15.2832 15.7216 15.2462 15.6 15.176L10.4 11.6H21.6Z" fill="white"/>
</svg>
