<svg width="24" height="24" viewBox="0 0 24 24" fill="none" xmlns="http://www.w3.org/2000/svg">
<g id="Group 47691">
<rect id="Rectangle 340" width="24" height="24" rx="8" fill="white" fill-opacity="0.4"/>
<path id="Exclude" fill-rule="evenodd" clip-rule="evenodd" d="M13.2 7.2C13.2 6.53726 12.6627 6 12 6C11.3373 6 10.8 6.53726 10.8 7.2V10.8H7.2C6.53726 10.8 6 11.3373 6 12C6 12.6627 6.53726 13.2 7.2 13.2H10.8V16.8C10.8 17.4627 11.3373 18 12 18C12.6627 18 13.2 17.4627 13.2 16.8V13.2H16.8C17.4627 13.2 18 12.6627 18 12C18 11.3373 17.4627 10.8 16.8 10.8H13.2V7.2Z" fill="#222222"/>
</g>
</svg>
