<svg width="20" height="20" viewBox="0 0 20 20" fill="none" xmlns="http://www.w3.org/2000/svg">
<path d="M4.04166 6.58335C3.79999 6.34168 3.40833 6.34168 3.15833 6.58335C2.99166 6.75002 2.83333 6.92501 2.68333 7.10835C1.31666 8.75835 1.31666 11.2417 2.68333 12.8917C4.54166 15.125 7.20833 16.4083 9.99999 16.4083C10.7667 16.4083 11.525 16.3167 12.25 16.1333C12.4667 16.075 12.6417 15.9083 12.7 15.6917C12.7583 15.475 12.7 15.2417 12.5417 15.0833L4.04166 6.58335Z" fill="#E3E3E3"/>
<path d="M15.4833 14.6C16.1583 14.1167 16.7666 13.55 17.3166 12.8917C18 12.0667 18.3416 11.0333 18.3416 10C18.3416 8.96668 18 7.93334 17.3166 7.10834C15.4666 4.87501 12.8 3.59168 9.99995 3.59168C8.46662 3.59168 6.96662 4.00001 5.61662 4.73334L2.73328 1.85001C2.49162 1.60835 2.09162 1.60835 1.84995 1.85001C1.60828 2.09168 1.60828 2.49168 1.84995 2.73334L17.2666 18.15C17.3916 18.275 17.55 18.3333 17.7083 18.3333C17.8666 18.3333 18.025 18.275 18.15 18.15C18.3916 17.9083 18.3916 17.5083 18.15 17.2667L15.4833 14.6ZM12.6583 11.775C13.0083 11.25 13.1916 10.6417 13.1916 10C13.1916 8.24168 11.7583 6.80834 9.99995 6.80834C9.35828 6.80834 8.74995 6.99168 8.22495 7.34168L6.52495 5.64168C7.60828 5.11668 8.79995 4.84168 9.99995 4.84168C12.425 4.84168 14.7416 5.95834 16.3583 7.90834C17.3249 9.08334 17.3249 10.9167 16.3583 12.0917C15.8333 12.7167 15.2416 13.2583 14.5916 13.7083L12.6583 11.775Z" fill="#E3E3E3"/>
</svg>
