<svg width="327" height="69" viewBox="0 0 327 69" fill="none" xmlns="http://www.w3.org/2000/svg">
<rect x="323" y="63" width="319" height="61" rx="12" transform="rotate(-180 323 63)" fill="url(#paint0_linear_3660_1978)"/>
<g filter="url(#filter0_d_3660_1978)">
<mask id="mask0_3660_1978" style="mask-type:alpha" maskUnits="userSpaceOnUse" x="4" y="2" width="319" height="61">
<rect x="323" y="63" width="319" height="61" rx="12" transform="rotate(-180 323 63)" fill="url(#paint1_linear_3660_1978)"/>
</mask>
<g mask="url(#mask0_3660_1978)">
<rect opacity="0.32" width="469.674" height="274.121" rx="120" transform="matrix(0.792334 0.610088 -0.537108 0.843514 69.2324 -233)" fill="url(#paint2_radial_3660_1978)"/>
<path opacity="0.32" d="M147.786 27.9869C178.153 90.0167 175.957 78.7016 182.996 92.9494C186.573 100.074 208.083 128.274 249.191 155.44C300.576 189.398 357.7 178.852 383.516 117.374C412.444 48.4819 439.508 27.3931 368 -71.8036C300.012 -166.117 206.401 -113.261 172.892 -78.0626C142.147 -45.7678 133.027 -2.1605 147.786 27.9869Z" fill="url(#paint3_radial_3660_1978)"/>
</g>
</g>
<path d="M29.4843 42C24.2463 42 20 37.7553 20 32.5193V32.5193C20 27.2832 24.2463 23.0385 29.4843 23.0385V23.0385C34.7224 23.0385 38.9687 27.2832 38.9687 32.5193V32.5193C38.9687 37.7553 34.7224 42 29.4843 42V42Z" fill="#41CC5D"/>
<g opacity="0.6">
<mask id="mask1_3660_1978" style="mask-type:alpha" maskUnits="userSpaceOnUse" x="20" y="23" width="19" height="19">
<path d="M29.5156 41.9615C24.2775 41.9615 20.0312 37.7168 20.0312 32.4807V32.4807C20.0312 27.2447 24.2775 23 29.5156 23V23C34.7536 23 38.9999 27.2447 38.9999 32.4807V32.4807C38.9999 37.7168 34.7536 41.9615 29.5156 41.9615V41.9615Z" fill="#41CC5D"/>
</mask>
<g mask="url(#mask1_3660_1978)">
<path d="M7.60134 51.0782C7.15018 50.6757 6.92459 50.4745 6.74537 50.2921C4.02368 47.521 3.77564 43.1636 6.16531 40.1018C6.32267 39.9002 6.52396 39.6747 6.92655 39.2237L32.425 10.6593C32.8276 10.2083 33.0289 9.98276 33.2114 9.80361C35.9835 7.08295 40.3426 6.83501 43.4055 9.22377C43.6072 9.38107 43.8328 9.58229 44.2839 9.98472V9.98472C44.7351 10.3872 44.9607 10.5884 45.1399 10.7708C47.8616 13.5419 48.1096 17.8993 45.72 20.9611C45.5626 21.1627 45.3613 21.3882 44.9587 21.8392L19.4603 50.4036C19.0577 50.8546 18.8564 51.0801 18.6739 51.2593C15.9018 53.98 11.5427 54.2279 8.47978 51.8391C8.27809 51.6818 8.05251 51.4806 7.60134 51.0782V51.0782Z" fill="url(#paint4_radial_3660_1978)"/>
<path d="M11.6648 42.2574C11.2137 41.8549 10.9881 41.6537 10.8088 41.4713C8.08716 38.7002 7.83912 34.3428 10.2288 31.281C10.3861 31.0794 10.5874 30.8539 10.99 30.4029L36.4885 1.83845C36.891 1.38746 37.0923 1.16196 37.2749 0.98281C40.0469 -1.73785 44.406 -1.9858 47.469 0.402971C47.6707 0.56027 47.8962 0.761487 48.3474 1.16392V1.16392C48.7986 1.56635 49.0241 1.76757 49.2034 1.95004C51.9251 4.72106 52.1731 9.07851 49.7834 12.1403C49.6261 12.3419 49.4248 12.5674 49.0222 13.0184L23.5238 41.5828C23.1212 42.0338 22.9199 42.2593 22.7373 42.4385C19.9653 45.1591 15.6062 45.4071 12.5433 43.0183C12.3416 42.861 12.116 42.6598 11.6648 42.2574V42.2574Z" fill="url(#paint5_radial_3660_1978)"/>
<path d="M17.6322 62.5207C16.2939 61.3269 15.6248 60.7301 15.1667 60.1234C13.2763 57.62 13.083 54.2241 14.6771 51.5226C15.0634 50.8679 15.6605 50.199 16.8547 48.8612L40.6502 22.2045C41.8443 20.8667 42.4414 20.1978 43.0483 19.7399C45.5526 17.8502 48.9498 17.657 51.6524 19.2505C52.3074 19.6366 52.9765 20.2335 54.3148 21.4272V21.4272C55.6531 22.621 56.3222 23.2178 56.7803 23.8245C58.6707 26.3279 58.864 29.7238 57.2699 32.4253C56.8836 33.08 56.2865 33.7489 55.0923 35.0867L31.2969 61.7434C30.1027 63.0812 29.5056 63.7501 28.8987 64.208C26.3944 66.0977 22.9972 66.2909 20.2946 64.6974C19.6397 64.3113 18.9705 63.7144 17.6322 62.5207V62.5207Z" fill="url(#paint6_radial_3660_1978)"/>
</g>
</g>
<path fill-rule="evenodd" clip-rule="evenodd" d="M24.5255 28.1747V27.4944C24.5255 26.599 25.5601 26.0997 26.2615 26.6566L28.1352 28.1445C28.4462 28.3915 28.8317 28.5259 29.2289 28.5259H30.9851C31.517 28.5259 32.0204 28.2852 32.3542 27.8712L32.5411 27.6394C33.1747 26.8534 34.4447 27.3013 34.4447 28.3107V28.8576C34.4447 29.0925 34.4928 29.3249 34.5862 29.5405L35.0303 30.5663C35.5719 31.8176 35.7531 33.1953 35.5532 34.544L35.5354 34.664C35.3496 35.9174 34.7181 37.0618 33.7566 37.8873C33.0133 38.4414 32.161 38.8319 31.2559 39.033L30.9089 39.11C30.0711 39.2116 29.224 39.2116 28.3861 39.11L27.9778 39.0314C27.2014 38.8817 26.4657 38.5686 25.8197 38.1128C24.9737 37.5158 24.3108 36.6949 23.9056 35.7422L23.8126 35.5233C23.3901 34.5299 23.2256 33.4459 23.3344 32.372L23.3605 32.1135C23.436 31.3691 23.6236 30.6404 23.9172 29.9521L24.3877 28.849C24.4786 28.6358 24.5255 28.4064 24.5255 28.1747Z" fill="white"/>
<path fill-rule="evenodd" clip-rule="evenodd" d="M26.166 26.7764C25.5648 26.299 24.678 26.7269 24.678 27.4944V28.1747C24.678 28.4271 24.6269 28.6769 24.5279 28.909L24.0574 30.0121C23.7699 30.6862 23.5861 31.3999 23.5122 32.129L23.4861 32.3874C23.3799 33.4357 23.5404 34.4939 23.9528 35.4635L24.0459 35.6824C24.44 36.609 25.0846 37.4074 25.9075 37.988C26.5357 38.4313 27.2512 38.7358 28.0063 38.8813L28.4094 38.959C29.2308 39.0581 30.0612 39.0582 30.8827 38.9592L31.2223 38.8838C32.1047 38.6878 32.9356 38.3075 33.6606 37.768C34.5919 36.9666 35.2036 35.8569 35.3837 34.6417L35.4015 34.5216C35.5972 33.2011 35.4199 31.8522 34.8895 30.6271L34.4454 29.6012C34.3438 29.3665 34.2914 29.1134 34.2914 28.8577V28.3107C34.2914 27.4455 33.2028 27.0616 32.6597 27.7353L32.4728 27.9671C32.11 28.4172 31.5629 28.6788 30.9847 28.6788H29.2285C28.7967 28.6788 28.3777 28.5327 28.0397 28.2642L26.166 26.7764ZM24.3722 27.4944C24.3722 26.4711 25.5546 25.9005 26.3562 26.537L28.2299 28.0249C28.5138 28.2504 28.8658 28.3731 29.2285 28.3731H30.9847C31.4704 28.3731 31.9299 28.1533 32.2347 27.7753L32.4216 27.5435C33.1457 26.6453 34.5972 27.1571 34.5972 28.3107V28.8577C34.5972 29.0717 34.641 29.2834 34.7261 29.4798L35.1702 30.5057C35.7232 31.7831 35.9081 33.1896 35.704 34.5664L35.6862 34.6865C35.4951 35.9762 34.8452 37.1538 33.8558 38.0033C33.8532 38.0056 33.8504 38.0078 33.8476 38.0099C33.087 38.5769 32.2149 38.9765 31.2886 39.1822L30.9417 39.2593C30.9368 39.2604 30.9319 39.2612 30.9269 39.2618C30.0768 39.3648 29.2174 39.3648 28.3673 39.2618C28.3638 39.2614 28.3603 39.2608 28.3568 39.2602L27.9484 39.1815C27.1507 39.0278 26.3949 38.706 25.7311 38.2377C24.8619 37.6243 24.1808 36.7809 23.7645 35.802L23.6714 35.5831C23.2388 34.5661 23.0704 33.4562 23.1818 32.3566L23.208 32.0982C23.285 31.3384 23.4765 30.5947 23.7761 29.8922L24.2466 28.7891C24.3295 28.5949 24.3722 28.3859 24.3722 28.1747V27.4944ZM32.7687 33.559C32.7337 33.5123 32.6764 33.4878 32.6184 33.4948L32.2911 33.5341C32.1828 33.5471 32.1213 33.6648 32.1727 33.7611C32.2015 33.8151 32.2593 33.8471 32.3203 33.8429L32.6754 33.8184C32.7934 33.8103 32.8555 33.6747 32.7845 33.5801L32.7687 33.559ZM32.582 33.1913C32.7484 33.1713 32.9128 33.2416 33.0134 33.3756L33.0292 33.3967C33.2456 33.6851 33.0563 34.0985 32.6965 34.1233L32.3413 34.1478C32.1601 34.1603 31.9884 34.0652 31.9029 33.905C31.7503 33.619 31.9328 33.2692 32.2547 33.2306L32.582 33.1913ZM26.4133 33.869C26.4906 33.8352 26.5808 33.8705 26.6146 33.9479C27.2017 35.2905 28.3296 35.9581 29.4937 36.2543C30.5942 36.5343 31.7139 36.4779 32.3993 36.3487V34.7924C32.3993 34.708 32.4677 34.6395 32.5522 34.6395C32.6366 34.6395 32.7051 34.708 32.7051 34.7924V36.2793C33.2041 36.1449 33.5937 35.927 33.8951 35.6176C34.2337 35.2702 34.4718 34.7961 34.6203 34.1651C34.6397 34.083 34.722 34.032 34.8042 34.0514C34.8864 34.0707 34.9373 34.153 34.918 34.2351C34.7607 34.9033 34.5019 35.4329 34.1142 35.8309C33.7258 36.2296 33.2187 36.485 32.5847 36.623C31.8778 36.7767 30.6397 36.8613 29.4183 36.5506C28.1934 36.2389 26.9704 35.5247 26.3344 34.0703C26.3006 33.993 26.3359 33.9028 26.4133 33.869Z" fill="black"/>
<path fill-rule="evenodd" clip-rule="evenodd" d="M25.7545 30.6864L35.5805 30.5881C35.6373 30.5876 35.6822 30.636 35.6773 30.6926L35.6053 31.5293C35.5526 32.142 35.0399 32.6125 34.425 32.6125C33.8999 32.6489 33.3816 32.4688 32.9916 32.1155L32.7382 31.8736C32.5941 31.7361 32.4027 31.6594 32.2035 31.6594C31.9333 31.6594 31.6826 31.8002 31.5421 32.031L31.3979 32.268C31.2866 32.4508 31.1322 32.6005 30.9505 32.7058C30.7193 32.8737 30.2735 32.9877 29.7609 32.9886C29.4184 33.0059 29.0746 32.9785 28.7382 32.9069L28.2518 32.8033C27.6203 32.6139 27.0302 32.3074 26.5122 31.8997L26.3844 31.7992C26.2693 31.7086 26.1271 31.6594 25.9807 31.6594H23.8545H23.4164L23.5281 31.1232C23.5966 30.8657 23.8298 30.6864 24.0963 30.6864H24.9836H25.7545Z" fill="black"/>
<path d="M42.1251 37.1875V28.5511H43.9511V35.682H47.6536V37.1875H42.1251ZM48.8291 37.1875V30.7102H50.6255V37.1875H48.8291ZM49.7315 29.8753C49.4644 29.8753 49.2353 29.7867 49.0441 29.6096C48.8558 29.4297 48.7616 29.2146 48.7616 28.9644C48.7616 28.717 48.8558 28.5047 49.0441 28.3276C49.2353 28.1477 49.4644 28.0577 49.7315 28.0577C49.9986 28.0577 50.2263 28.1477 50.4147 28.3276C50.6058 28.5047 50.7014 28.717 50.7014 28.9644C50.7014 29.2146 50.6058 29.4297 50.4147 29.6096C50.2263 29.7867 49.9986 29.8753 49.7315 29.8753ZM53.861 28.5511V37.1875H52.0645V28.5511H53.861ZM55.3 37.1875V30.7102H57.0964V37.1875H55.3ZM56.2024 29.8753C55.9354 29.8753 55.7063 29.7867 55.5151 29.6096C55.3267 29.4297 55.2325 29.2146 55.2325 28.9644C55.2325 28.717 55.3267 28.5047 55.5151 28.3276C55.7063 28.1477 55.9354 28.0577 56.2024 28.0577C56.4695 28.0577 56.6972 28.1477 56.8856 28.3276C57.0768 28.5047 57.1724 28.717 57.1724 28.9644C57.1724 29.2146 57.0768 29.4297 56.8856 29.6096C56.6972 29.7867 56.4695 29.8753 56.2024 29.8753ZM61.4621 37.314C60.7986 37.314 60.2279 37.1734 59.75 36.8923C59.2749 36.6084 58.9094 36.2148 58.6536 35.7116C58.4005 35.2083 58.274 34.6292 58.274 33.9742C58.274 33.3107 58.402 32.7288 58.6578 32.2283C58.9164 31.7251 59.2833 31.3329 59.7584 31.0518C60.2335 30.7679 60.7986 30.6259 61.4536 30.6259C62.0187 30.6259 62.5135 30.7285 62.938 30.9337C63.3625 31.139 63.6985 31.4271 63.9459 31.7982C64.1933 32.1693 64.3296 32.6051 64.3549 33.1055H62.6597C62.6119 32.7822 62.4854 32.5221 62.2802 32.3253C62.0777 32.1257 61.8121 32.0259 61.4832 32.0259C61.2048 32.0259 60.9617 32.1018 60.7536 32.2536C60.5484 32.4026 60.3881 32.6205 60.2729 32.9073C60.1576 33.194 60.1 33.5412 60.1 33.9489C60.1 34.3621 60.1562 34.7135 60.2687 35.0031C60.3839 35.2927 60.5456 35.5134 60.7536 35.6652C60.9617 35.817 61.2048 35.8929 61.4832 35.8929C61.6884 35.8929 61.8725 35.8507 62.0356 35.7664C62.2014 35.682 62.3378 35.5597 62.4446 35.3995C62.5543 35.2364 62.626 35.0411 62.6597 34.8133H64.3549C64.3268 35.3081 64.1919 35.7439 63.9501 36.1206C63.7111 36.4945 63.3808 36.7869 62.9591 36.9977C62.5374 37.2086 62.0384 37.314 61.4621 37.314ZM68.4317 37.314C67.7766 37.314 67.2102 37.1748 66.7322 36.8965C66.2571 36.6154 65.8902 36.2246 65.6316 35.7242C65.373 35.221 65.2436 34.6376 65.2436 33.9742C65.2436 33.3051 65.373 32.7203 65.6316 32.2199C65.8902 31.7167 66.2571 31.3259 66.7322 31.0476C67.2102 30.7665 67.7766 30.6259 68.4317 30.6259C69.0867 30.6259 69.6518 30.7665 70.1269 31.0476C70.6048 31.3259 70.9731 31.7167 71.2317 32.2199C71.4904 32.7203 71.6197 33.3051 71.6197 33.9742C71.6197 34.6376 71.4904 35.221 71.2317 35.7242C70.9731 36.2246 70.6048 36.6154 70.1269 36.8965C69.6518 37.1748 69.0867 37.314 68.4317 37.314ZM68.4401 35.9224C68.7381 35.9224 68.9869 35.8381 69.1865 35.6694C69.3861 35.4979 69.5365 35.2646 69.6377 34.9694C69.7417 34.6742 69.7938 34.3382 69.7938 33.9615C69.7938 33.5848 69.7417 33.2488 69.6377 32.9537C69.5365 32.6585 69.3861 32.4251 69.1865 32.2536C68.9869 32.0821 68.7381 31.9964 68.4401 31.9964C68.1393 31.9964 67.8863 32.0821 67.6811 32.2536C67.4786 32.4251 67.3254 32.6585 67.2214 32.9537C67.1202 33.2488 67.0696 33.5848 67.0696 33.9615C67.0696 34.3382 67.1202 34.6742 67.2214 34.9694C67.3254 35.2646 67.4786 35.4979 67.6811 35.6694C67.8863 35.8381 68.1393 35.9224 68.4401 35.9224Z" fill="white"/>
<path d="M119.294 37.1875V28.5511H125.012V30.0566H121.12V32.1145H124.633V33.6199H121.12V37.1875H119.294ZM128.003 28.5511V37.1875H126.207V28.5511H128.003ZM132.369 37.314C131.714 37.314 131.147 37.1748 130.669 36.8965C130.194 36.6154 129.827 36.2246 129.569 35.7242C129.31 35.221 129.181 34.6376 129.181 33.9742C129.181 33.3051 129.31 32.7203 129.569 32.2199C129.827 31.7167 130.194 31.3259 130.669 31.0476C131.147 30.7665 131.714 30.6259 132.369 30.6259C133.024 30.6259 133.589 30.7665 134.064 31.0476C134.542 31.3259 134.91 31.7167 135.169 32.2199C135.428 32.7203 135.557 33.3051 135.557 33.9742C135.557 34.6376 135.428 35.221 135.169 35.7242C134.91 36.2246 134.542 36.6154 134.064 36.8965C133.589 37.1748 133.024 37.314 132.369 37.314ZM132.377 35.9224C132.675 35.9224 132.924 35.8381 133.124 35.6694C133.323 35.4979 133.474 35.2646 133.575 34.9694C133.679 34.6742 133.731 34.3382 133.731 33.9615C133.731 33.5848 133.679 33.2488 133.575 32.9537C133.474 32.6585 133.323 32.4251 133.124 32.2536C132.924 32.0821 132.675 31.9964 132.377 31.9964C132.076 31.9964 131.823 32.0821 131.618 32.2536C131.416 32.4251 131.263 32.6585 131.159 32.9537C131.057 33.2488 131.007 33.5848 131.007 33.9615C131.007 34.3382 131.057 34.6742 131.159 34.9694C131.263 35.2646 131.416 35.4979 131.618 35.6694C131.823 35.8381 132.076 35.9224 132.377 35.9224ZM137.84 37.1875L136.078 30.7102H137.895L138.899 35.0621H138.958L140.004 30.7102H141.787L142.85 35.0368H142.905L143.892 30.7102H145.705L143.947 37.1875H142.045L140.931 33.1139H140.851L139.738 37.1875H137.84ZM148.46 33.4428V37.1875H146.663V30.7102H148.375V31.853H148.451C148.595 31.4763 148.835 31.1783 149.172 30.959C149.51 30.7369 149.919 30.6259 150.4 30.6259C150.849 30.6259 151.242 30.7243 151.576 30.9211C151.911 31.1179 152.171 31.399 152.356 31.7645C152.542 32.1271 152.635 32.5601 152.635 33.0633V37.1875H150.838V33.3838C150.841 32.9874 150.74 32.6781 150.534 32.4561C150.329 32.2311 150.047 32.1187 149.687 32.1187C149.445 32.1187 149.231 32.1707 149.046 32.2747C148.863 32.3787 148.72 32.5306 148.616 32.7302C148.515 32.927 148.463 33.1645 148.46 33.4428ZM159.44 32.5573L157.795 32.6585C157.767 32.5179 157.706 32.3914 157.614 32.2789C157.521 32.1637 157.399 32.0723 157.247 32.0048C157.098 31.9346 156.919 31.8994 156.711 31.8994C156.433 31.8994 156.198 31.9585 156.007 32.0765C155.816 32.1918 155.72 32.3464 155.72 32.5404C155.72 32.695 155.782 32.8257 155.906 32.9326C156.03 33.0394 156.242 33.1251 156.543 33.1898L157.715 33.426C158.345 33.5553 158.814 33.7633 159.123 34.0501C159.433 34.3368 159.587 34.7135 159.587 35.1802C159.587 35.6047 159.462 35.9772 159.212 36.2977C158.965 36.6182 158.624 36.8684 158.191 37.0483C157.761 37.2255 157.265 37.314 156.703 37.314C155.845 37.314 155.162 37.1355 154.653 36.7785C154.147 36.4186 153.851 35.9294 153.764 35.3109L155.531 35.2182C155.584 35.4796 155.713 35.6792 155.919 35.817C156.124 35.9519 156.387 36.0194 156.707 36.0194C157.022 36.0194 157.275 35.959 157.466 35.8381C157.66 35.7144 157.759 35.5555 157.761 35.3616C157.759 35.1985 157.69 35.065 157.555 34.9609C157.42 34.8541 157.212 34.7726 156.931 34.7164L155.809 34.4929C155.176 34.3663 154.705 34.1471 154.396 33.835C154.09 33.5229 153.937 33.1251 153.937 32.6416C153.937 32.2255 154.049 31.8671 154.274 31.5663C154.502 31.2655 154.821 31.0335 155.231 30.8705C155.644 30.7074 156.128 30.6259 156.682 30.6259C157.5 30.6259 158.144 30.7988 158.613 31.1446C159.085 31.4904 159.361 31.9613 159.44 32.5573Z" fill="white"/>
<path d="M97.1685 32.5C97.1685 27.2533 101.422 23 106.668 23V23C111.915 23 116.168 27.2533 116.168 32.5V32.5C116.168 37.7467 111.915 42 106.668 42V42C101.422 42 97.1685 37.7467 97.1685 32.5V32.5Z" fill="#17233A"/>
<path opacity="0.2" d="M106.817 33.1131C108.042 33.1131 109.034 32.1205 109.034 30.8961H110.513C110.513 32.9368 108.858 34.5912 106.817 34.5912V33.1131Z" fill="#00E075"/>
<path d="M106.817 30.157V31.6351C108.042 31.6351 109.034 32.6277 109.034 33.8522H110.513C110.513 31.8114 108.858 30.157 106.817 30.157Z" fill="white"/>
<path d="M106.817 36.0693C108.042 36.0693 109.034 35.0766 109.034 33.8522H110.512C110.512 35.8929 108.858 37.5473 106.817 37.5473V36.0693Z" fill="white"/>
<path opacity="0.2" d="M106.817 37.5473C104.776 37.5473 103.122 35.8929 103.122 33.8522H104.6C104.6 35.0766 105.593 36.0693 106.817 36.0693V37.5473Z" fill="#00E075"/>
<path opacity="0.2" d="M106.817 34.5912C104.776 34.5912 103.122 32.9368 103.122 30.8961H104.6C104.6 32.1205 105.593 33.1131 106.817 33.1131V34.5912Z" fill="#00E075"/>
<path d="M106.817 31.6351C105.593 31.6351 104.6 32.6277 104.6 33.8522H103.122C103.122 31.8114 104.776 30.157 106.817 30.157V31.6351Z" fill="#00E075"/>
<path d="M106.817 28.679C105.593 28.679 104.6 29.6716 104.6 30.8961H103.122C103.122 28.8553 104.776 27.2009 106.817 27.2009V28.679Z" fill="#00E075"/>
<path opacity="0.2" d="M106.817 27.201C108.858 27.201 110.513 28.8553 110.513 30.8961H109.034C109.034 29.6716 108.042 28.679 106.817 28.679V27.201Z" fill="#00E075"/>
<path d="M103.122 30.8961H104.6V36.0692C104.6 36.8855 103.938 37.5473 103.122 37.5473V30.8961Z" fill="#00E075"/>
<path fill-rule="evenodd" clip-rule="evenodd" d="M84.0081 32.5845L80.1915 36.4012L80.9548 37.1645L84.7715 33.3479L88.5881 37.1645L89.3514 36.4012L85.5348 32.5845L89.3517 28.7676L88.5884 28.0043L84.7715 31.8212L80.9545 28.0043L80.1912 28.7676L84.0081 32.5845Z" fill="white"/>
<path d="M80.1915 36.4013L79.7717 35.9815L79.3518 36.4013L79.7717 36.8212L80.1915 36.4013ZM84.0082 32.5847L84.428 33.0045L84.8478 32.5847L84.428 32.1648L84.0082 32.5847ZM80.9549 37.1647L80.535 37.5845L80.9549 38.0044L81.3747 37.5845L80.9549 37.1647ZM84.7715 33.348L85.1914 32.9282L84.7715 32.5083L84.3517 32.9282L84.7715 33.348ZM88.5881 37.1646L88.1683 37.5845L88.5881 38.0043L89.008 37.5845L88.5881 37.1646ZM89.3515 36.4013L89.7713 36.8211L90.1912 36.4013L89.7713 35.9815L89.3515 36.4013ZM85.5349 32.5847L85.115 32.1648L84.6952 32.5847L85.115 33.0045L85.5349 32.5847ZM89.3518 28.7678L89.7716 29.1876L90.1915 28.7678L89.7716 28.3479L89.3518 28.7678ZM88.5884 28.0044L89.0083 27.5846L88.5884 27.1647L88.1686 27.5846L88.5884 28.0044ZM84.7715 31.8213L84.3517 32.2412L84.7715 32.661L85.1914 32.2412L84.7715 31.8213ZM80.9546 28.0044L81.3744 27.5846L80.9546 27.1647L80.5347 27.5846L80.9546 28.0044ZM80.1912 28.7678L79.7714 28.3479L79.3515 28.7678L79.7714 29.1876L80.1912 28.7678ZM80.6114 36.8212L84.428 33.0045L83.5883 32.1648L79.7717 35.9815L80.6114 36.8212ZM81.3747 36.7448L80.6114 35.9815L79.7717 36.8212L80.535 37.5845L81.3747 36.7448ZM84.3517 32.9282L80.535 36.7448L81.3747 37.5845L85.1914 33.7679L84.3517 32.9282ZM89.008 36.7448L85.1914 32.9282L84.3517 33.7679L88.1683 37.5845L89.008 36.7448ZM88.9316 35.9815L88.1683 36.7448L89.008 37.5845L89.7713 36.8211L88.9316 35.9815ZM85.115 33.0045L88.9316 36.8211L89.7713 35.9815L85.9547 32.1648L85.115 33.0045ZM88.9319 28.3479L85.115 32.1648L85.9547 33.0045L89.7716 29.1876L88.9319 28.3479ZM88.1686 28.4243L88.9319 29.1876L89.7716 28.3479L89.0083 27.5846L88.1686 28.4243ZM85.1914 32.2412L89.0083 28.4243L88.1686 27.5846L84.3517 31.4015L85.1914 32.2412ZM80.5347 28.4242L84.3517 32.2412L85.1914 31.4015L81.3744 27.5846L80.5347 28.4242ZM80.6111 29.1876L81.3744 28.4242L80.5347 27.5846L79.7714 28.3479L80.6111 29.1876ZM84.428 32.1648L80.6111 28.3479L79.7714 29.1876L83.5883 33.0045L84.428 32.1648Z" fill="white"/>
<path d="M202.28 39L199.92 35.7L197.48 39H194.08L198.22 33.58L194.22 28.24H197.72L200 31.38L202.34 28.24H205.66L201.66 33.5L205.82 39H202.28ZM214.575 39L212.215 35.7L209.775 39H206.375L210.515 33.58L206.515 28.24H210.015L212.295 31.38L214.635 28.24H217.955L213.955 33.5L218.115 39H214.575ZM226.869 39L224.509 35.7L222.069 39H218.669L222.809 33.58L218.809 28.24H222.309L224.589 31.38L226.929 28.24H230.249L226.249 33.5L230.409 39H226.869Z" fill="white"/>
<path d="M233.504 39.16C232.957 39.16 232.497 38.9733 232.124 38.6C231.75 38.2267 231.564 37.76 231.564 37.2C231.564 36.6267 231.75 36.1667 232.124 35.82C232.497 35.46 232.957 35.28 233.504 35.28C234.05 35.28 234.51 35.46 234.884 35.82C235.257 36.1667 235.444 36.6267 235.444 37.2C235.444 37.76 235.257 38.2267 234.884 38.6C234.51 38.9733 234.05 39.16 233.504 39.16ZM251.738 28.08C253.085 28.08 254.151 28.48 254.938 29.28C255.738 30.0667 256.138 31.2533 256.138 32.84V39H253.018V33.32C253.018 32.4667 252.838 31.8333 252.478 31.42C252.131 30.9933 251.631 30.78 250.978 30.78C250.245 30.78 249.665 31.02 249.238 31.5C248.811 31.9667 248.598 32.6667 248.598 33.6V39H245.478V33.32C245.478 31.6267 244.798 30.78 243.438 30.78C242.718 30.78 242.145 31.02 241.718 31.5C241.291 31.9667 241.078 32.6667 241.078 33.6V39H237.958V28.24H240.938V29.48C241.338 29.0267 241.825 28.68 242.398 28.44C242.985 28.2 243.625 28.08 244.318 28.08C245.078 28.08 245.765 28.2333 246.378 28.54C246.991 28.8333 247.485 29.2667 247.858 29.84C248.298 29.28 248.851 28.8467 249.518 28.54C250.198 28.2333 250.938 28.08 251.738 28.08ZM269.992 33.66C269.992 33.7 269.972 33.98 269.932 34.5H261.792C261.938 35.1667 262.285 35.6933 262.832 36.08C263.378 36.4667 264.058 36.66 264.872 36.66C265.432 36.66 265.925 36.58 266.352 36.42C266.792 36.2467 267.198 35.98 267.572 35.62L269.232 37.42C268.218 38.58 266.738 39.16 264.792 39.16C263.578 39.16 262.505 38.9267 261.572 38.46C260.638 37.98 259.918 37.32 259.412 36.48C258.905 35.64 258.652 34.6867 258.652 33.62C258.652 32.5667 258.898 31.62 259.392 30.78C259.898 29.9267 260.585 29.2667 261.452 28.8C262.332 28.32 263.312 28.08 264.392 28.08C265.445 28.08 266.398 28.3067 267.252 28.76C268.105 29.2133 268.772 29.8667 269.252 30.72C269.745 31.56 269.992 32.54 269.992 33.66ZM264.412 30.44C263.705 30.44 263.112 30.64 262.632 31.04C262.152 31.44 261.858 31.9867 261.752 32.68H267.052C266.945 32 266.652 31.46 266.172 31.06C265.692 30.6467 265.105 30.44 264.412 30.44ZM277.589 39.16C276.456 39.16 275.436 38.9267 274.529 38.46C273.636 37.98 272.936 37.32 272.429 36.48C271.922 35.64 271.669 34.6867 271.669 33.62C271.669 32.5533 271.922 31.6 272.429 30.76C272.936 29.92 273.636 29.2667 274.529 28.8C275.436 28.32 276.456 28.08 277.589 28.08C278.722 28.08 279.736 28.32 280.629 28.8C281.522 29.2667 282.222 29.92 282.729 30.76C283.236 31.6 283.489 32.5533 283.489 33.62C283.489 34.6867 283.236 35.64 282.729 36.48C282.222 37.32 281.522 37.98 280.629 38.46C279.736 38.9267 278.722 39.16 277.589 39.16ZM277.589 36.6C278.389 36.6 279.042 36.3333 279.549 35.8C280.069 35.2533 280.329 34.5267 280.329 33.62C280.329 32.7133 280.069 31.9933 279.549 31.46C279.042 30.9133 278.389 30.64 277.589 30.64C276.789 30.64 276.129 30.9133 275.609 31.46C275.089 31.9933 274.829 32.7133 274.829 33.62C274.829 34.5267 275.089 35.2533 275.609 35.8C276.129 36.3333 276.789 36.6 277.589 36.6ZM302.961 28.24L299.061 39H296.061L293.641 32.32L291.141 39H288.141L284.261 28.24H287.201L289.741 35.52L292.381 28.24H295.021L297.581 35.52L300.201 28.24H302.961Z" fill="#41CC5D"/>
<defs>
<filter id="filter0_d_3660_1978" x="0" y="0" width="327" height="69" filterUnits="userSpaceOnUse" color-interpolation-filters="sRGB">
<feFlood flood-opacity="0" result="BackgroundImageFix"/>
<feColorMatrix in="SourceAlpha" type="matrix" values="0 0 0 0 0 0 0 0 0 0 0 0 0 0 0 0 0 0 127 0" result="hardAlpha"/>
<feOffset dy="2"/>
<feGaussianBlur stdDeviation="2"/>
<feComposite in2="hardAlpha" operator="out"/>
<feColorMatrix type="matrix" values="0 0 0 0 0 0 0 0 0 0 0 0 0 0 0 0 0 0 0.12 0"/>
<feBlend mode="normal" in2="BackgroundImageFix" result="effect1_dropShadow_3660_1978"/>
<feBlend mode="normal" in="SourceGraphic" in2="effect1_dropShadow_3660_1978" result="shape"/>
</filter>
<linearGradient id="paint0_linear_3660_1978" x1="482.5" y1="24.1818" x2="482.5" y2="124" gradientUnits="userSpaceOnUse">
<stop stop-color="#282828"/>
<stop offset="1"/>
<stop offset="1" stop-color="#1E1E1E"/>
</linearGradient>
<linearGradient id="paint1_linear_3660_1978" x1="482.5" y1="24.1818" x2="482.5" y2="124" gradientUnits="userSpaceOnUse">
<stop stop-color="#282828"/>
<stop offset="1"/>
<stop offset="1" stop-color="#1E1E1E"/>
</linearGradient>
<radialGradient id="paint2_radial_3660_1978" cx="0" cy="0" r="1" gradientUnits="userSpaceOnUse" gradientTransform="translate(234.837 137.061) rotate(44.8711) scale(94.993 179.89)">
<stop stop-color="#41CC5D"/>
<stop offset="0.416667" stop-color="#41CC5D" stop-opacity="0.42"/>
<stop offset="1" stop-color="#FFDD32" stop-opacity="0"/>
</radialGradient>
<radialGradient id="paint3_radial_3660_1978" cx="0" cy="0" r="1" gradientUnits="userSpaceOnUse" gradientTransform="translate(282.358 17.8843) rotate(-150.299) scale(142.455 121.819)">
<stop stop-color="#7678ED"/>
<stop offset="0.536458" stop-color="#7678ED" stop-opacity="0.56"/>
<stop offset="1" stop-color="#41CC5D" stop-opacity="0"/>
</radialGradient>
<radialGradient id="paint4_radial_3660_1978" cx="0" cy="0" r="1" gradientUnits="userSpaceOnUse" gradientTransform="translate(25.9426 30.5315) rotate(41.7325) scale(8.3977 27.5422)">
<stop stop-color="#FC5E17"/>
<stop offset="1" stop-color="#FC6F30" stop-opacity="0"/>
</radialGradient>
<radialGradient id="paint5_radial_3660_1978" cx="0" cy="0" r="1" gradientUnits="userSpaceOnUse" gradientTransform="translate(30.0061 21.7106) rotate(41.7325) scale(8.3977 27.5422)">
<stop stop-color="#FC6F30"/>
<stop offset="1" stop-color="#FC6F30" stop-opacity="0"/>
</radialGradient>
<radialGradient id="paint6_radial_3660_1978" cx="0" cy="0" r="1" gradientUnits="userSpaceOnUse" gradientTransform="translate(35.9735 41.9739) rotate(41.7325) scale(9.67637 27.5422)">
<stop stop-color="#FC9262"/>
<stop offset="1" stop-color="#FC6F30" stop-opacity="0"/>
</radialGradient>
</defs>
</svg>
