<svg width="241" height="32" viewBox="0 0 241 32" fill="none" xmlns="http://www.w3.org/2000/svg">
<path d="M15.3232 31.6971C6.86044 31.6971 -2.99766e-07 24.8392 -6.69546e-07 16.3796C-1.03933e-06 7.92006 6.86044 1.06222 15.3232 1.06222C23.786 1.06222 30.6465 7.92006 30.6465 16.3796C30.6465 24.8392 23.786 31.6971 15.3232 31.6971Z" fill="#41CC5D"/>
<g opacity="0.6">
<mask id="mask0_3709_404" style="mask-type:alpha" maskUnits="userSpaceOnUse" x="0" y="1" width="31" height="31">
<path d="M15.3735 31.6348C6.91074 31.6348 0.0502927 24.777 0.0502923 16.3174C0.0502919 7.85784 6.91074 1 15.3735 0.999999C23.8363 0.999999 30.6968 7.85784 30.6968 16.3174C30.6968 24.777 23.8363 31.6348 15.3735 31.6348Z" fill="#41CC5D"/>
</mask>
<g mask="url(#mask0_3709_404)">
<path d="M-20.0318 46.3641C-20.7607 45.7139 -21.1251 45.3888 -21.4147 45.094C-25.812 40.6171 -26.2127 33.577 -22.3519 28.6303C-22.0976 28.3046 -21.7724 27.9403 -21.122 27.2116L20.0742 -18.9381C20.7246 -19.6668 21.0498 -20.0311 21.3447 -20.3205C25.8234 -24.7161 32.8661 -25.1167 37.8147 -21.2574C38.1405 -21.0032 38.505 -20.6781 39.2339 -20.0279C39.9628 -19.3778 40.3273 -19.0527 40.6168 -18.7579C45.0141 -14.2809 45.4148 -7.24085 41.554 -2.29417C41.2998 -1.96843 40.9746 -1.60412 40.3241 -0.875472L-0.872031 45.2743C-1.52246 46.0029 -1.84768 46.3673 -2.14259 46.6567C-6.62125 51.0523 -13.664 51.4529 -18.6125 47.5935C-18.9384 47.3394 -19.3028 47.0143 -20.0318 46.3641Z" fill="url(#paint0_radial_3709_404)"/>
<path d="M-13.4668 32.1129C-14.1957 31.4627 -14.5602 31.1376 -14.8498 30.8428C-19.247 26.3659 -19.6478 19.3258 -15.7869 14.3791C-15.5327 14.0534 -15.2075 13.6891 -14.557 12.9604L26.6391 -33.1893C27.2895 -33.918 27.6148 -34.2823 27.9097 -34.5717C32.3883 -38.9673 39.4311 -39.3679 44.3796 -35.5086C44.7055 -35.2544 45.0699 -34.9293 45.7988 -34.2791C46.5278 -33.629 46.8922 -33.3039 47.1818 -33.0091C51.579 -28.5321 51.9798 -21.492 48.1189 -16.5454C47.8647 -16.2196 47.5395 -15.8553 46.8891 -15.1267L5.69291 31.0231C5.04248 31.7517 4.71726 32.1161 4.42235 32.4055C-0.056308 36.8011 -7.09903 37.2017 -12.0476 33.3423C-12.3734 33.0882 -12.7379 32.7631 -13.4668 32.1129Z" fill="url(#paint1_radial_3709_404)"/>
<path d="M-3.82553 64.851C-5.98772 62.9223 -7.06882 61.958 -7.80894 60.9779C-10.8631 56.9334 -11.1754 51.4468 -8.59993 47.0821C-7.97582 46.0243 -7.01113 44.9436 -5.08175 42.7823L33.363 -0.285303C35.2924 -2.44668 36.2571 -3.52737 37.2376 -4.2672C41.2837 -7.32016 46.7723 -7.63235 51.1387 -5.05789C52.1968 -4.43401 53.2779 -3.46969 55.4401 -1.54104C57.6023 0.3876 58.6834 1.35192 59.4235 2.33205C62.4777 6.37659 62.79 11.8631 60.2145 16.2279C59.5904 17.2856 58.6257 18.3663 56.6964 20.5277L18.2516 63.5953C16.3222 65.7566 15.3575 66.8373 14.377 67.5771C10.3309 70.6301 4.84229 70.9423 0.475886 68.3678C-0.582243 67.744 -1.66334 66.7796 -3.82553 64.851Z" fill="url(#paint2_radial_3709_404)"/>
</g>
</g>
<path fill-rule="evenodd" clip-rule="evenodd" d="M7.31157 9.36036V8.26122C7.31157 6.8146 8.98318 6.00795 10.1163 6.90777L13.1435 9.31165C13.646 9.71066 14.2688 9.92785 14.9105 9.92785H17.7479C18.6074 9.92785 19.4206 9.53893 19.9599 8.87001L20.2618 8.4955C21.2855 7.22568 23.3374 7.94928 23.3374 9.58012V10.4637C23.3374 10.8433 23.4152 11.2187 23.5659 11.567L24.2835 13.2244C25.1586 15.246 25.4512 17.4718 25.1283 19.6508L25.0996 19.8448C24.7995 21.8697 23.7792 23.7186 22.2258 25.0525C21.0248 25.9477 19.6478 26.5785 18.1854 26.9034L17.6249 27.0279C16.2712 27.1919 14.9027 27.1919 13.549 27.0279L12.8893 26.9008C11.6349 26.6591 10.4463 26.1532 9.4026 25.4167C8.03568 24.4522 6.96478 23.1259 6.31014 21.5867L6.15973 21.233C5.47713 19.6281 5.21138 17.8768 5.38715 16.1417L5.42945 15.7241C5.55129 14.5214 5.85451 13.344 6.3288 12.232L7.08891 10.4499C7.23583 10.1054 7.31157 9.73482 7.31157 9.36036Z" fill="white"/>
<path fill-rule="evenodd" clip-rule="evenodd" d="M9.96214 7.1012C8.99087 6.32993 7.55806 7.02134 7.55806 8.2613V9.36044C7.55806 9.76819 7.47559 10.1717 7.31562 10.5468L6.5555 12.3289C6.09098 13.418 5.79402 14.5711 5.67469 15.7491L5.63239 16.1666C5.46081 17.8603 5.72022 19.5699 6.38653 21.1365L6.53694 21.4901C7.17361 22.9871 8.21512 24.277 9.54453 25.2151C10.5596 25.9313 11.7155 26.4233 12.9355 26.6584L13.5867 26.7839C14.9138 26.944 16.2555 26.9441 17.5827 26.7843L18.1313 26.6624C19.5569 26.3457 20.8994 25.7314 22.0707 24.8597C23.5754 23.565 24.5637 21.772 24.8547 19.8087L24.8834 19.6147C25.1996 17.4813 24.9131 15.3019 24.0562 13.3226L23.3387 11.6652C23.1745 11.2859 23.0898 10.8771 23.0898 10.4638V9.5802C23.0898 8.18234 21.3311 7.56211 20.4536 8.65052L20.1517 9.02504C19.5655 9.75212 18.6816 10.1749 17.7474 10.1749H14.91C14.2125 10.1749 13.5355 9.93879 12.9893 9.50508L9.96214 7.1012ZM7.06401 8.2613C7.06401 6.60802 8.97442 5.68614 10.2694 6.71451L13.2966 9.11838C13.7554 9.48269 14.3241 9.681 14.91 9.681H17.7474C18.5321 9.681 19.2746 9.3259 19.767 8.71514L20.0689 8.34063C21.2389 6.88941 23.5839 7.71638 23.5839 9.5802V10.4638C23.5839 10.8096 23.6547 11.1517 23.7921 11.469L24.5096 13.1264C25.4031 15.1903 25.7018 17.4626 25.3721 19.6871L25.3434 19.8811C25.0346 21.9648 23.9847 23.8673 22.3862 25.2398C22.3819 25.2435 22.3774 25.2471 22.3729 25.2505C21.144 26.1666 19.7349 26.8121 18.2385 27.1445L17.678 27.269C17.6701 27.2708 17.6621 27.2722 17.6541 27.2731C16.2807 27.4395 14.8921 27.4395 13.5187 27.2731C13.513 27.2724 13.5073 27.2715 13.5017 27.2705L12.842 27.1433C11.5531 26.895 10.3319 26.3752 9.25962 25.6185C7.85517 24.6275 6.75488 23.2648 6.08227 21.6834L5.93186 21.3297C5.23298 19.6865 4.96088 17.8934 5.14085 16.1169L5.18315 15.6993C5.3075 14.4718 5.61697 13.2702 6.10103 12.1352L6.86115 10.3531C6.99501 10.0393 7.06401 9.70162 7.06401 9.36044V8.2613ZM20.6298 18.0595C20.5732 17.9841 20.4806 17.9445 20.387 17.9557L19.8582 18.0192C19.6831 18.0402 19.5838 18.2305 19.6668 18.386C19.7133 18.4732 19.8067 18.5249 19.9053 18.5181L20.479 18.4785C20.6697 18.4654 20.77 18.2463 20.6553 18.0935L20.6298 18.0595ZM20.3281 17.4654C20.5969 17.4331 20.8626 17.5466 21.0251 17.7632L21.0506 17.7972C21.4002 18.2632 21.0944 18.9312 20.513 18.9712L19.9393 19.0108C19.6464 19.031 19.369 18.8773 19.2309 18.6184C18.9844 18.1564 19.2793 17.5912 19.7993 17.5288L20.3281 17.4654ZM10.3617 18.5604C10.4867 18.5057 10.6323 18.5628 10.687 18.6877C11.6356 20.8569 13.4577 21.9356 15.3386 22.4141C17.1165 22.8665 18.9256 22.7754 20.0329 22.5665V20.0522C20.0329 19.9158 20.1435 19.8052 20.2799 19.8052C20.4163 19.8052 20.5269 19.9158 20.5269 20.0522V22.4544C21.3331 22.2373 21.9626 21.8854 22.4497 21.3855C22.9966 20.8241 23.3814 20.0581 23.6213 19.0387C23.6526 18.906 23.7855 18.8237 23.9183 18.8549C24.0511 18.8862 24.1335 19.0191 24.1022 19.1518C23.8481 20.2314 23.43 21.0871 22.8036 21.73C22.176 22.3742 21.3568 22.7869 20.3324 23.0097C19.1903 23.2581 17.1901 23.3948 15.2167 22.8927C13.2377 22.3892 11.2619 21.2352 10.2343 18.8855C10.1796 18.7606 10.2367 18.615 10.3617 18.5604Z" fill="black"/>
<path fill-rule="evenodd" clip-rule="evenodd" d="M9.29763 13.4183L25.1728 13.2596C25.2645 13.2587 25.337 13.337 25.3292 13.4283L25.2129 14.7803C25.1277 15.7701 24.2994 16.5302 23.3059 16.5302C22.4576 16.5891 21.6202 16.2981 20.99 15.7272L20.5806 15.3364C20.3479 15.1143 20.0386 14.9903 19.7168 14.9903C19.2803 14.9903 18.8753 15.2179 18.6483 15.5908L18.4152 15.9737C18.2355 16.2688 17.9861 16.5107 17.6928 16.6808C17.319 16.9526 16.597 17.137 15.7671 17.1381C15.2148 17.1657 14.6605 17.1214 14.1181 17.0059L13.3322 16.8384C12.3121 16.5325 11.3586 16.0373 10.5217 15.3786L10.3153 15.2162C10.1293 15.0699 9.8996 14.9903 9.66299 14.9903H6.22789H5.52002L5.70052 14.1241C5.81118 13.708 6.18792 13.4183 6.61852 13.4183H8.05204H9.29763Z" fill="black"/>
<path d="M35.2838 21.9186V13.2822H37.1098V20.4131H40.8123V21.9186H35.2838ZM41.9878 21.9186V15.4413H43.7842V21.9186H41.9878ZM42.8902 14.6063C42.6231 14.6063 42.394 14.5178 42.2028 14.3407C42.0145 14.1607 41.9203 13.9457 41.9203 13.6955C41.9203 13.4481 42.0145 13.2358 42.2028 13.0587C42.394 12.8788 42.6231 12.7888 42.8902 12.7888C43.1573 12.7888 43.385 12.8788 43.5733 13.0587C43.7645 13.2358 43.8601 13.4481 43.8601 13.6955C43.8601 13.9457 43.7645 14.1607 43.5733 14.3407C43.385 14.5178 43.1573 14.6063 42.8902 14.6063ZM47.0197 13.2822V21.9186H45.2232V13.2822H47.0197ZM48.4587 21.9186V15.4413H50.2551V21.9186H48.4587ZM49.3611 14.6063C49.0941 14.6063 48.8649 14.5178 48.6738 14.3407C48.4854 14.1607 48.3912 13.9457 48.3912 13.6955C48.3912 13.4481 48.4854 13.2358 48.6738 13.0587C48.8649 12.8788 49.0941 12.7888 49.3611 12.7888C49.6282 12.7888 49.8559 12.8788 50.0443 13.0587C50.2355 13.2358 50.331 13.4481 50.331 13.6955C50.331 13.9457 50.2355 14.1607 50.0443 14.3407C49.8559 14.5178 49.6282 14.6063 49.3611 14.6063ZM54.6208 22.0451C53.9573 22.0451 53.3866 21.9045 52.9087 21.6234C52.4336 21.3394 52.0681 20.9459 51.8123 20.4426C51.5592 19.9394 51.4327 19.3603 51.4327 18.7052C51.4327 18.0418 51.5606 17.4598 51.8165 16.9594C52.0751 16.4562 52.442 16.064 52.9171 15.7829C53.3922 15.4989 53.9573 15.357 54.6123 15.357C55.1774 15.357 55.6722 15.4596 56.0967 15.6648C56.5212 15.87 56.8572 16.1582 57.1046 16.5293C57.352 16.9004 57.4883 17.3361 57.5136 17.8365H55.8184C55.7706 17.5132 55.6441 17.2532 55.4389 17.0564C55.2364 16.8568 54.9708 16.757 54.6418 16.757C54.3635 16.757 54.1203 16.8329 53.9123 16.9847C53.7071 17.1337 53.5468 17.3516 53.4316 17.6383C53.3163 17.9251 53.2587 18.2723 53.2587 18.6799C53.2587 19.0932 53.3149 19.4446 53.4274 19.7342C53.5426 20.0237 53.7043 20.2444 53.9123 20.3962C54.1203 20.5481 54.3635 20.624 54.6418 20.624C54.8471 20.624 55.0312 20.5818 55.1943 20.4974C55.3601 20.4131 55.4965 20.2908 55.6033 20.1306C55.713 19.9675 55.7846 19.7721 55.8184 19.5444H57.5136C57.4855 20.0392 57.3505 20.475 57.1088 20.8517C56.8698 21.2256 56.5395 21.518 56.1178 21.7288C55.6961 21.9397 55.1971 22.0451 54.6208 22.0451ZM61.5904 22.0451C60.9353 22.0451 60.3688 21.9059 59.8909 21.6276C59.4158 21.3465 59.0489 20.9557 58.7903 20.4553C58.5317 19.9521 58.4023 19.3687 58.4023 18.7052C58.4023 18.0361 58.5317 17.4514 58.7903 16.951C59.0489 16.4477 59.4158 16.057 59.8909 15.7787C60.3688 15.4975 60.9353 15.357 61.5904 15.357C62.2454 15.357 62.8105 15.4975 63.2856 15.7787C63.7635 16.057 64.1318 16.4477 64.3904 16.951C64.6491 17.4514 64.7784 18.0361 64.7784 18.7052C64.7784 19.3687 64.6491 19.9521 64.3904 20.4553C64.1318 20.9557 63.7635 21.3465 63.2856 21.6276C62.8105 21.9059 62.2454 22.0451 61.5904 22.0451ZM61.5988 20.6535C61.8968 20.6535 62.1456 20.5691 62.3452 20.4005C62.5448 20.229 62.6952 19.9956 62.7964 19.7004C62.9004 19.4053 62.9524 19.0693 62.9524 18.6926C62.9524 18.3159 62.9004 17.9799 62.7964 17.6847C62.6952 17.3895 62.5448 17.1562 62.3452 16.9847C62.1456 16.8132 61.8968 16.7275 61.5988 16.7275C61.298 16.7275 61.045 16.8132 60.8397 16.9847C60.6373 17.1562 60.4841 17.3895 60.3801 17.6847C60.2789 17.9799 60.2283 18.3159 60.2283 18.6926C60.2283 19.0693 60.2789 19.4053 60.3801 19.7004C60.4841 19.9956 60.6373 20.229 60.8397 20.4005C61.045 20.5691 61.298 20.6535 61.5988 20.6535Z" fill="white"/>
<path d="M173.285 20.9186V12.2822H179.003V13.7877H175.111V15.8455H178.623V17.351H175.111V20.9186H173.285ZM181.994 12.2822V20.9186H180.197V12.2822H181.994ZM186.36 21.0451C185.704 21.0451 185.138 20.9059 184.66 20.6276C184.185 20.3465 183.818 19.9557 183.559 19.4553C183.301 18.9521 183.171 18.3687 183.171 17.7052C183.171 17.0361 183.301 16.4514 183.559 15.951C183.818 15.4477 184.185 15.057 184.66 14.7787C185.138 14.4975 185.704 14.357 186.36 14.357C187.015 14.357 187.58 14.4975 188.055 14.7787C188.533 15.057 188.901 15.4477 189.16 15.951C189.418 16.4514 189.548 17.0361 189.548 17.7052C189.548 18.3687 189.418 18.9521 189.16 19.4553C188.901 19.9557 188.533 20.3465 188.055 20.6276C187.58 20.9059 187.015 21.0451 186.36 21.0451ZM186.368 19.6535C186.666 19.6535 186.915 19.5691 187.114 19.4005C187.314 19.229 187.464 18.9956 187.566 18.7004C187.67 18.4053 187.722 18.0693 187.722 17.6926C187.722 17.3159 187.67 16.9799 187.566 16.6847C187.464 16.3895 187.314 16.1562 187.114 15.9847C186.915 15.8132 186.666 15.7275 186.368 15.7275C186.067 15.7275 185.814 15.8132 185.609 15.9847C185.406 16.1562 185.253 16.3895 185.149 16.6847C185.048 16.9799 184.997 17.3159 184.997 17.6926C184.997 18.0693 185.048 18.4053 185.149 18.7004C185.253 18.9956 185.406 19.229 185.609 19.4005C185.814 19.5691 186.067 19.6535 186.368 19.6535ZM191.831 20.9186L190.068 14.4413H191.886L192.89 18.7932H192.949L193.994 14.4413H195.778L196.841 18.7679H196.896L197.882 14.4413H199.696L197.937 20.9186H196.035L194.922 16.845H194.842L193.729 20.9186H191.831ZM202.45 17.1739V20.9186H200.654V14.4413H202.366V15.5841H202.442C202.585 15.2074 202.826 14.9094 203.163 14.6901C203.5 14.468 203.91 14.357 204.39 14.357C204.84 14.357 205.232 14.4554 205.567 14.6521C205.901 14.8489 206.161 15.1301 206.347 15.4955C206.532 15.8582 206.625 16.2911 206.625 16.7944V20.9186H204.829V17.1149C204.832 16.7185 204.73 16.4092 204.525 16.1871C204.32 15.9622 204.037 15.8498 203.678 15.8498C203.436 15.8498 203.222 15.9018 203.037 16.0058C202.854 16.1098 202.71 16.2616 202.606 16.4612C202.505 16.658 202.453 16.8956 202.45 17.1739ZM213.43 16.2883L211.786 16.3895C211.758 16.249 211.697 16.1225 211.604 16.01C211.512 15.8947 211.389 15.8034 211.238 15.7359C211.089 15.6656 210.91 15.6305 210.702 15.6305C210.424 15.6305 210.189 15.6895 209.998 15.8076C209.807 15.9229 209.711 16.0775 209.711 16.2715C209.711 16.4261 209.773 16.5568 209.897 16.6636C210.02 16.7705 210.233 16.8562 210.533 16.9209L211.706 17.157C212.335 17.2863 212.805 17.4944 213.114 17.7811C213.423 18.0679 213.578 18.4446 213.578 18.9113C213.578 19.3358 213.453 19.7083 213.203 20.0288C212.955 20.3493 212.615 20.5995 212.182 20.7794C211.752 20.9565 211.256 21.0451 210.694 21.0451C209.836 21.0451 209.153 20.8666 208.644 20.5095C208.138 20.1497 207.842 19.6605 207.754 19.042L209.521 18.9492C209.575 19.2107 209.704 19.4103 209.909 19.5481C210.114 19.683 210.377 19.7505 210.698 19.7505C211.013 19.7505 211.266 19.69 211.457 19.5691C211.651 19.4454 211.749 19.2866 211.752 19.0926C211.749 18.9296 211.68 18.796 211.545 18.692C211.41 18.5852 211.202 18.5036 210.921 18.4474L209.8 18.2239C209.167 18.0974 208.696 17.8781 208.387 17.5661C208.08 17.254 207.927 16.8562 207.927 16.3727C207.927 15.9566 208.04 15.5982 208.265 15.2973C208.492 14.9965 208.811 14.7646 209.222 14.6015C209.635 14.4385 210.119 14.357 210.672 14.357C211.491 14.357 212.134 14.5299 212.604 14.8756C213.076 15.2214 213.352 15.6923 213.43 16.2883Z" fill="white"/>
<path d="M138 15.3485C138 6.87177 144.872 0 153.349 0C161.825 0 168.697 6.87177 168.697 15.3485C168.697 23.8253 161.825 30.6971 153.349 30.6971C144.872 30.6971 138 23.8253 138 15.3485Z" fill="#17233A"/>
<path opacity="0.2" d="M153.589 16.3391C155.567 16.3391 157.171 14.7354 157.171 12.7571H159.559C159.559 16.0542 156.886 18.7271 153.589 18.7271V16.3391Z" fill="#00E075"/>
<path d="M153.589 11.5631V13.9511C155.567 13.9511 157.171 15.5549 157.171 17.5331H159.559C159.559 14.236 156.886 11.5631 153.589 11.5631Z" fill="white"/>
<path d="M153.589 21.1152C155.567 21.1152 157.171 19.5114 157.171 17.5332H159.559C159.559 20.8302 156.886 23.5032 153.589 23.5032V21.1152Z" fill="white"/>
<path opacity="0.2" d="M153.589 23.5032C150.291 23.5032 147.619 20.8302 147.619 17.5332H150.007C150.007 19.5114 151.61 21.1152 153.589 21.1152V23.5032Z" fill="#00E075"/>
<path opacity="0.2" d="M153.589 18.7271C150.292 18.7271 147.619 16.0542 147.619 12.7571H150.007C150.007 14.7354 151.61 16.3391 153.589 16.3391V18.7271Z" fill="#00E075"/>
<path d="M153.589 13.9511C151.61 13.9511 150.007 15.5549 150.007 17.5331H147.619C147.619 14.236 150.292 11.5631 153.589 11.5631V13.9511Z" fill="#00E075"/>
<path d="M153.589 9.17513C151.61 9.17513 150.007 10.7789 150.007 12.7571H147.619C147.619 9.46001 150.292 6.78714 153.589 6.78714V9.17513Z" fill="#00E075"/>
<path opacity="0.2" d="M153.589 6.78718C156.886 6.78718 159.559 9.46003 159.559 12.7572H157.171C157.171 10.7789 155.567 9.17517 153.589 9.17517V6.78718Z" fill="#00E075"/>
<path d="M147.619 12.7571H150.007V21.115C150.007 22.4339 148.938 23.503 147.619 23.503V12.7571Z" fill="#00E075"/>
<path fill-rule="evenodd" clip-rule="evenodd" d="M102.333 16.5666L96.1668 22.733L97.4001 23.9663L103.566 17.7999L109.733 23.9662L110.966 22.7329L104.8 16.5666L110.966 10.4L109.733 9.16667L103.566 15.3333L97.3998 9.16662L96.1665 10.3999L102.333 16.5666Z" fill="white"/>
<path d="M96.1668 22.733L95.7469 22.3131L95.3271 22.733L95.7469 23.1528L96.1668 22.733ZM102.333 16.5666L102.753 16.9864L103.173 16.5666L102.753 16.1467L102.333 16.5666ZM97.4001 23.9663L96.9802 24.3861L97.4001 24.806L97.8199 24.3861L97.4001 23.9663ZM103.566 17.7999L103.986 17.38L103.566 16.9602L103.147 17.38L103.566 17.7999ZM109.733 23.9662L109.313 24.3861L109.733 24.8059L110.153 24.3861L109.733 23.9662ZM110.966 22.7329L111.386 23.1528L111.806 22.7329L111.386 22.3131L110.966 22.7329ZM104.8 16.5666L104.38 16.1467L103.96 16.5666L104.38 16.9864L104.8 16.5666ZM110.966 10.4L111.386 10.8198L111.806 10.4L111.386 9.98013L110.966 10.4ZM109.733 9.16667L110.153 8.74683L109.733 8.32698L109.313 8.74683L109.733 9.16667ZM103.566 15.3333L103.147 15.7531L103.566 16.173L103.986 15.7531L103.566 15.3333ZM97.3998 9.16662L97.8196 8.74677L97.3998 8.32693L96.9799 8.74677L97.3998 9.16662ZM96.1665 10.3999L95.7466 9.98007L95.3268 10.3999L95.7466 10.8198L96.1665 10.3999ZM96.5866 23.1528L102.753 16.9864L101.913 16.1467L95.7469 22.3131L96.5866 23.1528ZM97.8199 23.5464L96.5866 22.3131L95.7469 23.1528L96.9802 24.3861L97.8199 23.5464ZM103.147 17.38L96.9802 23.5464L97.8199 24.3861L103.986 18.2197L103.147 17.38ZM110.153 23.5464L103.986 17.38L103.147 18.2197L109.313 24.3861L110.153 23.5464ZM110.546 22.3131L109.313 23.5464L110.153 24.3861L111.386 23.1528L110.546 22.3131ZM104.38 16.9864L110.546 23.1528L111.386 22.3131L105.22 16.1467L104.38 16.9864ZM110.547 9.98013L104.38 16.1467L105.22 16.9864L111.386 10.8198L110.547 9.98013ZM109.313 9.58652L110.547 10.8198L111.386 9.98013L110.153 8.74683L109.313 9.58652ZM103.986 15.7531L110.153 9.58652L109.313 8.74683L103.147 14.9134L103.986 15.7531ZM96.9799 9.58646L103.147 15.7531L103.986 14.9134L97.8196 8.74677L96.9799 9.58646ZM96.5863 10.8198L97.8196 9.58646L96.9799 8.74677L95.7466 9.98007L96.5863 10.8198ZM102.753 16.1467L96.5863 9.98007L95.7466 10.8198L101.913 16.9864L102.753 16.1467Z" fill="white"/>
<defs>
<radialGradient id="paint0_radial_3709_404" cx="0" cy="0" r="1" gradientUnits="userSpaceOnUse" gradientTransform="translate(9.60107 13.1681) rotate(41.7325) scale(13.5676 44.4981)">
<stop stop-color="#FC5E17"/>
<stop offset="1" stop-color="#FC6F30" stop-opacity="0"/>
</radialGradient>
<radialGradient id="paint1_radial_3709_404" cx="0" cy="0" r="1" gradientUnits="userSpaceOnUse" gradientTransform="translate(16.166 -1.08312) rotate(41.7325) scale(13.5676 44.4981)">
<stop stop-color="#FC6F30"/>
<stop offset="1" stop-color="#FC6F30" stop-opacity="0"/>
</radialGradient>
<radialGradient id="paint2_radial_3709_404" cx="0" cy="0" r="1" gradientUnits="userSpaceOnUse" gradientTransform="translate(25.8073 31.655) rotate(41.7325) scale(15.6335 44.4981)">
<stop stop-color="#FC9262"/>
<stop offset="1" stop-color="#FC6F30" stop-opacity="0"/>
</radialGradient>
</defs>
</svg>
