<svg width="20" height="20" viewBox="0 0 20 20" fill="none" xmlns="http://www.w3.org/2000/svg">
<g id="Group 47978">
<g id="Group 47974">
<g id="Group 47964">
<g id="Group 47974_2">
<path id="Ellipse 90 (Stroke)" fill-rule="evenodd" clip-rule="evenodd" d="M7.48162 8.07436C5.65937 8.38007 4.27073 9.96633 4.27073 11.8753C4.27073 14.0039 5.99634 15.7295 8.12498 15.7295C10.0017 15.7295 11.5668 14.3874 11.9094 12.6102L13.5459 12.9257C13.0549 15.4724 10.8155 17.3962 8.12498 17.3962C5.07586 17.3962 2.60406 14.9244 2.60406 11.8753C2.60406 9.13884 4.59409 6.86882 7.20587 6.43066L7.48162 8.07436Z" fill="white"/>
<path id="Ellipse 91 (Stroke)" fill-rule="evenodd" clip-rule="evenodd" d="M11.875 4.27098C9.74634 4.27098 8.02073 5.99658 8.02073 8.12523C8.02073 10.2539 9.74634 11.9795 11.875 11.9795C14.0036 11.9795 15.7292 10.2539 15.7292 8.12523C15.7292 5.99658 14.0036 4.27098 11.875 4.27098ZM6.35406 8.12523C6.35406 5.07611 8.82586 2.60431 11.875 2.60431C14.9241 2.60431 17.3959 5.07611 17.3959 8.12523C17.3959 11.1743 14.9241 13.6461 11.875 13.6461C8.82586 13.6461 6.35406 11.1743 6.35406 8.12523Z" fill="white"/>
</g>
<path id="Ellipse 92 (Stroke)" fill-rule="evenodd" clip-rule="evenodd" d="M5.12507 3.33335C4.13553 3.33335 3.33335 4.13553 3.33335 5.12507C3.33335 5.58531 2.96026 5.9584 2.50002 5.9584C2.03978 5.9584 1.66669 5.58531 1.66669 5.12507C1.66669 3.21506 3.21506 1.66669 5.12507 1.66669C5.58531 1.66669 5.9584 2.03978 5.9584 2.50002C5.9584 2.96026 5.58531 3.33335 5.12507 3.33335Z" fill="white"/>
<path id="Ellipse 93 (Stroke)" fill-rule="evenodd" clip-rule="evenodd" d="M17.5001 14.0417C17.9603 14.0417 18.3334 14.4148 18.3334 14.875C18.3334 16.785 16.785 18.3334 14.875 18.3334C14.4148 18.3334 14.0417 17.9603 14.0417 17.5001C14.0417 17.0398 14.4148 16.6667 14.875 16.6667C15.8646 16.6667 16.6667 15.8646 16.6667 14.875C16.6667 14.4148 17.0398 14.0417 17.5001 14.0417Z" fill="white"/>
</g>
</g>
</g>
</svg>
