<svg width="15" height="15" viewBox="0 0 15 15" fill="none" xmlns="http://www.w3.org/2000/svg">
<path d="M8.08984 4.59229C8.3903 4.65999 8.66113 4.75944 8.90234 4.89062C9.14355 5.01758 9.34456 5.16146 9.50537 5.32227C10.0513 5.86393 10.4131 6.46273 10.5908 7.11865C10.7728 7.77458 10.7728 8.4305 10.5908 9.08643C10.4131 9.74235 10.0534 10.339 9.51172 10.8765L7.23926 13.1489C6.70182 13.6864 6.10514 14.0461 5.44922 14.228C4.79753 14.41 4.14372 14.41 3.48779 14.228C2.83187 14.0503 2.23096 13.6864 1.68506 13.1362C1.14339 12.5946 0.781576 11.9958 0.599609 11.3398C0.417643 10.6839 0.415527 10.028 0.593262 9.37207C0.775228 8.71615 1.13704 8.11947 1.67871 7.58203L3.43066 5.84912C3.33757 6.16227 3.31006 6.49023 3.34814 6.83301C3.39046 7.17578 3.47298 7.48682 3.5957 7.76611L2.77686 8.57861C2.43831 8.92139 2.21191 9.2959 2.09766 9.70215C1.98763 10.1042 1.98975 10.5104 2.104 10.9209C2.21826 11.3271 2.44678 11.7017 2.78955 12.0444C3.12809 12.383 3.50049 12.6073 3.90674 12.7173C4.31299 12.8315 4.71924 12.8315 5.12549 12.7173C5.53174 12.6073 5.90413 12.383 6.24268 12.0444L8.41357 9.87988C8.75212 9.54134 8.9764 9.16895 9.08643 8.7627C9.20068 8.35645 9.20068 7.9502 9.08643 7.54395C8.97217 7.13346 8.74365 6.75895 8.40088 6.42041C8.23161 6.24691 8.0179 6.10514 7.75977 5.99512C7.50586 5.88086 7.22233 5.8068 6.90918 5.77295L8.08984 4.59229ZM6.82031 10.1528C6.51986 10.0894 6.24902 9.99414 6.00781 9.86719C5.7666 9.736 5.56559 9.58789 5.40479 9.42285C4.85889 8.88118 4.49495 8.28239 4.31299 7.62646C4.13525 6.97054 4.13525 6.31673 4.31299 5.66504C4.49495 5.00911 4.85677 4.41032 5.39844 3.86865L7.66455 1.60254C8.20622 1.06087 8.8029 0.701172 9.45459 0.523438C10.1105 0.341471 10.7643 0.341471 11.416 0.523438C12.0719 0.701172 12.675 1.06299 13.2251 1.60889C13.7668 2.15479 14.1286 2.7557 14.3105 3.41162C14.4925 4.06755 14.4925 4.72347 14.3105 5.37939C14.1328 6.03109 13.7731 6.62565 13.2314 7.16309L11.4795 8.90234C11.5726 8.58496 11.598 8.257 11.5557 7.91846C11.5176 7.57568 11.4372 7.26253 11.3145 6.979L12.127 6.1665C12.4655 5.82796 12.6898 5.45557 12.7998 5.04932C12.9141 4.64307 12.9141 4.23682 12.7998 3.83057C12.6855 3.42432 12.4591 3.0498 12.1206 2.70703C11.7778 2.36849 11.4033 2.14209 10.9971 2.02783C10.5951 1.91357 10.1909 1.91357 9.78467 2.02783C9.37842 2.13786 9.00391 2.36426 8.66113 2.70703L6.49658 4.87158C6.15804 5.21012 5.93164 5.58252 5.81738 5.98877C5.70312 6.39079 5.70312 6.79704 5.81738 7.20752C5.93164 7.61377 6.16016 7.98828 6.50293 8.33105C6.67643 8.50033 6.89014 8.64209 7.14404 8.75635C7.39795 8.86637 7.68148 8.94043 7.99463 8.97852L6.82031 10.1528Z" fill="#32AEE3"/>
</svg>
