<svg width="18" height="18" viewBox="0 0 18 18" fill="none" xmlns="http://www.w3.org/2000/svg">
<path id="Exclude" fill-rule="evenodd" clip-rule="evenodd" d="M9 18C13.9706 18 18 13.9706 18 9C18 4.02944 13.9706 0 9 0C4.02944 0 0 4.02944 0 9C0 13.9706 4.02944 18 9 18ZM11.9017 5.1413C12.4539 5.1413 12.9017 5.58902 12.9017 6.1413V11.2982C12.9017 12.1266 12.2301 12.7982 11.4017 12.7982L6.2448 12.7982C5.69252 12.7982 5.2448 12.3504 5.2448 11.7982C5.2448 11.2459 5.69252 10.7982 6.2448 10.7982H9.48744L5.53769 6.84841C5.14717 6.45788 5.14717 5.82472 5.53769 5.43419C5.92822 5.04367 6.56138 5.04367 6.95191 5.43419L10.9017 9.38394V6.1413C10.9017 5.58902 11.3494 5.1413 11.9017 5.1413Z" fill="white"/>
</svg>
