<svg width="17" height="17" viewBox="0 0 17 17" fill="none" xmlns="http://www.w3.org/2000/svg">
<path id="Union" fill-rule="evenodd" clip-rule="evenodd" d="M8.66668 15.3333C8.83873 15.3333 9.42521 15.1522 10.064 13.8746C10.5753 12.8521 10.9523 11.4085 11.0448 9.73329H6.28859C6.38104 11.4085 6.75811 12.8521 7.26934 13.8746C7.90815 15.1522 8.49464 15.3333 8.66668 15.3333ZM15.0172 9.73329C14.7432 11.9304 13.3555 13.7817 11.4368 14.7043C12.1046 13.4219 12.5503 11.6803 12.6469 9.73329H15.0172ZM15.0172 8.13329C14.7432 5.93615 13.3555 4.08487 11.4368 3.16223C12.1046 4.44471 12.5503 6.18633 12.6469 8.13329H15.0172ZM8.66668 16.9333C13.085 16.9333 16.6667 13.3516 16.6667 8.93329C16.6667 4.51501 13.085 0.933289 8.66668 0.933289C4.2484 0.933289 0.666679 4.51501 0.666679 8.93329C0.666679 13.3516 4.2484 16.9333 8.66668 16.9333ZM5.89653 14.7044C3.97787 13.7817 2.59017 11.9304 2.31619 9.73329H4.68643C4.78308 11.6803 5.22875 13.4219 5.89653 14.7044ZM2.31619 8.13329H4.68643C4.78308 6.18633 5.22875 4.44471 5.89653 3.16223C3.97787 4.08487 2.59017 5.93615 2.31619 8.13329ZM8.66668 2.53329C8.49464 2.53329 7.90815 2.71435 7.26934 3.99198C6.75811 5.01443 6.38104 6.4581 6.28859 8.13329H11.0448C10.9523 6.4581 10.5753 5.01443 10.064 3.99198C9.42521 2.71435 8.83873 2.53329 8.66668 2.53329Z" fill="white" fill-opacity="0.4"/>
</svg>
