<svg width="16" height="16" viewBox="0 0 16 16" fill="none" xmlns="http://www.w3.org/2000/svg">
<path fill-rule="evenodd" clip-rule="evenodd" d="M7.99998 13.3333C10.9455 13.3333 13.3333 10.9455 13.3333 7.99998C13.3333 5.05446 10.9455 2.66665 7.99998 2.66665C5.05446 2.66665 2.66665 5.05446 2.66665 7.99998C2.66665 10.9455 5.05446 13.3333 7.99998 13.3333ZM7.99998 14.6666C11.6819 14.6666 14.6666 11.6819 14.6666 7.99998C14.6666 4.31808 11.6819 1.33331 7.99998 1.33331C4.31808 1.33331 1.33331 4.31808 1.33331 7.99998C1.33331 11.6819 4.31808 14.6666 7.99998 14.6666Z" fill="white"/>
<path d="M4 8C4 10.2091 5.79086 12 8 12C10.2091 12 12 10.2091 12 8C12 5.95985 10.4726 4.27643 8.49901 4.03082C8.22498 3.99672 8 4.22386 8 4.5V8C8 8 7.66667 7.66667 7.33333 7.33333C7.09358 7.09358 6.12104 6.04082 5.59386 5.4686C5.40475 5.26333 5.08142 5.25055 4.90452 5.46644C4.33922 6.15629 4 7.03853 4 8Z" fill="white"/>
</svg>
