<svg width="24" height="24" viewBox="0 0 24 24" fill="none" xmlns="http://www.w3.org/2000/svg">
<path fill-rule="evenodd" clip-rule="evenodd" d="M4 5.3C4 4.02974 5.02335 3 6.28571 3H17.7143C18.9767 3 20 4.02974 20 5.3V13.35C20 14.6203 18.9767 15.65 17.7143 15.65H13.1428V19.1H17.7142C18.3454 19.1 18.8571 19.6149 18.8571 20.25C18.8571 20.8851 18.3454 21.4 17.7142 21.4H11.9999H6.28571C5.65453 21.4 5.14286 20.8851 5.14286 20.25C5.14286 19.6149 5.65453 19.1 6.28571 19.1H10.8571V15.65H6.28571C5.02335 15.65 4 14.6203 4 13.35V5.3ZM11.9999 13.35H15.4285H17.7143V11.05V7.6V5.3H15.4285H8.57142H6.28571V7.6V11.05V13.35H8.57142H11.9999ZM8.57142 8.75C9.2026 8.75 9.71426 8.23513 9.71426 7.6C9.71426 6.96487 9.2026 6.45 8.57142 6.45C7.94024 6.45 7.42857 6.96487 7.42857 7.6C7.42857 8.23513 7.94024 8.75 8.57142 8.75ZM13.1428 7.6C13.1428 8.23513 12.6311 8.75 11.9999 8.75C11.3688 8.75 10.8571 8.23513 10.8571 7.6C10.8571 6.96487 11.3688 6.45 11.9999 6.45C12.6311 6.45 13.1428 6.96487 13.1428 7.6Z" fill="black"/>
</svg>
