<svg width="54" height="54" viewBox="0 0 54 54" fill="none" xmlns="http://www.w3.org/2000/svg">
<path fill-rule="evenodd" clip-rule="evenodd" d="M27 54C41.9117 54 54 41.9117 54 27C54 12.0883 41.9117 0 27 0C12.0883 0 0 12.0883 0 27C0 41.9117 12.0883 54 27 54ZM19.8571 15C18.2792 15 17 16.2872 17 17.875V27.9375C17 29.5253 18.2792 30.8125 19.8571 30.8125H25.5714V35.125H19.8571C19.0682 35.125 18.4286 35.7686 18.4286 36.5625C18.4286 37.3564 19.0682 38 19.8571 38H26.9999H34.1428C34.9318 38 35.5714 37.3564 35.5714 36.5625C35.5714 35.7686 34.9318 35.125 34.1428 35.125H28.4285V30.8125H34.1429C35.7208 30.8125 37 29.5253 37 27.9375V17.875C37 16.2872 35.7208 15 34.1429 15H19.8571ZM31.2856 27.9375H26.9999H22.7143H19.8571V25.0625V20.75V17.875H22.7143H31.2856H34.1429V20.75V25.0625V27.9375H31.2856ZM24.1428 20.75C24.1428 21.5439 23.5032 22.1875 22.7143 22.1875C21.9253 22.1875 21.2857 21.5439 21.2857 20.75C21.2857 19.9561 21.9253 19.3125 22.7143 19.3125C23.5032 19.3125 24.1428 19.9561 24.1428 20.75ZM26.9999 22.1875C27.7889 22.1875 28.4285 21.5439 28.4285 20.75C28.4285 19.9561 27.7889 19.3125 26.9999 19.3125C26.2109 19.3125 25.5714 19.9561 25.5714 20.75C25.5714 21.5439 26.2109 22.1875 26.9999 22.1875Z" fill="#FC814A"/>
</svg>
