<svg width="206" height="36" viewBox="0 0 206 36" fill="none" xmlns="http://www.w3.org/2000/svg">
<path d="M192.291 29.1214L184.86 12.0519H189.836L194.91 24.2938L200.776 12.0519H205.67L194.103 35.5636H189.127L192.291 29.1214ZM174.196 25.5872C174.635 25.4872 175.059 25.3293 175.457 25.1176C175.841 24.9131 176.198 24.6613 176.519 24.3679C176.84 24.0739 177.118 23.7355 177.343 23.3629C177.579 22.9715 177.762 22.5504 177.887 22.1107C178.022 21.6309 178.089 21.1345 178.085 20.636C178.089 20.1322 178.023 19.6302 177.887 19.1449C177.762 18.7052 177.579 18.2841 177.343 17.8927C177.117 17.5187 176.839 17.1777 176.519 16.8794C176.202 16.5836 175.844 16.334 175.457 16.138C175.056 15.9366 174.633 15.7844 174.196 15.6849C173.737 15.5796 173.267 15.5271 172.796 15.5284C172.327 15.5268 171.86 15.5793 171.403 15.6849C170.972 15.7845 170.554 15.9366 170.159 16.138C169.774 16.3366 169.416 16.5859 169.097 16.8794C168.773 17.176 168.493 17.5172 168.265 17.8927C168.029 18.2833 167.849 18.7047 167.729 19.1449C167.599 19.6311 167.535 20.1327 167.54 20.636C167.536 21.1339 167.6 21.63 167.729 22.1107C167.849 22.5509 168.029 22.9723 168.265 23.3629C168.491 23.7369 168.772 24.0756 169.097 24.3679C169.42 24.6589 169.777 24.9105 170.159 25.1176C170.551 25.3292 170.97 25.4872 171.403 25.5872C171.86 25.693 172.327 25.7455 172.796 25.7437C173.267 25.7452 173.737 25.6927 174.196 25.5872M169.179 29.4097C168.416 29.2156 167.682 28.922 166.996 28.5365C165.659 27.7848 164.556 26.6787 163.808 25.3401C163.422 24.648 163.129 23.9086 162.935 23.1405C162.528 21.4901 162.528 19.7657 162.935 18.1152C163.128 17.3495 163.421 16.6126 163.808 15.9239C164.56 14.59 165.662 13.4874 166.996 12.7357C167.682 12.3502 168.416 12.0566 169.179 11.8624C169.995 11.6555 170.834 11.5531 171.675 11.5576C172.13 11.5566 172.584 11.5841 173.035 11.64C173.449 11.6913 173.86 11.774 174.262 11.8871C174.635 11.993 175.001 12.1223 175.358 12.2743C175.692 12.4164 176.014 12.5844 176.322 12.7769C176.611 12.958 176.881 13.1678 177.129 13.403C177.36 13.6228 177.575 13.8596 177.771 14.1115V12.0519H182.5V29.2202H177.771V27.1607C177.469 27.54 177.123 27.8828 176.742 28.1822C176.32 28.5136 175.857 28.7904 175.366 29.0061C174.819 29.2461 174.247 29.423 173.661 29.5333C173.006 29.6572 172.341 29.7179 171.675 29.7145C170.834 29.7191 169.995 29.6166 169.179 29.4097M152.012 16.4016C152.689 16.4141 153.365 16.3365 154.022 16.171C154.534 16.0416 155.012 15.8027 155.423 15.4707C155.793 15.1615 156.077 14.7612 156.246 14.3091C156.431 13.7969 156.52 13.2553 156.51 12.7109C156.521 12.1693 156.431 11.6303 156.246 11.121C156.077 10.6738 155.793 10.2789 155.423 9.97586C155.01 9.6488 154.533 9.41295 154.022 9.28386C153.365 9.11854 152.689 9.04098 152.012 9.05319H147.366V16.4016L152.012 16.4016ZM142.472 5H152.473C154.044 5 155.406 5.19223 156.559 5.57668C157.713 5.96113 158.663 6.49386 159.41 7.17488C160.153 7.85013 160.726 8.69128 161.082 9.62986C161.456 10.6193 161.643 11.6696 161.634 12.7274C161.646 13.7827 161.459 14.8308 161.082 15.8167C160.72 16.7475 160.148 17.582 159.41 18.2552C158.663 18.9419 157.713 19.4774 156.559 19.8617C155.406 20.2464 154.044 20.4386 152.473 20.4383H147.366V29.2202H142.472V5ZM121.459 12.0519H126.155V14.1114C126.445 13.7117 126.789 13.354 127.177 13.0487C127.587 12.7266 128.035 12.4555 128.511 12.2414C129.035 12.0069 129.586 11.8354 130.151 11.7306C130.778 11.6126 131.415 11.5547 132.054 11.5576C133.048 11.5434 134.036 11.7109 134.97 12.0519C135.802 12.3584 136.556 12.8451 137.178 13.4771C137.803 14.1321 138.275 14.9169 138.562 15.7755C138.892 16.7629 139.054 17.799 139.04 18.8401V29.2202H134.344V20.0594C134.355 19.3897 134.261 18.7224 134.064 18.0822C133.901 17.5537 133.628 17.0653 133.265 16.6488C132.915 16.2619 132.477 15.9652 131.988 15.7838C131.433 15.5833 130.847 15.4856 130.258 15.4954C129.666 15.4861 129.077 15.5838 128.519 15.7838C128.027 15.9636 127.586 16.2605 127.234 16.6488C126.87 17.0653 126.598 17.5537 126.435 18.0822C126.238 18.7224 126.144 19.3897 126.155 20.0594V29.2202H121.459V12.0519ZM109.904 25.5378C110.352 25.4294 110.786 25.2691 111.197 25.0599C111.589 24.86 111.947 24.6016 112.26 24.2938C112.57 23.99 112.839 23.6465 113.059 23.2722C113.284 22.8868 113.45 22.4704 113.554 22.0365C113.666 21.567 113.721 21.0858 113.718 20.6031C113.721 20.1231 113.666 19.6445 113.554 19.1779C113.346 18.3178 112.897 17.5348 112.26 16.9206C111.943 16.6154 111.585 16.3549 111.197 16.1462C110.79 15.9275 110.355 15.7641 109.904 15.6602C109.415 15.5479 108.915 15.4926 108.413 15.4954C107.917 15.4932 107.422 15.5485 106.938 15.6602C106.49 15.7631 106.057 15.9266 105.653 16.1462C105.269 16.3563 104.914 16.6168 104.599 16.9206C104.288 17.2198 104.024 17.5642 103.816 17.9421C103.603 18.3304 103.438 18.7425 103.322 19.1697C103.197 19.6372 103.136 20.1193 103.14 20.6031C103.138 21.0868 103.199 21.5688 103.322 22.0366C103.434 22.4674 103.6 22.8825 103.816 23.2723C104.027 23.6485 104.29 23.9925 104.599 24.2938C104.91 24.6003 105.265 24.8586 105.653 25.06C106.061 25.27 106.492 25.4304 106.938 25.5378C107.421 25.6551 107.916 25.7131 108.413 25.7108C108.915 25.7138 109.416 25.6557 109.904 25.5378M105.645 29.4015C104.798 29.2043 103.976 28.9085 103.198 28.52C102.466 28.155 101.787 27.6922 101.18 27.1442C100.591 26.6118 100.081 25.9988 99.6639 25.3236C99.2412 24.6362 98.9168 23.8931 98.7 23.1158C98.2497 21.4709 98.2497 19.7353 98.7 18.0905C98.9159 17.3154 99.2404 16.5749 99.6639 15.8909C100.084 15.2178 100.594 14.6053 101.18 14.0703C101.785 13.5179 102.465 13.0522 103.198 12.6863C103.976 12.298 104.798 12.0021 105.645 11.8048C107.478 11.3874 109.381 11.3874 111.214 11.8048C112.056 12.0004 112.872 12.2963 113.644 12.6863C114.374 13.0576 115.053 13.5229 115.662 14.0703C116.257 14.6033 116.776 15.216 117.203 15.8909C117.631 16.5734 117.959 17.3143 118.175 18.0905C118.625 19.7353 118.625 21.4709 118.175 23.1158C117.958 23.8942 117.63 24.6377 117.203 25.3236C116.779 26.0007 116.26 26.6138 115.662 27.1442C115.051 27.6872 114.373 28.1496 113.644 28.52C112.875 28.9093 112.062 29.2052 111.222 29.4015C109.386 29.8189 107.48 29.8189 105.645 29.4015M87.3213 25.5378C87.7696 25.4295 88.2036 25.2691 88.6147 25.0599C89.0058 24.86 89.3641 24.6016 89.6774 24.2938C89.9876 23.99 90.2563 23.6465 90.4765 23.2722C90.7011 22.8869 90.8677 22.4705 90.9708 22.0365C91.0828 21.567 91.1382 21.0858 91.1355 20.6031C91.1385 20.1231 91.0831 19.6445 90.9708 19.1779C90.763 18.3178 90.3144 17.5347 89.6774 16.9206C89.36 16.6154 89.0024 16.3549 88.6147 16.1462C88.207 15.9275 87.7721 15.764 87.3213 15.6602C86.8323 15.5479 86.3319 15.4926 85.8302 15.4954C85.3339 15.4932 84.8391 15.5485 84.3555 15.6602C83.9071 15.7631 83.4747 15.9266 83.0704 16.1462C82.686 16.3564 82.3314 16.6168 82.0159 16.9206C81.7051 17.2198 81.4413 17.5642 81.2333 17.9421C81.0209 18.3305 80.855 18.7425 80.739 19.1696C80.6145 19.6371 80.5535 20.1193 80.5577 20.6031C80.5549 21.0868 80.6159 21.5687 80.739 22.0365C80.8519 22.4673 81.0179 22.8824 81.2333 23.2722C81.4439 23.6485 81.7074 23.9925 82.0159 24.2938C82.3273 24.6002 82.6827 24.8585 83.0704 25.0599C83.4781 25.27 83.9096 25.4304 84.3555 25.5378C84.8382 25.655 85.3334 25.7131 85.8302 25.7108C86.3324 25.7137 86.8331 25.6556 87.3213 25.5378M83.0621 29.4015C82.2149 29.2043 81.3937 28.9085 80.6154 28.5201C79.8834 28.1551 79.2044 27.6922 78.597 27.1443C78.0086 26.6118 77.4983 25.9989 77.0812 25.3237C76.6585 24.6363 76.3341 23.8932 76.1173 23.1159C75.667 21.471 75.667 19.7354 76.1173 18.0906C76.3332 17.3155 76.6577 16.575 77.0812 15.891C77.5013 15.2179 78.0112 14.6054 78.597 14.0704C79.2027 13.5181 79.8819 13.0523 80.6154 12.6863C81.3938 12.298 82.2149 12.0022 83.0621 11.8049C84.895 11.3875 86.7983 11.3875 88.6311 11.8049C89.4736 12.0004 90.2895 12.2964 91.0614 12.6863C91.7917 13.0576 92.4702 13.5229 93.0798 14.0704C93.6747 14.6034 94.1931 15.216 94.6203 15.891C95.0487 16.5735 95.3761 17.3143 95.5924 18.0906C96.0428 19.7354 96.0428 21.471 95.5924 23.1159C95.3752 23.8943 95.0478 24.6378 94.6203 25.3237C94.1961 26.0008 93.6774 26.6139 93.0798 27.1443C92.4686 27.6874 91.7903 28.1497 91.0614 28.5201C90.2921 28.9093 89.479 29.2052 88.6394 29.4015C86.8037 29.8189 84.8978 29.8189 83.0621 29.4015M46 5H50.9429L59.3953 17.9174L67.8806 5H72.8236V29.2202H67.93V12.6121L60.9111 23.3217H57.9124L50.8935 12.6121V29.2202H46V5Z" fill="#F0F0F0"/>
<path d="M28.0708 10.4105C29.0484 10.4105 30.004 10.1206 30.8169 9.57744C31.6297 9.03431 32.2633 8.26233 32.6374 7.35913C33.0115 6.45594 33.1094 5.46208 32.9187 4.50325C32.728 3.54442 32.2572 2.66368 31.5659 1.9724C30.8746 1.28113 29.9939 0.81036 29.0351 0.619637C28.0762 0.428914 27.0824 0.5268 26.1792 0.900917C25.276 1.27503 24.504 1.90858 23.9609 2.72143C23.4177 3.53429 23.1279 4.48995 23.1279 5.46757C23.1278 6.11669 23.2556 6.75946 23.504 7.35918C23.7524 7.9589 24.1165 8.50382 24.5755 8.96282C25.0345 9.42182 25.5794 9.78591 26.1791 10.0343C26.7789 10.2827 27.4216 10.4105 28.0708 10.4105M12.9146 32.6721C10.5316 32.6721 8.2022 31.9654 6.22086 30.6416C4.23952 29.3177 2.69525 27.436 1.78334 25.2344C0.87143 23.0329 0.632834 20.6103 1.09772 18.2732C1.56261 15.936 2.71011 13.7892 4.3951 12.1042C6.0801 10.4193 8.22691 9.27177 10.5641 8.80688C12.9012 8.342 15.3237 8.5806 17.5253 9.49252C19.7268 10.4044 21.6085 11.9487 22.9324 13.9301C24.2563 15.9114 24.9629 18.2408 24.9629 20.6238C24.9629 22.206 24.6513 23.7727 24.0459 25.2345C23.4404 26.6963 22.5529 28.0245 21.4341 29.1433C20.3153 30.2621 18.9871 31.1496 17.5253 31.755C16.0635 32.3605 14.4968 32.6721 12.9146 32.6721" fill="#7D00FF"/>
</svg>
