<svg width="12" height="12" viewBox="0 0 12 12" fill="none" xmlns="http://www.w3.org/2000/svg">
<g id="Group 47884">
<g id="Group 47882">
<path id="Shape" fill-rule="evenodd" clip-rule="evenodd" d="M0.251051 8.82248C-0.0836835 9.15721 -0.0836835 9.69992 0.251051 10.0347L1.96533 11.7489C2.30007 12.0837 2.84278 12.0837 3.17751 11.7489C3.51225 11.4142 3.51225 10.8715 3.17751 10.5368L2.92646 10.2857H9.42854C9.90193 10.2857 10.2857 9.90195 10.2857 9.42857C10.2857 8.95518 9.90193 8.57143 9.42854 8.57143H2.92646L3.17751 8.32038C3.51225 7.98564 3.51225 7.44293 3.17751 7.1082C2.84278 6.77346 2.30007 6.77346 1.96533 7.1082L0.251051 8.82248Z" fill="#41CC5D"/>
<path id="Shape_2" fill-rule="evenodd" clip-rule="evenodd" d="M11.7489 3.17751C12.0836 2.84277 12.0836 2.30006 11.7489 1.96533L10.0346 0.251046C9.69987 -0.0836889 9.15716 -0.083689 8.82243 0.251045C8.48769 0.585779 8.48769 1.12849 8.82243 1.46322L9.07348 1.71428L2.57139 1.71428C2.09801 1.71428 1.71425 2.09803 1.71425 2.57142C1.71425 3.0448 2.09801 3.42856 2.57139 3.42856L9.07348 3.42856L8.82243 3.67961C8.48769 4.01434 8.48769 4.55705 8.82243 4.89179C9.15716 5.22652 9.69987 5.22652 10.0346 4.89179L11.7489 3.17751Z" fill="#41CC5D"/>
</g>
</g>
</svg>
