<svg width="16" height="16" viewBox="0 0 16 16" fill="none" xmlns="http://www.w3.org/2000/svg">
<g id="Group 48081">
<g id="Group 48082">
<path id="Icon" fill-rule="evenodd" clip-rule="evenodd" d="M14.4 8C14.4 6.67452 13.3255 5.6 12 5.6L10.4 5.6C9.95817 5.6 9.6 5.24183 9.6 4.8C9.6 4.35817 9.95817 4 10.4 4L12 4C14.2091 4 16 5.79086 16 8C16 10.2091 14.2091 12 12 12H10.4C9.95817 12 9.6 11.6418 9.6 11.2C9.6 10.7582 9.95817 10.4 10.4 10.4H12C13.3255 10.4 14.4 9.32548 14.4 8ZM1.6 8C1.6 6.67452 2.67452 5.6 4 5.6H5.6C6.04183 5.6 6.4 5.24183 6.4 4.8C6.4 4.35817 6.04183 4 5.6 4L4 4C1.79086 4 0 5.79086 0 8C0 10.2091 1.79086 12 4 12H5.6C6.04183 12 6.4 11.6418 6.4 11.2C6.4 10.7582 6.04183 10.4 5.6 10.4H4C2.67452 10.4 1.6 9.32548 1.6 8ZM11.2 8.8C11.6418 8.8 12 8.44183 12 8C12 7.55817 11.6418 7.2 11.2 7.2L4.8 7.2C4.35817 7.2 4 7.55817 4 8C4 8.44183 4.35817 8.8 4.8 8.8L11.2 8.8Z" fill="white"/>
</g>
</g>
</svg>
