<svg width="16" height="16" viewBox="0 0 16 16" fill="none" xmlns="http://www.w3.org/2000/svg">
<g id="Group 47695">
<g id="Group 47693">
<g id="Group 47691">
<g id="Group 47664">
<g id="Group 47663">
<g id="Group 47661">
<g id="Group 47659">
<path id="Union" fill-rule="evenodd" clip-rule="evenodd" d="M4.63231 6H13.3334C13.7015 6 14 6.29848 14 6.66667C14 7.03486 13.7015 7.33333 13.3334 7.33333H2.66669C2.2985 7.33333 2.00002 7.03486 2.00002 6.66667C2.00002 6.43082 2.12249 6.22358 2.30731 6.10506C2.34787 6.03716 2.40029 5.97478 2.4643 5.92107L6.14002 2.83677C6.44761 2.57868 6.90618 2.6188 7.16427 2.92638C7.42236 3.23396 7.38224 3.69253 7.07466 3.95063L4.63231 6Z" fill="#FF8A00"/>
</g>
</g>
</g>
</g>
</g>
<g id="Group 47692">
<g id="Group 47664_2">
<g id="Group 47663_2">
<g id="Group 47661_2">
<g id="Group 47659_2">
<path id="Union_2" fill-rule="evenodd" clip-rule="evenodd" d="M11.3677 10L2.66664 10C2.29845 10 1.99998 9.70152 1.99998 9.33333C1.99998 8.96514 2.29845 8.66667 2.66664 8.66667L13.3333 8.66667C13.7015 8.66667 14 8.96514 14 9.33333C14 9.56918 13.8775 9.77642 13.6927 9.89494C13.6521 9.96284 13.5997 10.0252 13.5357 10.0789L9.85998 13.1632C9.55239 13.4213 9.09382 13.3812 8.83573 13.0736C8.57764 12.766 8.61776 12.3075 8.92534 12.0494L11.3677 10Z" fill="#FF8A00"/>
</g>
</g>
</g>
</g>
</g>
</g>
</g>
</svg>
