<svg width="174" height="122" viewBox="0 0 174 122" fill="none" xmlns="http://www.w3.org/2000/svg">
<path d="M123.666 25.1495C123.666 37.834 113.578 48.3232 101.03 49.055C100.538 49.055 100.046 49.055 99.5538 49.055C95.3711 49.055 91.1885 47.8353 87.7439 45.8838C80.3627 41.737 75.4419 33.9311 75.4419 24.9055C75.4419 18.8072 77.6563 13.1967 81.5929 9.04982C86.0216 4.17114 92.4187 1 99.5538 1C108.903 1 117.023 6.36655 120.959 14.1724C122.682 17.5875 123.666 21.2465 123.666 25.1495Z" fill="#282828" stroke="#808080" stroke-width="2" stroke-miterlimit="10"/>
<path opacity="0.1" d="M123.454 25.1495C123.454 37.834 113.367 48.3232 100.819 49.055C96.1439 48.3232 91.7151 47.1035 87.5325 46.1278C80.1513 41.9809 75.2305 34.175 75.2305 25.1495C75.2305 19.0511 77.4448 13.4407 81.3815 9.29378C89.5008 9.04985 98.8503 9.78165 108.446 11.4892C112.875 12.221 117.057 13.1967 120.994 14.1725C122.47 17.5875 123.454 21.2465 123.454 25.1495Z" fill="#E6E6E6"/>
<path d="M152.873 41.2938C154.73 30.9484 131.834 18.2567 101.734 12.946C71.6343 7.63527 45.728 11.7167 43.8711 22.062C42.0141 32.4074 64.9097 45.0991 95.0097 50.4098C125.11 55.7205 151.016 51.6391 152.873 41.2938Z" fill="#282828" stroke="#808080" stroke-width="2" stroke-miterlimit="10"/>
<path d="M94.0608 18.8529C94.1977 17.1068 91.4532 15.4712 87.9309 15.1996C84.4085 14.9281 81.442 16.1235 81.3051 17.8696C81.1681 19.6157 83.9126 21.2514 87.435 21.5229C90.9574 21.7944 93.9238 20.599 94.0608 18.8529Z" fill="#808080"/>
<path d="M63.1027 23.3372C66.4894 22.3403 68.8274 20.1712 68.3246 18.4923C67.8219 16.8135 64.6688 16.2606 61.2821 17.2575C57.8954 18.2544 55.5575 20.4235 56.0602 22.1024C56.5629 23.7812 59.716 24.3341 63.1027 23.3372Z" fill="#808080"/>
<path d="M118.943 25.2708C119.253 23.5465 116.684 21.6513 113.206 21.0376C109.728 20.4239 106.657 21.3242 106.347 23.0484C106.038 24.7727 108.607 26.6679 112.085 27.2816C115.563 27.8953 118.634 26.995 118.943 25.2708Z" fill="#808080"/>
<path d="M137.621 38.0256C138.431 36.469 136.542 33.9057 133.402 32.3004C130.262 30.6951 127.06 30.6556 126.25 32.2123C125.44 33.7689 127.33 36.3321 130.47 37.9374C133.61 39.5427 136.812 39.5822 137.621 38.0256Z" fill="#808080"/>
<path opacity="0.3" d="M95.3035 33.7532L72.1757 33.5093L39.2388 94.7718L131.685 104.494L121.384 42.047L95.3035 33.7532Z" fill="url(#paint0_linear_2123_326)"/>
<path d="M143.77 120.926H25.4243C28.6228 118.059 33.2976 115.193 38.7105 113.043C41.663 111.968 45.1075 110.534 48.5521 109.818C58.8857 106.951 71.4338 105.16 84.7199 105.16C100.713 105.16 115.475 107.668 126.793 111.609C130.729 113.043 134.174 114.476 137.126 116.268C139.833 117.701 142.047 119.134 143.77 120.926Z" fill="#282828" stroke="#808080" stroke-width="2" stroke-miterlimit="10"/>
<path d="M49.7455 112.781C49.9006 114.236 47.3644 115.978 44.4285 116.291C41.4926 116.604 38.9169 115.651 38.5172 114.222C41.3756 113.182 44.6974 111.847 48.0709 110.997C49.1012 111.378 49.668 112.053 49.7455 112.781Z" fill="#808080"/>
<path d="M70.9418 110.526C74.8824 110.526 78.077 109.761 78.077 108.818C78.077 107.875 74.8824 107.111 70.9418 107.111C67.0012 107.111 63.8066 107.875 63.8066 108.818C63.8066 109.761 67.0012 110.526 70.9418 110.526Z" fill="#808080"/>
<path d="M109.402 110.386C109.483 109.176 106.361 107.986 102.429 107.728C98.497 107.469 95.2439 108.241 95.163 109.451C95.0822 110.66 98.2041 111.851 102.136 112.109C106.068 112.367 109.321 111.596 109.402 110.386Z" fill="#808080"/>
<path d="M135.859 116.686C134.881 116.573 133.707 116.611 132.269 116.2C128.386 115.506 125.348 113.928 125.488 112.717C125.516 112.474 125.516 112.474 125.788 112.26C129.587 113.68 133.04 115.054 135.859 116.686Z" fill="#808080"/>
<path d="M121.237 42.8091C122.07 38.167 111.684 32.4521 98.0385 30.0446C84.3931 27.6371 72.6559 29.4486 71.8227 34.0907C70.9894 38.7329 81.3757 44.4478 95.0211 46.8553C108.666 49.2628 120.404 47.4513 121.237 42.8091Z" fill="#282828" stroke="#808080" stroke-width="2" stroke-miterlimit="10"/>
<path d="M32.8846 65.2905C32.8846 65.2905 24.3857 67.4484 26.9611 69.1747C29.5366 70.8146 35.6318 73.663 41.3836 71.7641C47.1354 69.8652 41.3836 67.1894 41.4695 67.1894C41.5553 67.1894 32.8846 65.2905 32.8846 65.2905Z" fill="#282828" stroke="#808080" stroke-width="2" stroke-miterlimit="10"/>
<path d="M22.4966 64.6C25.5871 65.5495 35.1163 63.9958 41.2115 60.0254C46.019 65.9811 47.8218 67.5347 49.5387 67.7074C46.8775 70.3831 38.0351 74.6988 33.0559 69.0884C27.2182 72.7999 22.4966 64.6 22.4966 64.6Z" fill="#282828" stroke="#808080" stroke-width="2" stroke-miterlimit="10"/>
<path d="M124.578 72.3695C127.84 72.5422 136.683 68.5717 141.49 63.2202C147.671 67.7949 149.732 68.8306 151.534 68.5717C149.56 71.8516 143.551 79.0157 135.052 79.5336C128.871 75.9084 124.578 72.3695 124.578 72.3695Z" fill="#282828" stroke="#808080" stroke-width="2" stroke-miterlimit="10"/>
<path d="M96.3062 72.4763C95.6608 69.2739 89.6129 61.6993 83.2326 58.3764C86.1234 51.2506 86.6133 48.9972 85.9134 47.3157C89.5818 48.411 98.017 52.4464 100.636 60.5484C98.6644 67.4377 96.3062 72.4763 96.3062 72.4763Z" fill="#282828" stroke="#808080" stroke-width="2" stroke-miterlimit="10"/>
<path d="M173 120.926H165.529H10.6516H1" stroke="#808080" stroke-width="2" stroke-miterlimit="10" stroke-linecap="round" stroke-linejoin="round"/>
<path d="M67.5501 101.327V106.206H64.5976V110.841H58.9387V106.206H46.6367V100.596L57.9546 84.9839H64.3516V101.327H67.5501ZM59.1848 91.3262L52.0496 101.327H59.1848V91.3262Z" fill="#282828" stroke="#41CC5D" stroke-width="2" stroke-miterlimit="10"/>
<path d="M83.2432 111.329C77.3382 111.329 72.1714 106.206 72.1714 97.9125C72.1714 89.6187 77.3382 84.4961 83.2432 84.4961C89.1481 84.4961 94.315 89.6187 94.315 97.9125C94.561 105.962 89.3942 111.329 83.2432 111.329ZM83.2432 106.206C85.9496 106.206 88.9021 103.523 88.9021 97.6685C88.9021 92.058 86.1957 89.1308 83.2432 89.1308C80.5367 89.1308 77.5843 91.8141 77.5843 97.6685C77.8303 103.523 80.5367 106.206 83.2432 106.206Z" fill="#282828" stroke="#41CC5D" stroke-width="2" stroke-miterlimit="10"/>
<path d="M120.342 101.327V106.206H117.39V110.841H111.731V106.206H99.4287V100.596L110.747 84.9839H117.144V101.327H120.342ZM111.731 91.3262L104.596 101.327H111.731V91.3262Z" fill="#282828" stroke="#41CC5D" stroke-width="2" stroke-miterlimit="10"/>
<defs>
<linearGradient id="paint0_linear_2123_326" x1="85.4679" y1="35.9752" x2="85.4679" y2="75.8182" gradientUnits="userSpaceOnUse">
<stop stop-color="#BABABA"/>
<stop offset="1" stop-color="#BABABA" stop-opacity="0"/>
</linearGradient>
</defs>
</svg>
