<svg width="24" height="24" viewBox="0 0 24 24" fill="none" xmlns="http://www.w3.org/2000/svg">
<g id="Group 47886">
<g id="Group 765">
<path id="Union" fill-rule="evenodd" clip-rule="evenodd" d="M10.9844 4C10.4321 4 9.98437 4.44772 9.98437 5C9.98437 5.55228 10.4321 6 10.9844 6H17.9636V17.9636H10.9844C10.4321 17.9636 9.98437 18.4114 9.98437 18.9636C9.98437 19.5159 10.4321 19.9636 10.9844 19.9636H18.9636C19.5159 19.9636 19.9636 19.5159 19.9636 18.9636V5C19.9636 4.44772 19.5159 4 18.9636 4H10.9844ZM8.98366 8.95746C8.59868 8.56148 7.96557 8.55256 7.56959 8.93755C7.1736 9.32253 7.16469 9.95563 7.54967 10.3516L8.61489 11.4473H4C3.44772 11.4473 3 11.895 3 12.4473C3 12.9996 3.44772 13.4473 4 13.4473H8.61489L7.54967 14.5429C7.16469 14.9389 7.1736 15.572 7.56959 15.957C7.96557 16.342 8.59868 16.3331 8.98366 15.9371L11.6988 13.1443C12.0762 12.7562 12.0762 12.1383 11.6988 11.7502L8.98366 8.95746Z" fill="white"/>
</g>
</g>
</svg>
