<svg width="24" height="24" viewBox="0 0 24 24" fill="none" xmlns="http://www.w3.org/2000/svg">
<g id="Group 47907">
<g id="Group 766">
<path id="Union" fill-rule="evenodd" clip-rule="evenodd" d="M15.6667 7.26668C15.6667 4.94708 13.7863 3.06668 11.4667 3.06668C9.14707 3.06668 7.26667 4.94709 7.26667 7.26668V8.33335H7C5.34315 8.33335 4 9.6765 4 11.3334V16C4 17.6569 5.34315 19 7 19H15.9333C17.5902 19 18.9333 17.6569 18.9333 16V11.3333C18.9333 9.67649 17.5902 8.33335 15.9333 8.33335H15.6667V7.26668ZM13.6667 8.33335V7.26668C13.6667 6.05165 12.6817 5.06668 11.4667 5.06668C10.2516 5.06668 9.26667 6.05165 9.26667 7.26668V8.33335H13.6667ZM7 10.3333H15.9333C16.4856 10.3333 16.9333 10.7811 16.9333 11.3333V16C16.9333 16.5523 16.4856 17 15.9333 17H7C6.44772 17 6 16.5523 6 16V11.3334C6 10.7811 6.44772 10.3333 7 10.3333Z" fill="white"/>
</g>
</g>
</svg>
