<svg width="48" height="48" viewBox="0 0 48 48" fill="none" xmlns="http://www.w3.org/2000/svg">
<g id="Security/Security 10 - 24px">
<path id="Union" fill-rule="evenodd" clip-rule="evenodd" d="M19.969 10.11C19.969 8.98518 20.8622 8.07333 21.9639 8.07333C23.0656 8.07333 23.9587 8.98518 23.9587 10.11V11.9844C22.6505 12.0636 21.2997 12.4379 19.969 13.1966V10.11ZM15.9793 18.2156V21.3117C15.9793 22.4365 16.8725 23.3483 17.9742 23.3483C19.0759 23.3483 19.969 22.4365 19.969 21.3117V18.1618C21.1792 18.5303 22.02 19.2271 22.6152 20.017C23.5573 21.2675 23.947 22.8509 23.947 23.9942C23.947 26.9674 22.1748 28.5386 21.3504 29.114C20.5859 29.6477 19.9573 30.5883 19.9573 31.7519V38.1161L17.592 39.5651L15.9677 37.0033L15.9677 34.1775V31.7519C15.9677 30.564 15.3113 29.63 14.5513 29.1111C13.5325 28.4154 11.978 26.711 11.978 23.9942C11.978 21.034 13.7524 18.9807 15.9793 18.2156ZM15.9793 14.0147V10.11C15.9793 6.73554 18.6587 4 21.9639 4C25.269 4 27.9484 6.73554 27.9484 10.11V12.6379C29.7004 13.3248 31.1426 14.4455 32.0931 15.5511C35.0081 18.9419 34.7807 22.6104 34.4117 24.423L38.3059 28.9529L38.3614 29.0174L38.4113 29.0864L39.4029 30.4572C39.9743 31.247 40.139 32.2691 39.8456 33.2042L38.4929 37.5153C38.0361 38.9712 36.5957 39.8582 35.1213 39.5915L29.9838 38.6622C29.2365 38.527 28.5674 38.107 28.112 37.487L24.136 32.0746C24.0712 32.127 24.0082 32.1766 23.947 32.2236V38.2509V38.6926C23.947 39.7657 23.3956 40.7602 22.4943 41.3123L18.818 43.5643C17.435 44.4115 15.6431 43.9871 14.7666 42.6048L12.4583 38.9643C12.1448 38.4698 11.978 37.8932 11.978 37.3041L11.978 34.1775L11.978 32.24C10.2296 30.9057 7.98828 28.1562 7.98828 23.9942C7.98828 18.4735 11.7698 14.8818 15.9793 14.0147ZM25.2871 16.1036C25.4579 16.1654 25.6394 16.2041 25.828 16.216C27.2149 16.5761 28.4057 17.4368 29.0946 18.2381C31.0156 20.4726 30.6988 22.847 30.451 23.8347C30.2212 24.7507 30.3565 25.8809 31.1084 26.7555L35.252 31.5754L35.8904 32.4579L34.9593 35.4254L31.0675 34.7215L26.772 28.874C27.4455 27.5925 27.9367 25.9777 27.9367 23.9942C27.9367 22.0826 27.329 19.5926 25.7775 17.5335C25.3724 16.9957 24.9067 16.4933 24.3791 16.0424C24.6914 16.0351 24.9946 16.0579 25.2871 16.1036Z" fill="white" fill-opacity="0.8"/>
</g>
</svg>
