<svg width="48" height="48" viewBox="0 0 48 48" fill="none" xmlns="http://www.w3.org/2000/svg">
<g id="Arrows / Arrow Refresh 2 - 24px" clip-path="url(#clip0_15553_1856)">
<path id="Icon" fill-rule="evenodd" clip-rule="evenodd" d="M14.8517 31.4934L16.0305 31.7661C17.155 32.0263 18.2497 31.3126 18.4755 30.1722C18.7013 29.0317 17.9727 27.8962 16.8481 27.6361L11.0533 26.2954C10.0157 26.0553 8.98745 26.6448 8.66582 27.6641L7.07889 32.6933C6.73028 33.7981 7.33356 35.0054 8.42633 35.3899C9.51911 35.7745 10.6876 35.1906 11.0362 34.0858L11.2101 33.5345C13.6391 36.8356 16.8975 38.8598 19.5426 39.7905C22.8309 40.9477 27.6726 41.2977 32.3427 38.9642C37.0271 36.6235 39.6853 32.4046 40.7285 29.0984C41.0771 27.9937 40.4738 26.7863 39.381 26.4018C38.2883 26.0173 37.1198 26.6011 36.7712 27.7059C35.9925 30.1738 33.9546 33.3929 30.4371 35.1506C26.9052 36.9154 23.228 36.6425 20.805 35.7898C18.9484 35.1365 16.6466 33.7289 14.8517 31.4934ZM31.0288 18.4471C29.9042 18.1869 29.1756 17.0514 29.4013 15.911C29.6271 14.7705 30.7218 14.0569 31.8464 14.3171L33.0252 14.5898C31.2303 12.3542 28.9285 10.9466 27.0719 10.2933C24.6489 9.44068 20.9716 9.16774 17.4398 10.9326C13.9222 12.6902 11.8844 15.9093 11.1057 18.3772C10.7571 19.482 9.58861 20.0659 8.49584 19.6813C7.40306 19.2968 6.79979 18.0895 7.14839 16.9847C8.19162 13.6786 10.8498 9.45967 15.5342 7.11896C20.2043 4.78541 25.0459 5.13546 28.3343 6.2926C30.9794 7.22337 34.2378 9.24757 36.6667 12.5486L36.8407 11.9973C37.1893 10.8925 38.3578 10.3087 39.4505 10.6932C40.5433 11.0777 41.1466 12.285 40.798 13.3898L39.2111 18.419C38.8894 19.4383 37.8611 20.0278 36.8236 19.7877L31.0288 18.4471Z" fill="white" fill-opacity="0.8"/>
</g>
<defs>
<clipPath id="clip0_15553_1856">
<rect width="48" height="48" fill="white"/>
</clipPath>
</defs>
</svg>
