<svg width="20" height="20" viewBox="0 0 20 20" fill="none" xmlns="http://www.w3.org/2000/svg">
<g id="right-arrow-stroke">
<g id="shape">
<path fill-rule="evenodd" clip-rule="evenodd" d="M12.2559 4.41074C11.9305 4.08531 11.4028 4.08531 11.0774 4.41074C10.752 4.73618 10.752 5.26382 11.0774 5.58926L15.4882 10L11.0774 14.4107C10.752 14.7362 10.752 15.2638 11.0774 15.5893C11.4028 15.9147 11.9305 15.9147 12.2559 15.5893L17.2559 10.5893C17.5814 10.2638 17.5814 9.73618 17.2559 9.41074L12.2559 4.41074Z" fill="#7678ED"/>
<path fill-rule="evenodd" clip-rule="evenodd" d="M2.5 10C2.5 9.53976 2.8731 9.16667 3.33333 9.16667H16.6667C17.1269 9.16667 17.5 9.53976 17.5 10C17.5 10.4602 17.1269 10.8333 16.6667 10.8333H3.33333C2.8731 10.8333 2.5 10.4602 2.5 10Z" fill="#7678ED"/>
</g>
</g>
</svg>
