<svg width="18" height="18" viewBox="0 0 18 18" fill="none" xmlns="http://www.w3.org/2000/svg">
<g id="Group 47590">
<circle id="Ellipse 41" cx="9" cy="9" r="9" fill="white"/>
<g id="Group 47589">
<path id="Rectangle 315 (Stroke)" fill-rule="evenodd" clip-rule="evenodd" d="M7.07692 4.76923H5.53846C5.11363 4.76923 4.76923 5.11363 4.76923 5.53846V7.07692C4.76923 7.50176 5.11363 7.84615 5.53846 7.84615H7.07692C7.50176 7.84615 7.84615 7.50176 7.84615 7.07692V5.53846C7.84615 5.11363 7.50176 4.76923 7.07692 4.76923ZM5.53846 4C4.68879 4 4 4.68879 4 5.53846V7.07692C4 7.92659 4.68879 8.61538 5.53846 8.61538H7.07692C7.92659 8.61538 8.61538 7.92659 8.61538 7.07692V5.53846C8.61538 4.68879 7.92659 4 7.07692 4H5.53846Z" fill="#121212"/>
<path id="Rectangle 316 (Stroke)" fill-rule="evenodd" clip-rule="evenodd" d="M12.4616 4.76923H10.9231C10.4983 4.76923 10.1539 5.11363 10.1539 5.53846V7.07692C10.1539 7.50176 10.4983 7.84615 10.9231 7.84615H12.4616C12.8864 7.84615 13.2308 7.50176 13.2308 7.07692V5.53846C13.2308 5.11363 12.8864 4.76923 12.4616 4.76923ZM10.9231 4C10.0734 4 9.38464 4.68879 9.38464 5.53846V7.07692C9.38464 7.92659 10.0734 8.61538 10.9231 8.61538H12.4616C13.3112 8.61538 14 7.92659 14 7.07692V5.53846C14 4.68879 13.3112 4 12.4616 4H10.9231Z" fill="#121212"/>
<path id="Rectangle 317 (Stroke)" fill-rule="evenodd" clip-rule="evenodd" d="M7.07692 10.1539H5.53846C5.11363 10.1539 4.76923 10.4983 4.76923 10.9231V12.4616C4.76923 12.8864 5.11363 13.2308 5.53846 13.2308H7.07692C7.50176 13.2308 7.84615 12.8864 7.84615 12.4616V10.9231C7.84615 10.4983 7.50176 10.1539 7.07692 10.1539ZM5.53846 9.38464C4.68879 9.38464 4 10.0734 4 10.9231V12.4616C4 13.3112 4.68879 14 5.53846 14H7.07692C7.92659 14 8.61538 13.3112 8.61538 12.4616V10.9231C8.61538 10.0734 7.92659 9.38464 7.07692 9.38464H5.53846Z" fill="#121212"/>
<path id="Rectangle 318" d="M5.53845 5.92313C5.53845 5.71071 5.71065 5.53851 5.92307 5.53851H6.6923C6.90472 5.53851 7.07691 5.71071 7.07691 5.92313V6.69236C7.07691 6.90478 6.90472 7.07697 6.6923 7.07697H5.92307C5.71065 7.07697 5.53845 6.90478 5.53845 6.69236V5.92313Z" fill="#121212"/>
<path id="Rectangle 319" d="M10.9231 5.92313C10.9231 5.71071 11.0953 5.53851 11.3077 5.53851H12.0769C12.2894 5.53851 12.4616 5.71071 12.4616 5.92313V6.69236C12.4616 6.90478 12.2894 7.07697 12.0769 7.07697H11.3077C11.0953 7.07697 10.9231 6.90478 10.9231 6.69236V5.92313Z" fill="#121212"/>
<path id="Rectangle 320" d="M5.53845 11.3077C5.53845 11.0953 5.71065 10.9231 5.92307 10.9231H6.6923C6.90472 10.9231 7.07691 11.0953 7.07691 11.3077V12.0769C7.07691 12.2894 6.90472 12.4616 6.6923 12.4616H5.92307C5.71065 12.4616 5.53845 12.2894 5.53845 12.0769V11.3077Z" fill="#121212"/>
<path id="Rectangle 321" d="M9.38464 10.1539C9.38464 9.72904 9.72904 9.38464 10.1539 9.38464H12.077V10.1539H9.38464Z" fill="#121212"/>
<path id="Rectangle 322" d="M11.6923 12.4615H14Lnan nanL14 12.4615C14 13.0987 13.4834 13.6153 12.8462 13.6153H11.6923V12.4615Z" fill="#121212"/>
<path id="Rectangle 323" d="M10.5385 12.4615H11.3077V13.2307H10.5385V12.4615Z" fill="#121212"/>
<path id="Rectangle 324" d="M10.5385 10.5385H11.3077V12.077H10.5385V10.5385Z" fill="#121212"/>
<path id="Rectangle 325" d="M9.38464 10.5385H10.1539V13.6154H9.38464V10.5385Z" fill="#121212"/>
<path id="Rectangle 326" d="M11.6923 10.5385H14V11.3077H11.6923V10.5385Z" fill="#121212"/>
<path id="Rectangle 327" d="M12.4615 11.3077H13.2308V12.077H12.4615V11.3077Z" fill="#121212"/>
<path id="Rectangle 328" d="M12.8461 9.38464H14V10.1539H12.8461V9.38464Z" fill="#121212"/>
</g>
</g>
</svg>
