<svg width="74" height="74" viewBox="0 0 74 74" fill="none" xmlns="http://www.w3.org/2000/svg">
<g id="Group 47961">
<rect id="Rectangle 322" x="0.5" y="0.5" width="73" height="73" rx="15.5" fill="black" fill-opacity="0.6" stroke="#41CC5D"/>
<path id="Vector" d="M58 8C53.592 8 50 11.592 50 16C50 20.408 53.592 24 58 24C62.408 24 66 20.408 66 16C66 11.592 62.408 8 58 8ZM60.872 14.872L58.056 17.688C57.936 17.808 57.784 17.864 57.632 17.864C57.48 17.864 57.32 17.808 57.208 17.688L55.8 16.28C55.56 16.048 55.56 15.664 55.8 15.432C56.032 15.2 56.416 15.2 56.648 15.432L57.632 16.416L60.024 14.024C60.256 13.792 60.632 13.792 60.872 14.024C61.104 14.256 61.104 14.64 60.872 14.872Z" fill="#41CC5D"/>
</g>
</svg>
