<svg width="16" height="16" viewBox="0 0 16 16" fill="none" xmlns="http://www.w3.org/2000/svg">
<g id="Group 47962">
<path id="Vector" d="M8.00001 0C3.592 0 0 3.592 0 8C0 12.408 3.592 16 8.00001 16C12.408 16 16 12.408 16 8C16 3.592 12.408 0 8.00001 0ZM10.872 6.872L8.05602 9.688C7.93602 9.808 7.784 9.864 7.632 9.864C7.48 9.864 7.32 9.808 7.208 9.688L5.80001 8.28001C5.56001 8.04801 5.56001 7.66399 5.80001 7.43199C6.03201 7.19999 6.41601 7.19999 6.64801 7.43199L7.632 8.416L10.024 6.024C10.256 5.792 10.632 5.792 10.872 6.024C11.104 6.256 11.104 6.64 10.872 6.872Z" fill="#41CC5D"/>
</g>
</svg>
