<svg width="18" height="20" viewBox="0 0 18 20" fill="none" xmlns="http://www.w3.org/2000/svg">
<path d="M0.200012 5.4V7.6C0.200012 8.7 3.60001 10.4 9.00001 10.4C14.4 10.4 17.8 8.8 17.8 7.6V5.4C15.8 6.7 12.4 7.3 9.00001 7.3C5.60001 7.3 2.20001 6.6 0.200012 5.4ZM9.00001 5.5C14.4 5.5 17.8 3.9 17.8 2.7C17.8 1.5 14.4 0 9.00001 0C3.60001 0 0.200012 1.6 0.200012 2.7C0.200012 3.8 3.60001 5.5 9.00001 5.5ZM9.00001 16.9C5.60001 16.9 2.20001 16.3 0.200012 15V17.2C0.200012 18.3 3.60001 19.9 9.00001 19.9C14.4 19.9 17.8 18.3 17.8 17.2V15C15.8 16.3 12.4 16.9 9.00001 16.9ZM9.00001 12.1C5.60001 12.1 2.20001 11.5 0.200012 10.2V12.4C0.200012 13.5 3.60001 15.1 9.00001 15.1C14.4 15.1 17.8 13.5 17.8 12.4V10.2C15.8 11.4 12.4 12.1 9.00001 12.1Z" />
</svg>
