<svg width="20" height="20" viewBox="0 0 20 20" fill="none" xmlns="http://www.w3.org/2000/svg">
<g id="Group 47982">
<g id="Group 47695">
<g id="Group 47693">
<g id="Group 47691">
<g id="Group 47664">
<g id="Group 47663">
<g id="Group 47661">
<g id="Group 47659">
<path id="Union" fill-rule="evenodd" clip-rule="evenodd" d="M5.79059 7.49985H16.6667C17.1269 7.49985 17.5 7.87295 17.5 8.33319C17.5 8.79342 17.1269 9.16652 16.6667 9.16652H3.33333C2.8731 9.16652 2.5 8.79342 2.5 8.33319C2.5 8.03828 2.65319 7.77915 2.88434 7.63103C2.93502 7.54627 3.00048 7.4684 3.0804 7.40134L7.67505 3.54597C8.05953 3.22335 8.63274 3.2735 8.95536 3.65798C9.27797 4.04246 9.22782 4.61567 8.84335 4.93829L5.79059 7.49985Z" fill="white"/>
</g>
</g>
</g>
</g>
</g>
<g id="Group 47692">
<g id="Group 47664_2">
<g id="Group 47663_2">
<g id="Group 47661_2">
<g id="Group 47659_2">
<path id="Union_2" fill-rule="evenodd" clip-rule="evenodd" d="M14.2097 12.5L3.33333 12.5C2.8731 12.5 2.5 12.1269 2.5 11.6667C2.5 11.2064 2.8731 10.8333 3.33333 10.8333L16.6667 10.8333C17.1269 10.8333 17.5 11.2064 17.5 11.6667C17.5 11.9615 17.3469 12.2206 17.1159 12.3687C17.0652 12.4536 16.9996 12.5316 16.9196 12.5987L12.3249 16.4541C11.9405 16.7767 11.3673 16.7266 11.0446 16.3421C10.722 15.9576 10.7722 15.3844 11.1567 15.0618L14.2097 12.5Z" fill="white"/>
</g>
</g>
</g>
</g>
</g>
</g>
</g>
</g>
</svg>
