<svg width="54" height="54" viewBox="0 0 54 54" fill="none" xmlns="http://www.w3.org/2000/svg">
<path fill-rule="evenodd" clip-rule="evenodd" d="M27 54C41.9117 54 54 41.9117 54 27C54 12.0883 41.9117 0 27 0C12.0883 0 0 12.0883 0 27C0 41.9117 12.0883 54 27 54ZM33.9517 20.8794C33.5384 20.3972 32.8125 20.3414 32.3304 20.7547C31.8482 21.1679 31.7924 21.8938 32.2056 22.376L36.1636 26.9935L32.2056 31.6111C31.7924 32.0933 31.8482 32.8191 32.3304 33.2324C32.8125 33.6457 33.5384 33.5899 33.9517 33.1077L38.551 27.7418C38.9201 27.3112 38.9201 26.6758 38.551 26.2452L33.9517 20.8794ZM21.6849 33.2364C21.2028 33.6497 20.4769 33.5939 20.0636 33.1117L15.4643 27.7458C15.0952 27.3152 15.0952 26.6798 15.4643 26.2492L20.0636 20.8834C20.4769 20.4012 21.2028 20.3454 21.6849 20.7587C22.1671 21.1719 22.2229 21.8978 21.8097 22.38L17.8517 26.9975L21.8097 31.6151C22.2229 32.0973 22.1671 32.8232 21.6849 33.2364ZM30.0329 20.2769C30.1999 19.6642 29.8387 19.0321 29.2261 18.865C28.6134 18.6979 27.9813 19.0591 27.8142 19.6718L23.9821 33.7231C23.815 34.3357 24.1762 34.9678 24.7888 35.1349C25.4015 35.302 26.0336 34.9408 26.2007 34.3282L30.0329 20.2769Z" fill="#00EF8B"/>
</svg>
