<svg width="24" height="24" viewBox="0 0 24 24" fill="none" xmlns="http://www.w3.org/2000/svg">
<path fill-rule="evenodd" clip-rule="evenodd" d="M17.4036 6.0784C17.8931 5.68655 18.63 5.7395 19.0496 6.19665L23.7189 11.2843C24.0936 11.6926 24.0936 12.295 23.7189 12.7033L19.0496 17.7909C18.63 18.2481 17.8931 18.301 17.4036 17.9092C16.9141 17.5173 16.8575 16.8291 17.277 16.3719L21.2951 11.9938L17.277 7.61564C16.8575 7.15849 16.9141 6.47024 17.4036 6.0784Z" fill="black"/>
<path fill-rule="evenodd" clip-rule="evenodd" d="M6.59625 17.9131C6.10676 18.3049 5.36983 18.252 4.95027 17.7948L0.280995 12.7072C-0.0937043 12.2989 -0.0937044 11.6964 0.280994 11.2882L4.95027 6.20054C5.36983 5.74339 6.10676 5.69045 6.59625 6.08229C7.08573 6.47414 7.14242 7.16238 6.72286 7.61954L2.70474 11.9977L6.72286 16.3758C7.14242 16.833 7.08573 17.5212 6.59625 17.9131Z" fill="black"/>
<path fill-rule="evenodd" clip-rule="evenodd" d="M14.2522 4.28688C14.8742 4.4453 15.2409 5.04463 15.0713 5.62552L11.1808 18.9482C11.0112 19.5291 10.3695 19.8716 9.74748 19.7132C9.12551 19.5547 8.75881 18.9554 8.92844 18.3745L12.8189 5.05182C12.9885 4.47093 13.6303 4.12845 14.2522 4.28688Z" fill="black"/>
</svg>
