<svg width="16" height="16" viewBox="0 0 16 16" fill="none" xmlns="http://www.w3.org/2000/svg">
<path d="M13.3334 6.66683C13.3334 8.66683 12.2667 10.4002 10.6667 11.2668C10.6667 11.2668 10.5 13.0002 10.3334 13.6668C10 15.0002 6.00002 15.0002 5.66669 13.6668C5.49952 12.9982 5.33335 11.2668 5.33335 11.2668C3.73335 10.4002 2.66669 8.66683 2.66669 6.66683C2.66669 3.7335 5.06669 1.3335 8.00002 1.3335C10.9334 1.3335 13.3334 3.7335 13.3334 6.66683Z" stroke="#E54040" stroke-width="1.5" stroke-miterlimit="10" stroke-linecap="round" stroke-linejoin="round"/>
<path d="M10 12.3335C8.5 12.3335 8 12.3335 6 12.3335" stroke="#E54040" stroke-width="1.5" stroke-miterlimit="10" stroke-linecap="round" stroke-linejoin="round"/>
<path d="M8.4444 4.6665L6.66663 6.6665H9.33329L7.55551 8.6665" stroke="#E54040" stroke-width="1.5" stroke-linecap="round" stroke-linejoin="round"/>
</svg>
