<svg xmlns="http://www.w3.org/2000/svg" width="20" height="20" viewBox="0 0 20 20" fill="#FFFFFF4D">
<path d="M12.5836 4.8416H7.41691C6.70354 4.8416 6.12524 5.4199 6.12524 6.13327C6.12524 6.84663 6.70354 7.42493 7.41691 7.42493H12.5836C13.2969 7.42493 13.8752 6.84663 13.8752 6.13327C13.8752 5.4199 13.2969 4.8416 12.5836 4.8416Z" stroke="white" strokeOpacity="0.3" strokeWidth="1.5" strokeLinecap="round" strokeLinejoin="round"/>
<path d="M6.5757 11.2583C6.74052 11.2583 6.90164 11.2094 7.03868 11.1179C7.17572 11.0263 7.28253 10.8961 7.3456 10.7439C7.40868 10.5916 7.42518 10.424 7.39303 10.2624C7.36087 10.1007 7.2815 9.95225 7.16496 9.83571C7.04842 9.71916 6.89993 9.6398 6.73828 9.60764C6.57663 9.57549 6.40907 9.59199 6.2568 9.65506C6.10453 9.71814 5.97438 9.82495 5.88281 9.96199C5.79124 10.099 5.74237 10.2601 5.74237 10.425C5.74237 10.646 5.83017 10.8579 5.98645 11.0142C6.14273 11.1705 6.35469 11.2583 6.5757 11.2583Z" fill="white" fillOpacity="0.3"/>
<path d="M10.0006 11.2583C10.1654 11.2583 10.3265 11.2094 10.4635 11.1178C10.6006 11.0263 10.7074 10.8961 10.7705 10.7438C10.8335 10.5916 10.85 10.424 10.8179 10.2624C10.7857 10.1007 10.7064 9.95222 10.5898 9.83568C10.4733 9.71913 10.3248 9.63977 10.1631 9.60761C10.0015 9.57546 9.83394 9.59196 9.68167 9.65503C9.52939 9.71811 9.39925 9.82492 9.30768 9.96196C9.21611 10.099 9.16724 10.2601 9.16724 10.4249C9.16724 10.6459 9.25503 10.8579 9.41131 11.0142C9.56759 11.1705 9.77956 11.2583 10.0006 11.2583Z" fill="white" fillOpacity="0.3"/>
<path d="M13.4918 11.2583C13.6566 11.2583 13.8177 11.2094 13.9548 11.1178C14.0918 11.0263 14.1986 10.8961 14.2617 10.7438C14.3248 10.5916 14.3413 10.424 14.3091 10.2624C14.2769 10.1007 14.1976 9.95222 14.081 9.83568C13.9645 9.71913 13.816 9.63977 13.6544 9.60761C13.4927 9.57546 13.3252 9.59196 13.1729 9.65503C13.0206 9.71811 12.8905 9.82492 12.7989 9.96196C12.7073 10.099 12.6584 10.2601 12.6584 10.4249C12.6584 10.6459 12.7462 10.8579 12.9025 11.0142C13.0588 11.1705 13.2708 11.2583 13.4918 11.2583Z" fill="white" fillOpacity="0.3"/>
<path d="M6.5757 15.5833C6.74052 15.5833 6.90164 15.5344 7.03868 15.4428C7.17572 15.3513 7.28253 15.2211 7.3456 15.0688C7.40868 14.9166 7.42518 14.749 7.39303 14.5874C7.36087 14.4257 7.2815 14.2772 7.16496 14.1607C7.04842 14.0441 6.89993 13.9648 6.73828 13.9326C6.57663 13.9005 6.40907 13.917 6.2568 13.98C6.10453 14.0431 5.97438 14.1499 5.88281 14.287C5.79124 14.424 5.74237 14.5851 5.74237 14.7499C5.74237 14.971 5.83017 15.1829 5.98645 15.3392C6.14273 15.4955 6.35469 15.5833 6.5757 15.5833Z" fill="white" fillOpacity="0.3"/>
<path d="M10.0006 15.5832C10.1654 15.5832 10.3265 15.5343 10.4635 15.4428C10.6006 15.3512 10.7074 15.2211 10.7705 15.0688C10.8335 14.9165 10.85 14.749 10.8179 14.5873C10.7857 14.4257 10.7064 14.2772 10.5898 14.1606C10.4733 14.0441 10.3248 13.9647 10.1631 13.9326C10.0015 13.9004 9.83394 13.9169 9.68167 13.98C9.52939 14.0431 9.39925 14.1499 9.30768 14.2869C9.21611 14.4239 9.16724 14.5851 9.16724 14.7499C9.16724 14.9709 9.25503 15.1829 9.41131 15.3391C9.56759 15.4954 9.77956 15.5832 10.0006 15.5832Z" fill="white" fillOpacity="0.3"/>
<path d="M13.4918 15.5832C13.6566 15.5832 13.8177 15.5343 13.9548 15.4428C14.0918 15.3512 14.1986 15.2211 14.2617 15.0688C14.3248 14.9165 14.3413 14.749 14.3091 14.5873C14.2769 14.4257 14.1976 14.2772 14.081 14.1606C13.9645 14.0441 13.816 13.9647 13.6544 13.9326C13.4927 13.9004 13.3252 13.9169 13.1729 13.98C13.0206 14.0431 12.8905 14.1499 12.7989 14.2869C12.7073 14.4239 12.6584 14.5851 12.6584 14.7499C12.6584 14.9709 12.7462 15.1829 12.9025 15.3391C13.0588 15.4954 13.2708 15.5832 13.4918 15.5832Z" fill="white" fillOpacity="0.3"/>
<path d="M13.4257 17.7H6.57568C6.23832 17.7011 5.90406 17.6354 5.59216 17.5069C5.28026 17.3783 4.99688 17.1892 4.75832 16.9507C4.51976 16.7121 4.33075 16.4287 4.20215 16.1168C4.07355 15.8049 4.00792 15.4707 4.00902 15.1333V4.86665C4.00792 4.52928 4.07355 4.19503 4.20215 3.88313C4.33075 3.57123 4.51976 3.28785 4.75832 3.04929C4.99688 2.81073 5.28026 2.62172 5.59216 2.49312C5.90406 2.36452 6.23832 2.29889 6.57568 2.29999H13.4257C13.7631 2.29889 14.0973 2.36452 14.4092 2.49312C14.7211 2.62172 15.0045 2.81073 15.243 3.04929C15.4816 3.28785 15.6706 3.57123 15.7992 3.88313C15.9278 4.19503 15.9935 4.52928 15.9924 4.86665V15.1333C15.9935 15.4707 15.9278 15.8049 15.7992 16.1168C15.6706 16.4287 15.4816 16.7121 15.243 16.9507C15.0045 17.1892 14.7211 17.3783 14.4092 17.5069C14.0973 17.6354 13.7631 17.7011 13.4257 17.7V17.7Z" stroke="white" strokeOpacity="0.3" strokeWidth="1.5" strokeLinecap="round" strokeLinejoin="round"/>
</svg>
