<svg width="32" height="32" viewBox="0 0 32 32" fill="none" xmlns="http://www.w3.org/2000/svg">
<rect width="32" height="32" rx="8" fill="#8C9BAB"/>
<path d="M18.5834 23.25C17.75 23.5 16.9167 23.6667 16 23.6667C11.75 23.6667 8.33337 20.25 8.33337 15.9167C8.33337 11.6667 11.75 8.25 16.0834 8.25C20.3334 8.25 23.75 11.6667 23.75 16C23.75 16.5 23.75 16.8333 23.75 16.8333C23.75 18.25 22.5834 19.4167 21.1667 19.4167C19.75 19.4167 18.5834 18.25 18.5834 16.8333V13.4167" stroke="white" stroke-width="1.5" stroke-linecap="round" stroke-linejoin="round"/>
<path d="M16.0001 18.5833C14.5001 18.5833 13.4167 17.4167 13.4167 16.0833V16C13.4167 14.5833 14.5834 13.5 15.9167 13.5H16.0001C17.4167 13.5 18.5001 14.6667 18.5001 16C18.5834 17.4167 17.4167 18.5833 16.0001 18.5833Z" stroke="white" stroke-width="1.5" stroke-linecap="round" stroke-linejoin="round"/>
</svg>
