<svg width="12" height="12" viewBox="0 0 12 12" fill="none" xmlns="http://www.w3.org/2000/svg">
<path d="M11.0951 9.90261L7.1936 5.99999L11.0962 2.09736C11.427 1.76661 11.4281 1.23336 11.0973 0.902614C10.7677 0.572989 10.2322 0.572989 9.90372 0.902614L5.99997 4.80524L2.09622 0.902614C1.76772 0.572989 1.23335 0.572989 0.902596 0.902614C0.574096 1.23224 0.574096 1.76774 0.904846 2.09849L4.80635 5.99999L0.903721 9.90149C0.572971 10.2311 0.572971 10.7655 0.902596 11.0962C1.06797 11.2627 1.28622 11.3437 1.49997 11.3437C1.71372 11.3437 1.93197 11.2627 2.09622 11.0974L5.99997 7.19474L9.90372 11.0974C10.0691 11.2616 10.2851 11.3437 10.5 11.3437C10.716 11.3437 10.932 11.2627 11.0962 11.0974C11.4258 10.7655 11.427 10.2322 11.0951 9.90261Z" fill="#787878"/>
</svg>
