<svg width="185" height="138" viewBox="0 0 185 138" fill="none" xmlns="http://www.w3.org/2000/svg">
<g opacity="0.4">
<g filter="url(#filter0_d_1415_511)">
<path d="M114.798 88.2662H70.1555C68.2519 88.2662 66.7109 86.7252 66.7109 84.8216V23.5905C66.7109 21.687 68.2519 20.146 70.1555 20.146H114.798C116.702 20.146 118.243 21.687 118.243 23.5905V84.8216C118.243 86.7252 116.702 88.2662 114.798 88.2662Z" fill="url(#paint0_linear_1415_511)"/>
</g>
<path d="M98.2783 71.746H86.6757C85.384 71.746 84.3416 70.7036 84.3416 69.4119C84.3416 68.1202 85.384 67.0778 86.6757 67.0778H98.2783C99.57 67.0778 100.612 68.1202 100.612 69.4119C100.612 70.7036 99.57 71.746 98.2783 71.746Z" fill="#A9AFC3"/>
<path d="M103.604 76.7995H81.3275C80.6476 76.7995 80.1038 76.2556 80.1038 75.5758C80.1038 74.8959 80.6476 74.3521 81.3275 74.3521H103.604C104.283 74.3521 104.827 74.8959 104.827 75.5758C104.827 76.2329 104.283 76.7995 103.604 76.7995Z" fill="#A9AFC3"/>
<path d="M107.457 44.2511C107.457 48.8287 105.44 52.9304 102.245 55.7178C99.5708 58.0519 96.0582 59.4569 92.2285 59.4569C88.3987 59.4569 84.8862 58.0519 82.2121 55.6951C79.0169 52.9078 77 48.8061 77 44.2285C77 35.8211 83.8211 29 92.2285 29C100.636 29 107.457 35.8437 107.457 44.2511Z" fill="#4B5161"/>
<g filter="url(#filter1_d_1415_511)">
<path d="M54.1565 77.7285H25.4445C23.541 77.7285 22 76.1876 22 74.284V34.128C22 32.2244 23.541 30.6835 25.4445 30.6835H54.1565C56.0601 30.6835 57.6011 32.2244 57.6011 34.128V74.3067C57.6011 76.2102 56.0601 77.7285 54.1565 77.7285Z" fill="#414758"/>
</g>
<path d="M43.8003 66.3299H35.7781C34.8944 66.3299 34.1692 65.6047 34.1692 64.7209C34.1692 63.8371 34.8944 63.1119 35.7781 63.1119H43.8003C44.6841 63.1119 45.4092 63.8371 45.4092 64.7209C45.4092 65.6047 44.6841 66.3299 43.8003 66.3299Z" fill="#8E94A7"/>
<path d="M47.4941 69.8198H32.107C31.6311 69.8198 31.2686 69.4345 31.2686 68.9813C31.2686 68.5054 31.6538 68.1428 32.107 68.1428H47.4941C47.97 68.1428 48.3326 68.5281 48.3326 68.9813C48.3326 69.4345 47.9473 69.8198 47.4941 69.8198Z" fill="#8E94A7"/>
<path d="M50.3042 47.4529C50.3042 50.6255 48.8992 53.4582 46.701 55.3844C44.8428 56.9934 42.4407 57.9678 39.7893 57.9678C37.1379 57.9678 34.7132 56.9934 32.8776 55.3844C30.6794 53.4582 29.2744 50.6255 29.2744 47.4529C29.2744 41.6516 33.988 36.938 39.7893 36.938C45.5906 36.938 50.3042 41.6516 50.3042 47.4529Z" fill="#4B5161"/>
<g filter="url(#filter2_d_1415_511)">
<path d="M158.83 77.7285H130.118C128.214 77.7285 126.673 76.1876 126.673 74.284V34.128C126.673 32.2244 128.214 30.6835 130.118 30.6835H158.83C160.733 30.6835 162.274 32.2244 162.274 34.128V74.3067C162.274 76.2102 160.733 77.7285 158.83 77.7285Z" fill="#414758"/>
</g>
<path d="M148.473 66.3299H140.451C139.567 66.3299 138.842 65.6047 138.842 64.7209C138.842 63.8371 139.567 63.1119 140.451 63.1119H148.473C149.357 63.1119 150.082 63.8371 150.082 64.7209C150.105 65.6047 149.38 66.3299 148.473 66.3299Z" fill="#8E94A7"/>
<path d="M152.167 69.8198H136.78C136.304 69.8198 135.941 69.4345 135.941 68.9813C135.941 68.5054 136.327 68.1428 136.78 68.1428H152.167C152.643 68.1428 153.005 68.5281 153.005 68.9813C153.005 69.4345 152.643 69.8198 152.167 69.8198Z" fill="#8E94A7"/>
<path d="M155 47.4529C155 50.6255 153.595 53.4582 151.397 55.3844C149.538 56.9934 147.136 57.9678 144.485 57.9678C141.833 57.9678 139.409 56.9934 137.573 55.3844C135.375 53.4582 133.97 50.6255 133.97 47.4529C133.97 41.6516 138.684 36.938 144.485 36.938C150.286 36.938 155 41.6516 155 47.4529Z" fill="#4B5161"/>
<path d="M167.735 135.334L145.754 113.352C143.918 111.517 143.918 108.525 145.754 106.69C147.589 104.854 150.581 104.854 152.416 106.69L174.398 128.671C176.233 130.507 176.233 133.498 174.398 135.334C172.562 137.169 169.571 137.169 167.735 135.334Z" fill="#858B9B"/>
<g clip-path="url(#clip0_1415_511)">
<mask id="mask0_1415_511" style="mask-type:alpha" maskUnits="userSpaceOnUse" x="77" y="29" width="31" height="31">
<path d="M107.46 44.23C107.46 35.8187 100.641 29 92.23 29C83.8187 29 77 35.8187 77 44.23C77 52.6413 83.8187 59.46 92.23 59.46C100.641 59.46 107.46 52.6413 107.46 44.23Z" fill="white"/>
</mask>
<g mask="url(#mask0_1415_511)">
<path d="M107.46 29H77V59.46H107.46V29Z" fill="#7678ED"/>
<g filter="url(#filter3_f_1415_511)">
<path d="M101.856 37.2426L100.818 27.639L94.5943 19.6735L69.0313 39.6455L79.9377 53.605L86.9687 52.3027L91.358 37.8239L101.856 37.2426Z" fill="#5B6378"/>
</g>
<g style="mix-blend-mode:overlay" filter="url(#filter4_f_1415_511)">
<path d="M86.6252 37.4797L74.5354 45.5366L77.2184 63.9172L105.666 70.4876L109.92 43.7036L99.5387 43.3677L103.419 53.6214L90.3807 63.6465L86.6248 37.4796L86.6252 37.4797Z" fill="#B3DEE2"/>
</g>
</g>
<g clip-path="url(#clip1_1415_511)">
<mask id="mask1_1415_511" style="mask-type:alpha" maskUnits="userSpaceOnUse" x="77" y="29" width="31" height="31">
<path d="M107.46 44.23C107.46 35.8187 100.641 29 92.23 29C83.8187 29 77 35.8187 77 44.23C77 52.6413 83.8187 59.46 92.23 59.46C100.641 59.46 107.46 52.6413 107.46 44.23Z" fill="white"/>
</mask>
<g mask="url(#mask1_1415_511)">
<path d="M107.46 29H77V59.46H107.46V29Z" fill="#4B5161"/>
<path d="M72.9567 49.4625C71.6409 57.7703 77.3089 65.5717 85.6167 66.8875C93.9244 68.2033 101.726 62.5353 103.042 54.2275C104.357 45.9198 98.6894 38.1184 90.3817 36.8025C82.0739 35.4867 74.2725 41.1548 72.9567 49.4625Z" fill="#A9AFC3"/>
<path d="M83.9531 49.535C84.0848 50.3662 84.6512 51.0936 85.5279 51.5572C86.4046 52.0208 87.5197 52.1826 88.6279 52.0071C89.7361 51.8316 90.7467 51.3331 91.4372 50.6212C92.1277 49.9094 92.4417 49.0426 92.3101 48.2114" fill="#4B5161"/>
<path d="M82.1703 46.3908C82.0972 45.9293 81.7574 45.5996 81.4112 45.6544C81.065 45.7092 80.8437 46.1278 80.9168 46.5894C80.9899 47.0509 81.3298 47.3806 81.6759 47.3258C82.0221 47.271 82.2434 46.8524 82.1703 46.3908Z" fill="#4B5161"/>
<path d="M93.8703 44.5378C93.7972 44.0762 93.4573 43.7465 93.1111 43.8014C92.765 43.8562 92.5436 44.2748 92.6167 44.7363C92.6898 45.1979 93.0297 45.5276 93.3759 45.4728C93.722 45.4179 93.9434 44.9993 93.8703 44.5378Z" fill="#4B5161"/>
</g>
</g>
</g>
<g clip-path="url(#clip2_1415_511)">
<mask id="mask2_1415_511" style="mask-type:alpha" maskUnits="userSpaceOnUse" x="29" y="37" width="22" height="22">
<path d="M50.03 47.515C50.03 41.7077 45.3223 37 39.515 37C33.7077 37 29 41.7077 29 47.515C29 53.3223 33.7077 58.03 39.515 58.03C45.3223 58.03 50.03 53.3223 50.03 47.515Z" fill="white"/>
</mask>
<g mask="url(#mask2_1415_511)">
<path d="M50.03 37H29V58.03H50.03V37Z" fill="#7678ED"/>
<g filter="url(#filter5_f_1415_511)">
<path d="M46.1607 42.6908L45.444 36.0604L41.1472 30.5609L23.4982 44.3498L31.0281 53.9877L35.8824 53.0886L38.9128 43.0922L46.1607 42.6908Z" fill="#5B6378"/>
</g>
<g style="mix-blend-mode:overlay" filter="url(#filter6_f_1415_511)">
<path d="M35.6454 42.8545L27.2985 48.4171L29.1509 61.1073L48.7916 65.6436L51.7286 47.1515L44.5611 46.9196L47.2398 53.9989L38.2382 60.9204L35.6451 42.8544L35.6454 42.8545Z" fill="#B3DEE2"/>
</g>
</g>
<mask id="mask3_1415_511" style="mask-type:alpha" maskUnits="userSpaceOnUse" x="29" y="37" width="22" height="22">
<path d="M50.03 47.515C50.03 41.7077 45.3223 37 39.515 37C33.7077 37 29 41.7077 29 47.515C29 53.3223 33.7077 58.03 39.515 58.03C45.3223 58.03 50.03 53.3223 50.03 47.515Z" fill="white"/>
</mask>
<g mask="url(#mask3_1415_511)">
<path d="M50.03 37H29V58.03H50.03V37Z" fill="#4B5161"/>
<path d="M26.2085 51.1276C25.3001 56.8634 29.2134 62.2496 34.9492 63.1581C40.6849 64.0665 46.0712 60.1532 46.9796 54.4174C47.8881 48.6817 43.9748 43.2954 38.239 42.387C32.5032 41.4785 27.117 45.3918 26.2085 51.1276Z" fill="#A9AFC3"/>
<path d="M33.8008 51.1776C33.8917 51.7514 34.2828 52.2536 34.8881 52.5737C35.4933 52.8938 36.2632 53.0055 37.0283 52.8843C37.7935 52.7632 38.4911 52.419 38.9679 51.9275C39.4446 51.4361 39.6614 50.8376 39.5705 50.2638" fill="#4B5161"/>
<path d="M32.5699 49.0068C32.5194 48.6881 32.2848 48.4605 32.0458 48.4984C31.8068 48.5362 31.654 48.8252 31.7044 49.1439C31.7549 49.4625 31.9895 49.6902 32.2285 49.6523C32.4675 49.6145 32.6204 49.3254 32.5699 49.0068Z" fill="#4B5161"/>
<path d="M40.6478 47.7274C40.5973 47.4087 40.3626 47.1811 40.1236 47.2189C39.8847 47.2568 39.7318 47.5458 39.7823 47.8645C39.8328 48.1831 40.0674 48.4107 40.3064 48.3729C40.5454 48.335 40.6982 48.046 40.6478 47.7274Z" fill="#4B5161"/>
</g>
</g>
<g clip-path="url(#clip3_1415_511)">
<mask id="mask4_1415_511" style="mask-type:alpha" maskUnits="userSpaceOnUse" x="134" y="37" width="22" height="22">
<path d="M134 47.515C134 41.7077 138.708 37 144.515 37C150.322 37 155.03 41.7077 155.03 47.515C155.03 53.3223 150.322 58.03 144.515 58.03C138.708 58.03 134 53.3223 134 47.515Z" fill="white"/>
</mask>
<g mask="url(#mask4_1415_511)">
<path d="M134 37H155.03V58.03H134V37Z" fill="#7678ED"/>
<g filter="url(#filter7_f_1415_511)">
<path d="M137.869 42.6908L138.586 36.0604L142.883 30.5609L160.532 44.3498L153.002 53.9877L148.148 53.0886L145.117 43.0922L137.869 42.6908Z" fill="#5B6378"/>
</g>
<g style="mix-blend-mode:overlay" filter="url(#filter8_f_1415_511)">
<path d="M148.385 42.8545L156.732 48.4171L154.879 61.1073L135.238 65.6436L132.301 47.1515L139.469 46.9196L136.79 53.9989L145.792 60.9204L148.385 42.8544L148.385 42.8545Z" fill="#B3DEE2"/>
</g>
</g>
<mask id="mask5_1415_511" style="mask-type:alpha" maskUnits="userSpaceOnUse" x="134" y="37" width="22" height="22">
<path d="M134 47.515C134 41.7077 138.708 37 144.515 37C150.322 37 155.03 41.7077 155.03 47.515C155.03 53.3223 150.322 58.03 144.515 58.03C138.708 58.03 134 53.3223 134 47.515Z" fill="white"/>
</mask>
<g mask="url(#mask5_1415_511)">
<path d="M134 37H155.03V58.03H134V37Z" fill="#4B5161"/>
<path d="M157.821 51.1276C158.73 56.8634 154.817 62.2496 149.081 63.1581C143.345 64.0665 137.959 60.1532 137.05 54.4174C136.142 48.6817 140.055 43.2954 145.791 42.387C151.527 41.4785 156.913 45.3918 157.821 51.1276Z" fill="#A9AFC3"/>
<path d="M150.229 51.1776C150.138 51.7514 149.747 52.2536 149.142 52.5737C148.537 52.8938 147.767 53.0055 147.002 52.8843C146.237 52.7632 145.539 52.419 145.062 51.9275C144.585 51.4361 144.369 50.8376 144.46 50.2638" fill="#4B5161"/>
<path d="M151.46 49.0068C151.511 48.6881 151.745 48.4605 151.984 48.4984C152.223 48.5362 152.376 48.8252 152.326 49.1439C152.275 49.4625 152.04 49.6902 151.801 49.6523C151.563 49.6145 151.41 49.3254 151.46 49.0068Z" fill="#4B5161"/>
<path d="M143.382 47.7274C143.433 47.4087 143.667 47.1811 143.906 47.2189C144.145 47.2568 144.298 47.5458 144.248 47.8645C144.197 48.1831 143.963 48.4107 143.724 48.3729C143.485 48.335 143.332 48.046 143.382 47.7274Z" fill="#4B5161"/>
</g>
</g>
<path d="M153.459 120.944L124.792 92.2998L131.364 85.728L160.008 114.395L153.459 120.944Z" fill="#858B9B"/>
<path d="M166.172 136.739L137.89 108.457C137.233 107.8 137.233 106.735 137.89 106.055L145.119 98.8264C145.777 98.1692 146.842 98.1692 147.521 98.8264L175.803 127.108C176.46 127.765 176.46 128.83 175.803 129.51L168.574 136.739C167.894 137.396 166.829 137.396 166.172 136.739Z" fill="url(#paint1_linear_1415_511)"/>
<path d="M92.3411 0C62.3374 0 38.0217 24.3157 38.0217 54.3194C38.0217 84.3004 62.3374 108.639 92.3184 108.639C122.322 108.639 146.638 84.3231 146.638 54.3194C146.638 24.3157 122.322 0 92.3411 0ZM92.3411 98.5771C68.252 98.5771 48.7406 78.7484 48.7406 54.2967C48.7406 29.8451 68.252 10.039 92.3411 10.039C116.43 10.039 135.942 29.8677 135.942 54.3194C135.942 78.771 116.408 98.5771 92.3411 98.5771Z" fill="url(#paint2_linear_1415_511)"/>
</g>
<defs>
<filter id="filter0_d_1415_511" x="44.7109" y="9.146" width="95.532" height="112.12" filterUnits="userSpaceOnUse" color-interpolation-filters="sRGB">
<feFlood flood-opacity="0" result="BackgroundImageFix"/>
<feColorMatrix in="SourceAlpha" type="matrix" values="0 0 0 0 0 0 0 0 0 0 0 0 0 0 0 0 0 0 127 0" result="hardAlpha"/>
<feOffset dy="11"/>
<feGaussianBlur stdDeviation="11"/>
<feColorMatrix type="matrix" values="0 0 0 0 0 0 0 0 0 0 0 0 0 0 0 0 0 0 0.27 0"/>
<feBlend mode="normal" in2="BackgroundImageFix" result="effect1_dropShadow_1415_511"/>
<feBlend mode="normal" in="SourceGraphic" in2="effect1_dropShadow_1415_511" result="shape"/>
</filter>
<filter id="filter1_d_1415_511" x="0" y="19.6835" width="79.6011" height="91.045" filterUnits="userSpaceOnUse" color-interpolation-filters="sRGB">
<feFlood flood-opacity="0" result="BackgroundImageFix"/>
<feColorMatrix in="SourceAlpha" type="matrix" values="0 0 0 0 0 0 0 0 0 0 0 0 0 0 0 0 0 0 127 0" result="hardAlpha"/>
<feOffset dy="11"/>
<feGaussianBlur stdDeviation="11"/>
<feColorMatrix type="matrix" values="0 0 0 0 0 0 0 0 0 0 0 0 0 0 0 0 0 0 0.27 0"/>
<feBlend mode="normal" in2="BackgroundImageFix" result="effect1_dropShadow_1415_511"/>
<feBlend mode="normal" in="SourceGraphic" in2="effect1_dropShadow_1415_511" result="shape"/>
</filter>
<filter id="filter2_d_1415_511" x="104.673" y="19.6835" width="79.6011" height="91.045" filterUnits="userSpaceOnUse" color-interpolation-filters="sRGB">
<feFlood flood-opacity="0" result="BackgroundImageFix"/>
<feColorMatrix in="SourceAlpha" type="matrix" values="0 0 0 0 0 0 0 0 0 0 0 0 0 0 0 0 0 0 127 0" result="hardAlpha"/>
<feOffset dy="11"/>
<feGaussianBlur stdDeviation="11"/>
<feColorMatrix type="matrix" values="0 0 0 0 0 0 0 0 0 0 0 0 0 0 0 0 0 0 0.27 0"/>
<feBlend mode="normal" in2="BackgroundImageFix" result="effect1_dropShadow_1415_511"/>
<feBlend mode="normal" in="SourceGraphic" in2="effect1_dropShadow_1415_511" result="shape"/>
</filter>
<filter id="filter3_f_1415_511" x="52.2312" y="2.87346" width="66.4247" height="67.5315" filterUnits="userSpaceOnUse" color-interpolation-filters="sRGB">
<feFlood flood-opacity="0" result="BackgroundImageFix"/>
<feBlend mode="normal" in="SourceGraphic" in2="BackgroundImageFix" result="shape"/>
<feGaussianBlur stdDeviation="8.4" result="effect1_foregroundBlur_1415_511"/>
</filter>
<filter id="filter4_f_1415_511" x="57.7354" y="20.6796" width="68.9848" height="66.6081" filterUnits="userSpaceOnUse" color-interpolation-filters="sRGB">
<feFlood flood-opacity="0" result="BackgroundImageFix"/>
<feBlend mode="normal" in="SourceGraphic" in2="BackgroundImageFix" result="shape"/>
<feGaussianBlur stdDeviation="8.4" result="effect1_foregroundBlur_1415_511"/>
</filter>
<filter id="filter5_f_1415_511" x="6.69829" y="13.7609" width="56.2624" height="57.0268" filterUnits="userSpaceOnUse" color-interpolation-filters="sRGB">
<feFlood flood-opacity="0" result="BackgroundImageFix"/>
<feBlend mode="normal" in="SourceGraphic" in2="BackgroundImageFix" result="shape"/>
<feGaussianBlur stdDeviation="8.4" result="effect1_foregroundBlur_1415_511"/>
</filter>
<filter id="filter6_f_1415_511" x="10.4983" y="26.0544" width="58.0302" height="56.3892" filterUnits="userSpaceOnUse" color-interpolation-filters="sRGB">
<feFlood flood-opacity="0" result="BackgroundImageFix"/>
<feBlend mode="normal" in="SourceGraphic" in2="BackgroundImageFix" result="shape"/>
<feGaussianBlur stdDeviation="8.4" result="effect1_foregroundBlur_1415_511"/>
</filter>
<filter id="filter7_f_1415_511" x="121.069" y="13.7609" width="56.2624" height="57.0268" filterUnits="userSpaceOnUse" color-interpolation-filters="sRGB">
<feFlood flood-opacity="0" result="BackgroundImageFix"/>
<feBlend mode="normal" in="SourceGraphic" in2="BackgroundImageFix" result="shape"/>
<feGaussianBlur stdDeviation="8.4" result="effect1_foregroundBlur_1415_511"/>
</filter>
<filter id="filter8_f_1415_511" x="115.502" y="26.0544" width="58.0302" height="56.3892" filterUnits="userSpaceOnUse" color-interpolation-filters="sRGB">
<feFlood flood-opacity="0" result="BackgroundImageFix"/>
<feBlend mode="normal" in="SourceGraphic" in2="BackgroundImageFix" result="shape"/>
<feGaussianBlur stdDeviation="8.4" result="effect1_foregroundBlur_1415_511"/>
</filter>
<linearGradient id="paint0_linear_1415_511" x1="92.4602" y1="18.5703" x2="92.4602" y2="89.0005" gradientUnits="userSpaceOnUse">
<stop stop-color="#5C6479"/>
<stop offset="0.9964" stop-color="#5C6479"/>
</linearGradient>
<linearGradient id="paint1_linear_1415_511" x1="137.38" y1="117.787" x2="176.303" y2="117.787" gradientUnits="userSpaceOnUse">
<stop stop-color="#B0BACC"/>
<stop offset="1" stop-color="#969EAE"/>
</linearGradient>
<linearGradient id="paint2_linear_1415_511" x1="37.972" y1="54.3312" x2="146.658" y2="54.3312" gradientUnits="userSpaceOnUse">
<stop stop-color="#B0BACC"/>
<stop offset="1" stop-color="#969EAE"/>
</linearGradient>
<clipPath id="clip0_1415_511">
<rect width="30.46" height="30.46" fill="white" transform="translate(77 29)"/>
</clipPath>
<clipPath id="clip1_1415_511">
<rect width="30.46" height="30.46" fill="white" transform="translate(77 29)"/>
</clipPath>
<clipPath id="clip2_1415_511">
<rect width="21.03" height="21.03" fill="white" transform="translate(29 37)"/>
</clipPath>
<clipPath id="clip3_1415_511">
<rect width="21.03" height="21.03" fill="white" transform="matrix(-1 0 0 1 155.03 37)"/>
</clipPath>
</defs>
</svg>
