<svg fill="none" height="167" viewBox="0 0 173 167" width="173" xmlns="http://www.w3.org/2000/svg"><path d="m65.3953 18.1046c-36.1168 9.999-57.28956 47.3832-47.2906 83.5004 9.9989 36.116 47.3832 57.289 83.5003 47.29 36.117-9.999 57.289-47.383 47.29-83.4998s-47.383-57.28954-83.4997-47.2906z" fill="#282828" stroke="#808080" stroke-miterlimit="10" stroke-width="2"/><path d="m107.306 37.8348 1.288-.6501c.068-.0188.185-.1247.147-.2611l-.104-1.4387c.011-.2234.11-.3974.314-.4541.205-.0566.447.0231.504.2276l.65 1.2878c.019.0682.124.1856.261.1479l1.439-.1048c.223.0116.397.1102.454.3146.056.2045-.024.4468-.228.5034l-1.288.65c-.068.0189-.185.1248-.148.2611l.105 1.4388c-.011.2233-.11.3974-.315.454-.204.0566-.446-.0231-.503-.2276l-.65-1.2877c-.019-.0682-.125-.1857-.261-.1479l-1.439.1047c-.223-.0115-.397-.1101-.454-.3146-.038-.1363.042-.3785.228-.5033z" fill="#808080"/><path d="m45.4769 45.24 1.2277-.6198c.065-.0179.177-.1189.141-.2489l-.0999-1.3716c.011-.2129.105-.3788.2999-.4328.195-.054.4259.022.4799.217l.6197 1.2276c.018.065.119.177.2489.141l1.3716-.0999c.213.011.3789.105.4329.3.0539.1949-.022.4258-.217.4798l-1.2277.6197c-.0649.018-.1769.119-.1409.249l.0998 1.3715c-.011.213-.105.3789-.2999.4329-.195.054-.4259-.022-.4798-.217l-.6198-1.2276c-.018-.065-.1189-.177-.2489-.141l-1.3716.0999c-.2129-.0111-.3789-.105-.4328-.3-.054-.1949.022-.4259.2169-.4798z" fill="#808080"/><path d="m89.4565 58.6832.9916-.5005c.0524-.0146.1429-.0961.1138-.2011l-.0806-1.1078c.0088-.172.0848-.306.2422-.3496.1575-.0436.344.0178.3876.1753l.5005.9915c.0145.0525.0961.143.201.1139l1.1079-.0807c.1719.0089.306.0848.3496.2423.0435.1574-.0178.3439-.1753.3875l-.9915.5006c-.0525.0145-.143.096-.1139.201l.0807 1.1078c-.0089.172-.0848.306-.2423.3496-.1574.0436-.344-.0178-.3875-.1752l-.5006-.9916c-.0145-.0525-.0961-.1429-.201-.1138l-1.1078.0806c-.172-.0089-.3061-.0848-.3496-.2422-.0816-.0905.0323-.2915.1752-.3876z" fill="#808080"/><path d="m50.3919 128.517 1.7802-.899c.0942-.026.2566-.172.2044-.361l-.1448-1.989c.0159-.308.1522-.549.4349-.627.2827-.079.6175.032.6958.314l.8986 1.781c.0261.094.1725.256.361.204l1.9888-.145c.3088.016.5494.152.6277.435s-.0319.618-.3146.696l-1.7802.898c-.0942.027-.2566.173-.2044.361l.1448 1.989c-.016.309-.1522.55-.4349.628s-.6175-.032-.6958-.315l-.8987-1.78c-.026-.094-.1724-.256-.3609-.204l-1.9889.145c-.3087-.016-.5494-.153-.6276-.435-.0783-.283.058-.524.3146-.696z" fill="#808080"/><path d="m140.711 81.4106.932-1.399c.059-.0583.117-.2332 0-.3497l-.932-1.399c-.117-.2332-.117-.4664.058-.6412.175-.1749.466-.2332.641-.0583l1.399.9326c.059.0583.233.1166.35 0l1.399-.9326c.233-.1166.466-.1166.641.0583.175.1748.233.4663.058.6412l-.932 1.399c-.058.0583-.117.2331 0 .3497l.932 1.399c.117.2332.117.4663-.058.6412s-.466.2332-.641.0583l-1.399-.9327c-.058-.0583-.233-.1166-.35 0l-1.399.9327c-.233.1166-.466.1166-.641-.0583s-.233-.4663-.058-.6412z" fill="#808080"/><path d="m50.5579 71.4314 1.1934-2.3937c.0804-.1036.1376-.3912-.0696-.552l-1.7506-2.0224c-.2304-.3448-.2768-.7128-.0356-1.0236s.6896-.4609 1.0004-.2197l2.3937 1.1935c.1036.0804.3912.1376.552-.0696l2.0224-1.7506c.3448-.2304.7128-.2768 1.0236-.0356s.4609.6896.2197 1.0004l-1.1935 2.3937c-.0804.1036-.1376.3912.0696.552l1.7506 2.0224c.2304.3448.2768.7128.0356 1.0236-.2411.3108-.6895.4609-1.0004.2197l-2.3937-1.1935c-.1036-.0804-.3912-.1376-.552.0696l-2.0224 1.7506c-.3448.2304-.7128.2768-1.0236.0356s-.4608-.6896-.2196-1.0004z" fill="#808080"/><path d="m74.3305 142.139 1.6721-.844c.0885-.025.241-.162.1919-.339l-.136-1.868c.015-.291.143-.517.4085-.59.2655-.074.5801.03.6536.295l.844 1.673c.0245.088.162.241.339.192l1.8681-.136c.29.015.516.143.5895.408.0735.266-.03.58-.2955.654l-1.672.844c-.0885.024-.241.162-.192.339l.136 1.868c-.015.29-.143.516-.4085.589-.2655.074-.58-.03-.6535-.295l-.8441-1.672c-.0245-.089-.162-.241-.339-.192l-1.8681.136c-.29-.015-.516-.143-.5895-.409-.0735-.265.03-.58.2955-.653z" fill="#808080"/><path d="m42.1886 99.3655 1.1631-2.0626c.0757-.088.1392-.3397-.0367-.4912l-1.4566-1.8669c-.1882-.3153-.2126-.6427.0146-.9067.2273-.2639.6305-.3763.8944-.1491l2.0626 1.1631c.088.0758.3397.1393.4912-.0367l1.8669-1.4566c.3153-.1882.6427-.2126.9067.0146.2639.2273.3763.6305.1491.8944l-1.1631 2.0626c-.0758.088-.1393.3397.0367.4912l1.4566 1.867c.1882.3152.2126.6427-.0146.9066-.2273.2638-.6305.3768-.8944.1491l-2.0626-1.1631c-.088-.0757-.3397-.1392-.4912.0367l-1.867 1.4571c-.3152.188-.6427.212-.9066-.015s-.3764-.6306-.1491-.8945z" fill="#808080"/><path d="m71.3633 35.0252 2.183-1.0543c.209-.0579.2556-.2958.2267-.4003l-.2185-2.4144c.0177-.3424.2444-.7427.5579-.8295.3134-.0867.6847.0355.9049.4245l1.0544 2.183c.0579.209.2958.2556.4003.2267l2.4144-.2185c.3424.0177.7426.2444.8294.5579s-.0354.6848-.4244.905l-2.183 1.0543c-.209.0579-.2557.2958-.2267.4003l.2184 2.4144c-.0177.3424-.2444.7427-.5578.8295-.3135.0868-.6848-.0355-.905-.4245l-1.0544-2.183c-.0578-.209-.2957-.2556-.4002-.2267l-2.4145.2185c-.3424-.0177-.7426-.2444-.8294-.5579-.1157-.4179.0065-.7893.4245-.905z" fill="#808080"/><path d="m122.365 58.5571 1.097-.5296c.105-.029.128-.1485.114-.201l-.11-1.2128c.009-.172.123-.373.28-.4166.158-.0436.344.0178.455.2132l.529 1.0965c.029.105.149.1284.201.1139l1.213-.1098c.172.0089.373.1228.417.2802.043.1575-.018.344-.214.4546l-1.096.5296c-.105.0291-.128.1486-.114.2011l.11 1.2127c-.009.172-.123.3731-.28.4167-.158.0435-.344-.0178-.455-.2132l-.53-1.0966c-.029-.1049-.148-.1284-.201-.1138l-1.212.1097c-.172-.0089-.373-.1228-.417-.2802-.044-.1575.07-.3585.213-.4546z" fill="#808080"/><path d="m112.622 126.666 2.471-1.194c.236-.065.289-.335.256-.453l-.247-2.733c.02-.388.276-.841.631-.939s.775.04 1.025.481l1.193 2.471c.066.236.335.289.453.256l2.733-.247c.388.02.841.277.939.631.098.355-.04.776-.48 1.025l-2.471 1.193c-.237.066-.29.335-.257.453l.247 2.733c-.02.388-.276.841-.631.939s-.775-.04-1.025-.48l-1.193-2.471c-.066-.237-.335-.29-.453-.257l-2.733.247c-.388-.02-.841-.276-.939-.631s.04-.775.481-1.024z" fill="#808080"/><path d="m124.201 101.372 1.776-.858c.17-.047.208-.241.184-.326l-.178-1.9638c.015-.2785.199-.6041.454-.6747s.557.0288.736.3453l.858 1.7758c.047.17.241.208.326.1844l1.964-.1777c.278.0144.604.1988.675.4537.07.255-.029.557-.346.736l-1.776.858c-.17.047-.207.241-.184.326l.178 1.964c-.015.278-.199.604-.454.674-.255.071-.557-.028-.736-.345l-.858-1.776c-.047-.17-.241-.208-.326-.184l-1.964.178c-.278-.015-.604-.199-.674-.454-.071-.255.113-.581.345-.736z" fill="#808080"/><path d="m25.4195 75.3608 2.6335-.2383c.2279-.0631.405.1333.4365.2473l1.15 2.381c.2087.3104.6452.5576.9871.463.3419-.0947.6207-.4173.6085-.9047l-.2383-2.6335c-.0631-.2279.1333-.405.2472-.4365l2.3811-1.15c.3104-.2087.5576-.6452.4629-.9871-.0946-.3419-.4172-.6207-.9046-.6085l-2.6335.2383c-.2279.0631-.405-.1333-.4365-.2473l-1.1501-2.381c-.2086-.3104-.6451-.5576-.987-.463-.3419.0947-.6207.4173-.6085.9047l.2383 2.6335c.0631.2279-.1333.405-.2473.4365l-2.381 1.15c-.3104.2087-.5576.6452-.463.9871.1262.4559.5628.7031.9047.6085z" fill="#808080"/><path d="m11.3411 127.772 3.7236-.337c.3222-.089.5726.188.6172.35l1.626 3.366c.295.439.9122.789 1.3956.655.4835-.134.8777-.59.8603-1.279l-.3368-3.724c-.0893-.322.1884-.573.3495-.617l3.3667-1.626c.4388-.295.7883-.912.6545-1.396-.1338-.483-.5899-.877-1.2791-.86l-3.7235.337c-.3223.089-.5726-.189-.6173-.35l-1.626-3.366c-.2949-.439-.9122-.789-1.3956-.655s-.8776.59-.8603 1.279l.3369 3.724c.0892.322-.1884.572-.3496.617l-3.3666 1.626c-.4388.295-.78839.912-.6546 1.396.1785.644.7957.994 1.2791.86z" fill="#282828"/><path d="m17.5239 33.25 3.4332-.3106c.2971-.0823.528.1738.5691.3223l1.4992 3.1041c.272.4046.8411.727 1.2868.6036.4458-.1234.8092-.544.7933-1.1794l-.3107-3.4332c-.0822-.2971.1738-.528.3224-.5691l3.1041-1.4992c.4046-.272.7269-.8411.6035-1.2868-.1234-.4458-.5439-.8092-1.1794-.7933l-3.4332.3107c-.2971.0822-.5279-.1738-.5691-.3224l-1.4992-3.1041c-.272-.4046-.8411-.7269-1.2868-.6035s-.8092.5439-.7932 1.1794l.3106 3.4331c.0822.2972-.1738.528-.3223.5692l-3.1042 1.4992c-.4046.272-.7269.8411-.6035 1.2868.1646.5943.7337.9166 1.1794.7932z" fill="#282828"/><path d="m153.531 97.5537 4.679 1.6678c.439.0719.586.5464.55.7656l.086 4.9669c.112.694.662 1.46 1.319 1.567.658.108 1.388-.222 1.751-1.063l1.668-4.68c.072-.439.546-.586.765-.55l4.967-.086c.694-.112 1.46-.6615 1.568-1.3192.107-.6578-.223-1.3875-1.064-1.7505l-4.68-1.6678c-.439-.0719-.586-.5463-.55-.7656l-.086-4.9672c-.112-.6937-.661-1.4593-1.319-1.5671-.658-.1079-1.388.2228-1.751 1.0639l-1.667 4.6796c-.072.4385-.547.5859-.766.55l-4.967.0861c-.694.1114-1.459.6614-1.567 1.3191-.144.877.406 1.6426 1.064 1.7504z" fill="#282828"/><path d="m55.3833 50.3167c-.4348.1204-.6896.5704-.5693 1.0052.1204.4348.5704.6897 1.0052.5693.4348-.1203.6897-.5704.5694-1.0052-.1204-.4348-.5705-.6897-1.0053-.5693z" fill="#808080"/><path d="m83.4993 70.8426c-.4348.1204-.6897.5705-.5693 1.0053s.5704.6896 1.0052.5693c.4348-.1204.6897-.5705.5693-1.0052-.1204-.4348-.5704-.6897-1.0052-.5694z" fill="#808080"/><path d="m101.763 37.7297c-.23.3879-.102.8891.286 1.1194s.889.1025 1.119-.2855c.231-.3879.103-.8891-.285-1.1194s-.889-.1025-1.12.2855z" fill="#808080"/><path d="m75.4065 22.0741c-.2303.3879-.1025.8891.2854 1.1194.388.2303.8891.1025 1.1194-.2854.2303-.388.1026-.8891-.2854-1.1194-.3879-.2303-.8891-.1026-1.1194.2854z" fill="#808080"/><path d="m28.3875 58.0365c-.2303.3879-.1025.8891.2854 1.1194.388.2303.8892.1025 1.1195-.2854s.1025-.8891-.2855-1.1194c-.3879-.2303-.8891-.1025-1.1194.2854z" fill="#808080"/><path d="m31.8105 90.1592c-.2303.3879-.1025.8891.2854 1.1194s.8891.1025 1.1194-.2854.1025-.8891-.2854-1.1194-.8891-.1025-1.1194.2854z" fill="#808080"/><path d="m40.7212 122.264c-.2303.388-.1025.89.2854 1.12.388.23.8891.102 1.1194-.286.2303-.387.1025-.889-.2854-1.119s-.8891-.102-1.1194.285z" fill="#808080"/><path d="m62.2697 138.671c-.2303.388-.1025.889.2854 1.12.3879.23.8891.102 1.1194-.286s.1025-.889-.2854-1.119c-.388-.231-.8891-.103-1.1194.285z" fill="#808080"/><path d="m101.69 138.934c-.231.388-.103.889.285 1.12.388.23.889.102 1.12-.286.23-.388.102-.889-.286-1.119s-.889-.103-1.119.285z" fill="#808080"/><path d="m129.117 114.463c-.23.388-.102.889.286 1.119s.889.103 1.119-.285.103-.889-.285-1.12c-.388-.23-.889-.102-1.12.286z" fill="#808080"/><path d="m143.735 87.9208c-.23.3879-.102.8891.285 1.1194.388.2303.89.1025 1.12-.2855.23-.3879.102-.8891-.286-1.1194-.387-.2303-.889-.1025-1.119.2855z" fill="#808080"/><path d="m127.229 47.1668c-.23.388-.103.8891.285 1.1194s.889.1026 1.12-.2854c.23-.3879.102-.8891-.286-1.1194s-.889-.1025-1.119.2854z" fill="#808080"/><g stroke-miterlimit="10"><path d="m171.563 71.0014-16.24-21.5693-33.067 25.1627 16.241 21.5694z" fill="#282828" stroke="#bababa" stroke-width="2"/><path d="m147.091 89.988-16.679-22.0353" stroke="#bababa" stroke-width="2"/><path d="m155.248 83.8138-16.68-22.0352" stroke="#bababa" stroke-width="2"/><path d="m163.405 77.6397-16.68-22.0353" stroke="#bababa" stroke-width="2"/><path d="m160.451 56.7869-32.627 24.6968" stroke="#bababa" stroke-width="2"/><path d="m166.02 64.1438-32.627 24.6969" stroke="#bababa" stroke-width="2"/><path d="m124.741 92.2285 7.131-5.4227-2.537-3.3668-7.13 5.4227z" fill="#808080" stroke="#bababa" stroke-width="2"/><path d="m132.799 120.261c-2.589 1.96-6.269 1.447-8.233-1.148l-3.255-4.3c-.161-.214-.118-.525.094-.687l8.618-6.523c.213-.161.525-.117.686.096l3.255 4.3c1.929 2.622 1.388 6.329-1.165 8.262z" fill="#808080" stroke="#bababa" stroke-width="2.0875"/><path d="m75.0854 144.16-16.2402-21.57 33.0663-25.1626 16.2405 21.5696z" fill="#282828" stroke="#bababa" stroke-width="2"/><path d="m99.995 125.637-16.6794-22.035" stroke="#bababa" stroke-width="2"/><path d="m91.8382 131.811-16.6795-22.035" stroke="#bababa" stroke-width="2"/><path d="m83.6817 137.985-16.6794-22.035" stroke="#bababa" stroke-width="2"/><path d="m64.4141 129.481 32.6271-24.697" stroke="#bababa" stroke-width="2"/><path d="m69.983 136.838 32.627-24.697" stroke="#bababa" stroke-width="2"/><path d="m105.651 101.397-7.1302 5.423 2.5362 3.366 7.131-5.422z" fill="#808080" stroke="#bababa" stroke-width="2"/><path d="m112.42 76.0932-16.6331 12.5901 22.8671 30.2097.027.035s0 0 .027.036c.95 1.182 5.4-.678 9.975-4.14 4.575-3.463 7.537-7.215 6.693-8.477 0 0 0 0-.027-.035l-.027-.036-22.867-30.2096z" fill="#282828" stroke="#bababa" stroke-width="2"/><path d="m120.625 86.9332 6.349 8.3876.027.0355.027.0356c.879 1.2352-2.119 5.0131-6.693 8.4761-4.575 3.463-8.99 5.295-9.976 4.141l-.026-.036-.027-.035-6.349-8.388c.95 1.182 5.4-.6775 9.975-4.1404s7.545-7.2767 6.693-8.4764z" fill="#808080" stroke="#bababa" stroke-width="2"/><path d="m113.023 62.1245c4.315 5.7266.94 15.6088-7.552 22.0664-8.4912 6.4577-18.91 7.0659-23.2244 1.3393-.0261-.0347-.0523-.0694-.0784-.1041-.0262-.0347-.0785-.1041-.1046-.1388-1.3801-2.2806 4.1723-9.1235 12.5203-15.4722 8.3481-6.3487 16.4371-9.8251 18.2211-7.9062.026.0347.078.1041.104.1388.036-.0273.062.0074.114.0768z" fill="#808080" stroke="#bababa" stroke-linejoin="round" stroke-width="2"/><path d="m112.759 61.9307.026.0346c.486.7176.221 2.0046-.682 3.5601-1.817 3.1726-6.134 7.6461-11.737 11.9021-5.6027 4.2561-11.1006 7.2374-14.601 8.104-1.7372.4505-3.0432.3563-3.5998-.3071l-.0261-.0346c-.026-.0345-.0521-.069-.0781-.1036-1.3747-2.2689 4.1559-9.0769 12.4712-15.3932 8.3158-6.3163 16.3718-9.775 18.1488-7.8659.026.0346.052.0691.078.1036z" fill="#282828" stroke="#bababa" stroke-linejoin="round" stroke-width="2"/><path d="m112.092 65.5421.026.0345c-1.815 3.1674-6.126 7.6337-11.723 11.8828-5.5966 4.2491-11.0882 7.2256-14.5846 8.0907l-.026-.0344c-.026-.0345-.052-.069-.052-.069-1.1746-1.9279 3.5789-7.8143 10.7083-13.2272 7.1653-5.44 14.0683-8.4036 15.5993-6.7463 0 0 .026.0344.052.0689z" fill="#808080" stroke="#bababa" stroke-linejoin="round" stroke-width="2"/><path d="m99.1833 72.458c.123.2392-.4724.9691-1.3464 1.6333-.9103.692-1.7715 1.0693-1.9576.8225l-5.9521-9.3395 1.7116-1.3009 7.4913 8.1141z" fill="#282828" stroke="#bababa" stroke-linejoin="round" stroke-width="2"/><path d="m91.4976 65.7081c1.1151-.8486 1.3594-2.4127.5456-3.4935-.8138-1.0809-2.3775-1.2692-3.4926-.4206-1.115.8485-1.3593 2.4127-.5455 3.4935.8138 1.0809 2.3775 1.2692 3.4925.4206z" fill="#282828" stroke="#ff6e4f" stroke-linejoin="round" stroke-width="2"/><path d="m41.9278 37.9872c-.2782 1.8546-1.4837 5.4711-3.6165 6.0274-.0927 0-.1854 0-.2782.0928-2.04.2782-4.3582-1.1128-5.8419-2.1328-.7418-.5564-1.4837-1.2055-2.1328-1.8546-.2782-.2782-.6491-.6491-.9273-.9273-2.1328-2.3182-3.8019-5.1928-4.8219-8.2529-.1855-.6491-.3709-1.2982-.2782-1.9473 0-.1855.0927-.2782.0927-.3709.1855-.4637.5564-.9273 1.1128-1.02.4636-.0928.8346.0927 1.2982.1854.4637.1855.8346.3709 1.2982.6491-1.02-1.2055-1.2982-3.2455-1.2982-4.7292 0-.0927 0-.2782.0927-.2782.0928-.0927.371 0 .4637.0928 1.4836 1.1127 1.4836 3.1528 2.1328 4.8219 0-1.2055.0927-2.411.0927-3.6164 0-.8346.0927-1.8546.7418-2.411.0927-.0927.1855-.0927.2782-.0927.1855 0 .2782.1854.3709.2782 1.1128 1.9473.4637 4.3582.6491 6.5837.0928.8346.1855 1.6692.3709 2.5037.0928.3709.2782 1.2055.4637 2.0401.1854.3709.3709.7418.6491 1.1127.0927.1855.2782.3709.4636.4637.2782.2782.6491.5563 1.0201.8345.7418.3709 1.4836.6491 2.3182.8346 1.4837.2782 2.9673.2782 4.451.3709.2782 0 .5564.0927.7418.2782.0928.1855.0928.2782.0928.4636z" fill="#282828" stroke="#bababa" stroke-linecap="round" stroke-linejoin="round" stroke-width="2"/></g><path d="m61.4005 68.6804c-1.9473 0-3.9873-.6491-5.471-1.5764-2.8746-1.8546-4.6365-4.6365-6.3056-7.1402l3.2455-2.1328c1.4837 2.2255 2.9674 4.6365 5.1001 5.9347 1.6692 1.1128 4.3583 1.4837 5.842.1855 1.8546-1.6692 1.3909-4.822.6491-7.1402-.9273-2.8746-2.6892-5.3783-4.8219-6.9547l2.3182-3.0601c2.8746 2.1328 5.1001 5.2856 6.2129 8.9021 1.5764 4.9146 1.02 8.8092-1.7619 11.2202-1.3909 1.2055-3.2455 1.7619-5.0074 1.7619z" fill="#bababa"/><path d="m65.3885 37.8946c.0927 1.391-.3709 2.7819-.9273 4.1728-2.1328 5.5638-4.3583 11.1276-6.9547 16.5059-.5564 1.02-1.02 2.1327-1.5764 3.1527-.7418 1.4837-1.6691 3.1528-3.3383 3.5238-1.3909.2782-2.6891-.371-3.8946-1.0201-.3709-.1854-.7418-.4636-.9273-.8345-.1854-.3709-.0927-.8346 0-1.2055 1.1128-5.5638 3.2455-10.7566 5.3783-16.0422 1.02-2.5964 2.1328-5.2855 2.9674-7.9747.6491-1.8546 1.1127-4.2655 3.5237-4.451 2.2255-.0927 5.5637 1.6691 5.7492 4.1728z" fill="#bababa"/><path d="m39.5167 54.493v.4636c-.0928 1.2055-.371 2.3183-1.0201 3.3383-.7418 1.1127-1.8546 2.04-3.1528 2.3182-.2782.0928-.5563.0928-.8345.0928-1.2055.0927-2.411-.2782-3.5237-.7419-1.391-.5564-2.7819-1.2055-4.3583-1.2982-.8346-.0927-1.6691 0-2.5037.1855-.4637.0927-.8346.2782-1.2982.3709-.4637.1854-.9273.3709-1.391.5564-1.5764.7418-3.1528 1.7618-4.7292 2.4109-1.2982.5564-2.8746.8346-3.9873 0-.5564-.3709-.8346-1.02-1.1128-1.5764-1.5764-2.9673-2.9673-5.9347-4.35824-8.9947-.09273-.0927-.18546-.2782-.18546-.4637 0-.4636.55638-.8345.92729-1.02.09273-.0927.18546-.0927.27819-.1854 1.02002-.4637 1.94732-.8346 3.06002-1.0201 1.2055-.0927 2.5037.0928 3.3383.9273.5564.5564.9273 1.2055 1.2982 1.9473.3709.8346.8346 1.6692 1.2055 2.5037 1.1127-.9273 2.2255-1.8546 3.431-2.6891.3709-.2782.7418-.4637 1.1127-.6491.6491-.3709 1.391-.7419 2.1328-.9273 1.2055-.4637 2.5037-.6491 3.8019-.7418.6491-.0928 1.2982-.1855 1.9473-.0928.7419 0 1.4837.1855 2.1328.2782 1.7619.3709 3.6164.7418 5.3783 1.1128l-1.9473-.1855c1.5764.3709 3.431.9273 4.0801 2.411.2782.4636.2782 1.1127.2782 1.6691z" style="fill:#282828;stroke:#bababa;stroke-width:2;stroke-miterlimit:10;stroke-linecap:round;stroke-linejoin:round"/><path d="m32.6545 50.0419c-.6491 2.5037-.0927 5.1929 1.4837 7.3256.0927.0928.1855.2782.3709.1855.0928 0 .0928-.0927.1855-.1855.2782-.6491.3709-1.3909.4636-2.04.1855-1.5764.7419-4.0801.1855-5.6565-.6491-1.4837-2.411-.8346-2.6892.3709z" fill="#bababa"/><path d="m44.1532 32.2377c-.7419 1.02-1.6692 1.8546-2.5037 2.7819-4.9147 5.2855-7.2329 12.6111-8.6239 19.7513-.3709 1.8546-.5563 3.8946.5564 5.2856.5564.6491 1.2982 1.1127 2.0401 1.4836 1.2054.6491 2.3182 1.2982 3.5237 1.9474 1.3909.7418 2.8746 1.5764 4.451 1.6691 1.8546.0927 3.7092-.8346 5.1001-2.1328s2.3182-2.9673 3.2455-4.6365c2.3182-4.2655 4.451-8.6238 6.3056-13.0748.5564-1.2982 1.1128-2.6891 1.2982-4.0801.2782-2.04-.1854-4.0801-.5564-6.0274-.0927-.4636-.1854-1.02-.5563-1.3909-.4637-.4637-1.2055-.4637-1.7619-.3709-4.0801.1854-8.2529.5563-12.1475-.371-.8346-.1854-1.7619-.4636-2.2255-1.2054" fill="#282828"/><path d="m44.1532 32.2377c-.7419 1.02-1.6692 1.8546-2.5037 2.7819-4.9147 5.2855-7.2329 12.6111-8.6239 19.7513-.3709 1.8546-.5563 3.8946.5564 5.2856.5564.6491 1.2982 1.1127 2.0401 1.4836 1.2054.6491 2.3182 1.2982 3.5237 1.9474 1.3909.7418 2.8746 1.5764 4.451 1.6691 1.8546.0927 3.7091-.8346 5.1001-2.1328 1.3909-1.2982 2.3182-2.9673 3.2455-4.6365 2.3182-4.2655 4.451-8.6238 6.3056-13.0748.5564-1.2982 1.1128-2.6891 1.2982-4.0801.2782-2.04-.1854-4.0801-.5564-6.0274-.0927-.4636-.1854-1.02-.5563-1.3909-.4637-.4637-1.2055-.4637-1.7619-.3709-4.0801.1854-8.2529.5563-12.1475-.371-.8346-.1854-1.7619-.4636-2.2255-1.2054" stroke="#bababa" stroke-linecap="round" stroke-linejoin="round" stroke-miterlimit="10" stroke-width="2"/><path d="m24.1238 58.9438c-.4636.0927-.8346.2782-1.2982.3709-.0927-1.2982-.2782-2.7819-.6491-4.1728-.3709-1.2055-.8346-2.3182-1.5764-3.431.3709-.2782.7418-.4636 1.1127-.6491.7419 1.2055 1.2983 2.411 1.6692 3.7092.3709 1.3909.6491 2.8746.7418 4.1728z" fill="#bababa"/><path d="m36.7344 57.0895c-.371.9273-.1855-.2782-.2782.8346 0 1.02.2782 2.04.8345 2.9673 1.1128 1.5764 3.0601 2.5037 4.9147 3.1528 1.6691.5564 3.431.8346 5.1001 0 2.04-1.02 3.6164-3.431 3.431-5.7492-.1855-3.0601-3.8019-4.6365-6.4911-4.9147-3.3382-.3709-5.0073.8346-7.6038 2.7819v.9273z" fill="#bababa"/><path d="m62.606 27.6942c0 .0927-.0928.2782-.0928.3709-.4636 2.04-1.02 3.9873-1.2054 6.1201-.0928.9273.0927 2.5964-.8346 3.2455-.7418.4637-2.04.1855-2.8746.1855-2.5964-.1855-5.1001-.6491-7.7893-.6491-.1854 0-.3709 0-.6491 0-.9273-.0927-1.7618-.4637-2.5037-.9273-1.02-.4636-1.9473-1.02-2.9673-1.3909-.8346-.2782-1.7619-.4637-2.2255-1.2055-.5564-.7419-.5564-1.6691-.6491-2.5037-.2782-2.7819-.1855-5.7492.5564-8.4384.4636-1.6691 1.3909-3.3382 2.7818-4.5437 3.0601-2.7819 7.9748-3.3383 11.7767-1.4837 2.7818 1.391 5.1928 3.8019 6.3056 6.7693.4636 1.2982.6491 2.8746.3709 4.451z" style="fill:#282828;stroke:#bababa;stroke-width:2;stroke-miterlimit:10;stroke-linecap:round;stroke-linejoin:round"/><path d="m62.6059 27.6942c0 .0927-.0927.2781-.0927.3709-.4637 2.04-1.0201 3.9873-1.2055 6.1201-.0927.9273.0927 2.5964-.8346 3.2455-.7418.4637-2.04.1855-2.8746.1855-2.5964-.1855-5.1001-.6491-7.7892-.6491-.1855 0-.371 0-.6491 0 1.1127-.4637 2.3182-.4637 3.5237-.6491 3.8019-.6491 7.1401-3.3383 8.6238-6.862.4636-1.1127.7418-2.3182.8346-3.5237.0927-.9273.0927-1.8546-.0928-2.6892.6491 1.2983.8346 2.8747.5564 4.4511z" style="fill:#282828;stroke:#bababa;stroke-width:2;stroke-miterlimit:10;stroke-linecap:round;stroke-linejoin:round"/><path d="m54.2605 35.3911c-1.0201.9273-2.2255 1.5764-3.5237 1.5764-2.2255 0-4.5438-.4636-6.5838-1.4837-.6491-.3709-1.2055-.7418-1.7619-1.1127-.2782-.2782-.6491-.5564-.8345-.8346-.6491-.7418-1.0201-1.5764-1.2055-2.5964-.5564-2.1328-.1855-4.7292.5564-6.7692.8345-2.1328 2.1327-2.9674 4.3582-3.0601 2.2255-.1855 4.822.5564 6.9547 1.5764.0928.0927.1855.0927.2782.1855.9273.4636 1.7619 1.02 2.411 1.6691 3.1528 2.8746 2.3182 8.0674-.6491 10.8493z" style="fill:#282828;stroke:#bababa;stroke-width:2;stroke-miterlimit:10;stroke-linecap:round;stroke-linejoin:round"/><path d="m49.3458 59.8713v.1855c0 .4636-.0928.8346-.2782 1.2055-.6491 1.7618-2.5037 2.8746-4.3583 3.431-1.8546.5563-3.8019.6491-5.5637 1.2054-1.4837.4637-2.9674 1.1128-4.0801 2.1328-.2782.2782-.5564.4637-.7419.7418 0 .0928-.0927.0928-.0927.1855-2.04 2.5037-2.5964 6.1201-5.0074 8.3456-.1854.1855-.3709.2782-.5564.371-.1854 0-.3709-.0928-.5563-.0928-3.431-1.4836-6.5838-3.3382-9.7366-5.2855-.4637-.2782-1.02-.6491-1.2982-1.1128-.1855-.3709-.1855-.7418 0-1.1127.4636-1.391 2.5037-3.0601 3.431-3.431 1.02-.3709 2.2255-.2782 3.2455.0927s2.04 1.02 2.8746 1.6691c.1855-1.2982.5564-2.6891 1.1128-3.8946.1854-.3709.3709-.7418.5563-1.1127.1855-.371.4637-.6492.6491-1.0201.5564-.8345 1.2982-1.5764 2.0401-2.2255 1.02-.9273 2.1328-1.7618 3.2455-2.5037 1.6691-1.1127 3.431-2.1327 5.2856-2.5964.2782-.0927.5564-.0927.8345-.1854 1.8546-.371 3.8947-.0928 5.6565.6491 1.02.3709 1.9473 1.02 2.5964 1.8545.4637.6492.7419 1.5764.7419 2.5037z" style="fill:#282828;stroke:#bababa;stroke-width:2;stroke-miterlimit:10;stroke-linecap:round;stroke-linejoin:round"/><path d="m34.973 68.0313c-.2782.2782-.5564.4636-.7418.7418 0 .0927-.0928.0928-.0928.1855-1.1127-1.391-2.4109-2.5037-3.8946-3.3383-.6491-.3709-1.3909-.6491-2.1328-.9273-.0927-.0927-.2782-.0927-.3709-.1854.1855-.3709.3709-.7419.5564-1.1128.0927 0 .1854.0927.2782.0927.7418.2782 1.5764.5564 2.3182 1.0201 1.4837.8345 2.9673 2.04 4.0801 3.5237z" fill="#bababa"/><path d="m77.2572 43.8292c0 .0927 0 .2782-.0927.3709-.2782 1.02-1.2982 1.5764-2.3183 1.7619-.2782.0927-.6491.0927-.9273.0927-.7418.0927-1.3909.0927-2.1327.2782-.7419.1855-1.4837.6491-2.2255 1.02-.7419.3709-1.5764.6491-2.3183.8346-.4636.0927-.9273.1854-1.3909.2782-2.0401.2782-4.0801.0927-6.0274-.5564-1.2055-.3709-2.1328-1.3909-2.6892-2.6892-.8345-2.04-.6491-4.6364 1.2982-5.8419 2.5037-1.5764 4.0801.6491 6.1202 1.5764.3709.1855.7418.2782 1.1127.3709.4637.0927.9273.0927 1.391.0927 1.02-.0927 2.04-.3709 2.9673-.8345 1.6691-.8346 3.1528-2.1328 4.6365-3.3383.2782-.1854.5564-.4636.9273-.3709s.5563.5564.5563 1.02v.0928c-.0927.3709-.2781.7418-.3709 1.1127-.1854 1.6691 1.6691 3.1528 1.4837 4.7292z" style="fill:#282828;stroke:#bababa;stroke-width:2;stroke-miterlimit:10;stroke-linecap:round;stroke-linejoin:round"/><path d="m76.5158 47.8166-6.8619-33.7534c-.0928-.371.1854-.6492.4636-.7419.3709-.0927.6491.1855.7419.4637l6.8619 33.7534c.0927.3709-.1854.6491-.4636.7419-.2782.0927-.6491-.1855-.7419-.4637z" style="fill:#282828;stroke:#ff6e4f;stroke-width:2;stroke-miterlimit:10;stroke-linecap:round;stroke-linejoin:round"/><path d="m77.1652 44.1998c-.2782 1.02-1.2983 1.5764-2.3183 1.7619-.2782.0927-.6491.0927-.9273.0927 0-.0927-.0927-.1855-.0927-.2782-.1855-.3709-.0927-.8346.2782-1.1127-.2782-.0928-.5564-.1855-.6491-.4637-.1855-.4636 0-1.02.4636-1.2055l.2782-.0927c-.0927 0-.1854 0-.1854 0-.371 0-.6491-.1855-.8346-.5564-.1855-.4636 0-.9273.3709-1.2055-.1855-.0927-.4636-.2781-.5564-.4636-.1854-.4636 0-1.02.4637-1.2055l2.9673-1.3909c-.0927.3709-.2782.7418-.3709 1.1127-.4636 1.6692 1.6691 3.2456 1.1128 5.0074z" style="fill:#282828;stroke:#bababa;stroke-width:2;stroke-miterlimit:10;stroke-linecap:round;stroke-linejoin:round"/><path d="m78.6482 43.2727c-.0927-.2782-.3709-.4637-.6491-.4637l.2782-.0927c.4636-.1855.6491-.7419.4636-1.2055-.1854-.3709-.6491-.5564-1.02-.4636l.1855-.0928c.4636-.1854.6491-.7418.4636-1.2055-.0927-.2781-.2782-.3709-.5564-.4636.371-.2782.5564-.7418.371-1.2055-.1855-.4636-.7419-.6491-1.2055-.4636l-3.1528 1.4836c-.4637.1855-.6491.7419-.4637 1.2055.0928.2782.2782.3709.5564.4637-.3709.2782-.5564.7418-.3709 1.2054.1854.371.6491.5564 1.02.4637l-.2782.0927c-.4636.1855-.6491.7419-.4636 1.2055.0927.2782.3709.4637.6491.4637-.3709.2781-.4637.7418-.2782 1.1127.1855.4637.7418.6491 1.2055.4637l2.7819-1.2983c.4636-.1854.6491-.6491.4636-1.2054z" style="fill:#282828;stroke:#bababa;stroke-width:2;stroke-miterlimit:10;stroke-linecap:round;stroke-linejoin:round"/><path d="m50.8297 26.3962c-.3709.5564-1.1127.7419-1.6691.4637-.1854-.0928-.4636-.1855-.6491-.2782-2.5964-1.02-5.3783-.3709-6.1201 1.5764-.1855.4636-.8346.3709-.8346-.0927-.0927-.6491 0-1.391.2782-2.0401.9273-2.5037 3.9874-3.6164 6.862-2.5037.7418.2782 1.3909.7419 1.9473 1.2055.4636.4636.4636 1.1128.1854 1.6691z" fill="#bababa" opacity=".4"/><path d="m41.9275 40.5835c1.8546.9273 5.6565 2.1328 7.9747 2.3183.4637.0927.6491.4636.5564.9273-1.5764 3.7091-2.8746 7.4183-3.3383 8.8092-.0927.371-.4636.5564-.7418.4637-1.6691-.4637-6.3056-1.7619-8.1602-2.5037-.3709-.0927-.4636-.4637-.3709-.8346 1.5764-3.8946 2.6892-7.3256 3.1528-8.8093.1855-.3709.6491-.5563.9273-.3709z" fill="#bababa" opacity=".4"/><path d="m67.3358 48.0945c-.4637.0927-.9273.1854-1.391.2781-.7418-1.1127-1.2055-2.5964-1.1127-4.0801.0927-.8345.3709-2.04.9273-2.9673.4636.0927.9273.0927 1.3909.0927-.5564.8346-1.02 2.0401-1.1127 2.9674-.0928 1.3909.4636 2.8746 1.2982 3.7092z" fill="#bababa"/><path d="m34.4165 36.0399c-1.6691 1.1127-3.1528 2.5037-4.451 4.0801-.2782-.2782-.6491-.6491-.9273-.9273 1.2055-1.4837 2.6892-2.7819 4.2656-3.8947z" fill="#bababa"/><path d="m94.6907 26.2105c-8.7165-2.8746-12.333 8.0674-21.235 3.431l-3.1528-15.3931c9.6439 4.0801 13.353-5.19282 21.235-3.431z" style="fill:#282828;stroke:#ff6e4f;stroke-width:2;stroke-miterlimit:10;stroke-linecap:round;stroke-linejoin:round"/></svg>